{
.appVersion = "1230";
copyright = "Digitized data copyright (C) 2010-2018, Google Corporation.";
customParameters = (
{
name = Axes;
value = (
{
Name = Weight;
Tag = wght;
},
{
Name = Width;
Tag = wdth;
}
);
},
{
name = "Enforce Compatibility Check";
value = 1;
},
{
name = vendorID;
value = "1ASC";
},
{
name = license;
value = "Licensed under the Apache License, Version 2.0";
},
{
name = licenseURL;
value = "http://www.apache.org/licenses/LICENSE-2.0";
},
{
name = fsType;
value = (
);
},
{
name = "Use Line Breaks";
value = 1;
},
{
name = "Disable Last Change";
value = 1;
},
{
name = "Family Alignment Zones";
value = (
"{1567, 16}",
"{1462, 24}",
"{1087, 22}",
"{0, -21}",
"{-492, -31}"
);
},
{
name = "Use Typo Metrics";
value = 1;
},
{
name = panose;
value = (
2,
11,
6,
6,
3,
5,
4,
2,
2,
4
);
}
);
date = "2018-06-07 18:13:25 +0000";
designerURL = "http://www.ascendercorp.com/typedesigners.html";
familyName = "Open Sans";
features = (
{
automatic = 1;
code = "feature lnum;
feature locl;
feature onum;
feature pnum;
feature ss01;
feature ss02;
feature salt;
feature ss03;
feature frac;
feature numr;
feature dnom;
feature sups;
";
name = aalt;
},
{
code = "sub f f l by f_f_l;
sub f f i by f_f_i;
sub f f by f_f;
sub f l by fl;
sub f i by fi;";
name = liga;
},
{
code = "sub zero.osf by zero;
sub one.osf by one;
sub two.osf by two;
sub three.osf by three;
sub four.osf by four;
sub five.osf by five;
sub six.osf by six;
sub seven.osf by seven;
sub eight.osf by eight;
sub nine.osf by nine;";
name = lnum;
},
{
code = "language MOL
sub Tcommaaccent by Tcedilla;
sub tcommaaccent by tcedilla;
sub Scommaaccent by Scedilla;
sub scommaaccent by scedilla;
language ROM ;
sub Tcommaaccent by Tcedilla;
sub tcommaaccent by tcedilla;
sub Scommaaccent by Scedilla;
sub scommaaccent by scedilla;
";
name = locl;
},
{
code = "sub zero by zero.osf;
sub one by one.osf;
sub two by two.osf;
sub three by three.osf;
sub four by four.osf;
sub five by five.osf;
sub six by six.osf;

glyphs = (
{
glyphname = A;
layers = (
{
anchors = (
{
name = bottom;
position = "{414, 0}";
},
{
name = ogonek;
position = "{979, 10}";
},
{
name = top;
position = "{725, 1462}";
}
);
background = {
anchors = (
{
name = bottom;
position = "{414, 0}";
},
{
name = ogonek;
position = "{837, 10}";
},
{
name = top;
position = "{725, 1462}";
}
);
paths = (
{
closed = 1;
nodes = (
"979 0 LINE",
"778 1468 LINE",
"711 1468 LINE",
"-111 0 LINE",
"6 0 LINE",
"293 520 LINE",
"805 520 LINE",
"874 0 LINE"
);
},
{
closed = 1;
nodes = (
"525 943 OFFCURVE",
"628 1130 OFFCURVE",
"651 1175 CURVE SMOOTH",
"674 1220 OFFCURVE",
"695 1263 OFFCURVE",
"715 1305 CURVE",
"720 1198 OFFCURVE",
"733 1064 OFFCURVE",
"754 903 CURVE SMOOTH",
"793 612 LINE",
"344 612 LINE"
);
}
);
};
layerId = "4C802D5D-2BAD-4759-8C93-835BB7B64EA1";
paths = (
{
closed = 1;
nodes = (
"6 0 LINE",
"293 520 LINE",
"805 520 LINE",
"874 0 LINE",
"979 0 LINE",
"778 1468 LINE",
"711 1468 LINE",
"-111 0 LINE"
);
},
{
closed = 1;
nodes = (
"525 943 OFFCURVE",
"628 1130 OFFCURVE",
"651 1175 CURVE SMOOTH",
"674 1220 OFFCURVE",
"695 1263 OFFCURVE",
"715 1305 CURVE",
"720 1198 OFFCURVE",
"733 1064 OFFCURVE",
"754 903 CURVE SMOOTH",
"793 612 LINE",
"344 612 LINE"
);
}
);
width = 1059;
},
{
anchors = (
{
name = bottom;
position = "{251, 0}";
},
{
name = ogonek;
position = "{650, 10}";
},
{
name = top;
position = "{561, 1462}";
}
);
background = {
anchors = (
{
name = bottom;
position = "{251, 0}";
},
{
name = ogonek;
position = "{650, 10}";
},
{
name = top;
position = "{561, 1462}";
}
);
paths = (
{
closed = 1;
nodes = (
"651 1468 LINE",
"528 1468 LINE",
"-78 0 LINE",
"27 0 LINE",
"248 530 LINE",
"555 530 LINE",
"555 0 LINE",
"651 0 LINE"
);
},
{
closed = 1;
nodes = (
"409 944 OFFCURVE",
"484 1135 OFFCURVE",
"509 1202 CURVE SMOOTH",
"534 1269 OFFCURVE",
"551 1319 OFFCURVE",
"561 1354 CURVE",
"558 1236 OFFCURVE",
"555 1117 OFFCURVE",
"555 999 CURVE SMOOTH",
"555 629 LINE",
"283 629 LINE"
);
}
);
};
layerId = "9047BFCD-DDCC-4357-AC30-29E5270711EF";
paths = (
{
closed = 1;
nodes = (
"27 0 LINE",
"248 530 LINE",
"555 530 LINE",
"555 0 LINE",
"651 0 LINE",
"651 1468 LINE",
"528 1468 LINE",
"-78 0 LINE"
);
},
{
closed = 1;
nodes = (
"409 944 OFFCURVE",
"484 1135 OFFCURVE",
"509 1202 CURVE SMOOTH",
"534 1269 OFFCURVE",
"551 1319 OFFCURVE",
"561 1354 CURVE",
"558 1236 OFFCURVE",
"555 1117 OFFCURVE",
"555 999 CURVE SMOOTH",
"555 629 LINE",
"283 629 LINE"
);
}
);
width = 731;
},
{
anchors = (
{
name = bottom;
position = "{607, 0}";
},
{
name = ogonek;
position = "{1211, 10}";
},
{
name = top;
position = "{898, 1462}";
}
);
background = {
anchors = (
{
name = bottom;
position = "{607, 0}";
},
{
name = ogonek;
position = "{1211, 10}";
},
{
name = top;
position = "{898, 1462}";
}
);
paths = (
{
closed = 1;
nodes = (
"1159 1468 LINE",
"675 1468 LINE",
"-3 0 LINE",
"347 0 LINE",
"477 301 LINE",
"869 301 LINE",
"870 0 LINE",
"1211 0 LINE"
);
},
{
closed = 1;
nodes = (
"703 817 OFFCURVE",
"776 984 OFFCURVE",
"788 1015 CURVE SMOOTH",
"791 1022 OFFCURVE",
"866 1216 OFFCURVE",
"874 1239 CURVE",
"873 1225 OFFCURVE",
"869 901 OFFCURVE",
"869 868 CURVE SMOOTH",
"868 602 LINE",
"608 600 LINE"
);
}
);
};
layerId = "055178C8-6F6F-4B48-86C1-608D4439D248";
paths = (
{
closed = 1;
nodes = (
"347 0 LINE",
"477 301 LINE",
"869 301 LINE",
"870 0 LINE",
"1211 0 LINE",
"1159 1468 LINE",
"675 1468 LINE",
"-3 0 LINE"
);
},
{
closed = 1;
nodes = (
"703 817 OFFCURVE",
"776 984 OFFCURVE",
"788 1015 CURVE SMOOTH",
"791 1022 OFFCURVE",
"866 1216 OFFCURVE",
"874 1239 CURVE",
"873 1225 OFFCURVE",
"869 901 OFFCURVE",
"869 868 CURVE SMOOTH",
"868 602 LINE",
"608 600 LINE"
);
}
);
width = 1214;
},
{
anchors = (
{
name = bottom;
position = "{572, 0}";
},
{
name = ogonek;
position = "{1249, 10}";
},
{
name = top;
position = "{882, 1462}";
}
);
background = {
anchors = (
{
name = bottom;
position = "{572, 0}";
},
{
name = ogonek;
position = "{1126, 10}";
},
{
name = top;
position = "{882, 1462}";
}
);
paths = (
{
closed = 1;
nodes = (
"1249 0 LINE",
"1126 1462 LINE",
"623 1462 LINE",
"-121 0 LINE",
"285 0 LINE",
"410 274 LINE",
"858 274 LINE",
"868 0 LINE"
);
},
{
closed = 1;
nodes = (
"795 1114 OFFCURVE",
"815 1170 OFFCURVE",
"831 1227 CURVE",
"828 1190 OFFCURVE",
"827 1146 OFFCURVE",
"827 1096 CURVE SMOOTH",
"829 1010 LINE",
"846 586 LINE",
"553 586 LINE",
"770 1061 LINE SMOOTH"
);
}
);
};
layerId = "0B5E954E-D3E5-4A16-AD17-8B1BCB8BDBD4";
paths = (
{
closed = 1;
nodes = (
"285 0 LINE",
"410 274 LINE",
"858 274 LINE",
"868 0 LINE",
"1249 0 LINE",
"1126 1462 LINE",
"623 1462 LINE",
"-121 0 LINE"
);
},
{
closed = 1;
nodes = (
"625 744 OFFCURVE",
"698 903 OFFCURVE",
"770 1061 CURVE SMOOTH",
"795 1114 OFFCURVE",
"815 1170 OFFCURVE",
"831 1227 CURVE",
"827 1174 OFFCURVE",
"827 1077 OFFCURVE",
"829 1010 CURVE",
"846 586 LINE",
"553 586 LINE"
);
}
);
width = 1384;
}
);
leftKerningGroup = A;
rightKerningGroup = A;
unicode = 0041;
},
{
glyphname = Aogonek;
layers = (
{
background = {
paths = (
{
closed = 1;
nodes = (
"979 0 LINE",
"778 1468 LINE",
"711 1468 LINE",
"-111 0 LINE",
"6 0 LINE",
"293 520 LINE",
"805 520 LINE",
"874 0 LINE"
);
},
{
closed = 1;
nodes = (
"525 943 OFFCURVE",
"628 1130 OFFCURVE",
"651 1175 CURVE SMOOTH",
"674 1220 OFFCURVE",
"695 1263 OFFCURVE",
"715 1305 CURVE",
"720 1198 OFFCURVE",
"733 1064 OFFCURVE",
"754 903 CURVE SMOOTH",
"793 612 LINE",
"344 612 LINE"
);
},
{
closed = 1;
nodes = (
"714 -96 OFFCURVE",
"658 -176 OFFCURVE",
"658 -268 CURVE SMOOTH",
"658 -361 OFFCURVE",
"716 -414 OFFCURVE",
"816 -414 CURVE SMOOTH",
"854 -414 OFFCURVE",
"887 -409 OFFCURVE",
"914 -399 CURVE",
"914 -328 LINE",
"885 -335 OFFCURVE",
"860 -338 OFFCURVE",
"838 -338 CURVE SMOOTH",
"779 -338 OFFCURVE",
"750 -311 OFFCURVE",
"750 -256 CURVE SMOOTH",
"750 -185 OFFCURVE",
"791 -123 OFFCURVE",
"872 -60 CURVE SMOOTH",
"947 0 LINE",
"875 0 LINE"
);
}
);
};
components = (
{
name = A;
},
{
name = ogonekcomb;
transform = "{1, 0, 0, 1, 858, 0}";
}
);
layerId = "4C802D5D-2BAD-4759-8C93-835BB7B64EA1";
width = 1059;
},
{
background = {
components = (
{
name = A;
},
{
name = ogonekcomb;
transform = "{1, 0, 0, 1, 552, 0}";
}
);
};
components = (
{
name = A;
},
{
name = ogonekcomb;
transform = "{1, 0, 0, 1, 553, 0}";
}
);
layerId = "9047BFCD-DDCC-4357-AC30-29E5270711EF";
width = 731;
},
{
background = {
components = (
{
name = A;
},
{
name = ogonekcomb;
transform = "{1, 0, 0, 1, 930, 0}";
}
);
};
components = (
{
name = A;
},
{
name = ogonekcomb;
transform = "{1, 0, 0, 1, 941, 0}";
}
);
layerId = "055178C8-6F6F-4B48-86C1-608D4439D248";
width = 1214;
},
{
background = {
components = (
{
alignment = -1;
name = A;
},
{
alignment = -1;
name = ogonek;
transform = "{1, 0, 0, 1, 965, 0}";
}
);
};
components = (
{
name = A;
},
{
name = ogonekcomb;
transform = "{1, 0, 0, 1, 959, 0}";
}
);
layerId = "0B5E954E-D3E5-4A16-AD17-8B1BCB8BDBD4";
width = 1384;
}
);
leftKerningGroup = A;
note = Aogonek;
rightKerningGroup = A;
unicode = 0104;
},
{
glyphname = Aringacute;
layers = (
{
background = {
paths = (
{
closed = 1;
nodes = (
"928 1567 OFFCURVE",
"853 1642 OFFCURVE",
"729 1642 CURVE SMOOTH",
"610 1642 OFFCURVE",
"522 1560 OFFCURVE",
"522 1440 CURVE SMOOTH",
"522 1369 OFFCURVE",
"553 1311 OFFCURVE",
"602 1276 CURVE",
"-111 0 LINE",
"6 0 LINE",
"293 520 LINE",
"805 520 LINE",
"874 0 LINE",
"979 0 LINE",
"807 1260 LINE",
"886 1288 OFFCURVE",
"928 1362 OFFCURVE",
"928 1446 CURVE SMOOTH"
);
},
{
closed = 1;
nodes = (
"513 921 OFFCURVE",
"608 1094 OFFCURVE",
"628 1133 CURVE SMOOTH",
"648 1171 OFFCURVE",
"667 1208 OFFCURVE",
"686 1245 CURVE",
"719 1245 LINE",
"728 1120 OFFCURVE",
"739 1006 OFFCURVE",
"754 903 CURVE SMOOTH",
"793 612 LINE",
"344 612 LINE"
);
},
{
closed = 1;
nodes = (
"852 1365 OFFCURVE",
"802 1319 OFFCURVE",
"727 1319 CURVE SMOOTH",
"647 1319 OFFCURVE",
"602 1365 OFFCURVE",
"602 1444 CURVE SMOOTH",
"602 1520 OFFCURVE",
"655 1569 OFFCURVE",
"727 1569 CURVE SMOOTH",
"807 1569 OFFCURVE",
"852 1520 OFFCURVE",
"852 1444 CURVE SMOOTH"
);
},
{
closed = 1;
nodes = (
"743 1708 LINE",
"859 1780 OFFCURVE",
"1017 1918 OFFCURVE",
"1094 2013 CURVE",
"1094 2036 LINE",
"956 2036 LINE",
"896 1937 OFFCURVE",
"764 1797 OFFCURVE",
"676 1729 CURVE",
"676 1708 LINE"
);
}
);
};
layerId = "4C802D5D-2BAD-4759-8C93-835BB7B64EA1";
paths = (
{
closed = 1;
nodes = (
"6 0 LINE",
"293 520 LINE",
"805 520 LINE",
"874 0 LINE",
"979 0 LINE",
"807 1260 LINE",
"886 1288 OFFCURVE",
"928 1362 OFFCURVE",
"928 1446 CURVE SMOOTH",
"928 1567 OFFCURVE",
"853 1642 OFFCURVE",
"729 1642 CURVE SMOOTH",
"610 1642 OFFCURVE",
"522 1560 OFFCURVE",
"522 1440 CURVE SMOOTH",
"522 1369 OFFCURVE",
"553 1311 OFFCURVE",
"602 1276 CURVE",
"-111 0 LINE"
);
},
{
closed = 1;
nodes = (
"513 921 OFFCURVE",
"608 1094 OFFCURVE",
"628 1133 CURVE SMOOTH",
"648 1171 OFFCURVE",
"667 1208 OFFCURVE",
"686 1245 CURVE",
"719 1245 LINE",
"728 1120 OFFCURVE",
"739 1006 OFFCURVE",
"754 903 CURVE SMOOTH",
"767 806 OFFCURVE",
"780 709 OFFCURVE",
"793 612 CURVE",
"344 612 LINE"
);
},
{
closed = 1;
nodes = (
"647 1319 OFFCURVE",
"602 1365 OFFCURVE",
"602 1444 CURVE SMOOTH",
"602 1520 OFFCURVE",
"655 1569 OFFCURVE",
"727 1569 CURVE SMOOTH",
"807 1569 OFFCURVE",
"852 1520 OFFCURVE",
"852 1444 CURVE SMOOTH",
"852 1365 OFFCURVE",
"802 1319 OFFCURVE",
"727 1319 CURVE SMOOTH"
);
},
{
closed = 1;
nodes = (
"743 1708 LINE",
"859 1780 OFFCURVE",
"1017 1918 OFFCURVE",
"1094 2013 CURVE",
"1094 2036 LINE",
"956 2036 LINE",
"896 1937 OFFCURVE",
"764 1797 OFFCURVE",
"676 1729 CURVE",
"676 1708 LINE"
);
}
);
width = 1059;
},
{
background = {
paths = (
{
closed = 1;
nodes = (
"735 1505 OFFCURVE",
"657 1577 OFFCURVE",
"542 1577 CURVE SMOOTH",
"426 1577 OFFCURVE",
"355 1504 OFFCURVE",
"355 1388 CURVE SMOOTH",
"355 1313 OFFCURVE",
"385 1256 OFFCURVE",
"445 1225 CURVE",
"-78 0 LINE",
"29 0 LINE",
"250 530 LINE",
"537 530 LINE",
"557 0 LINE",
"654 0 LINE",
"606 1212 LINE",
"688 1235 OFFCURVE",
"735 1304 OFFCURVE",
"735 1392 CURVE SMOOTH"
);
},
{
closed = 1;
nodes = (
"525 1198 LINE",
"537 629 LINE",
"287 629 LINE"
);
},
{
closed = 1;
nodes = (
"660 1320 OFFCURVE",
"615 1276 OFFCURVE",
"542 1276 CURVE SMOOTH",
"469 1276 OFFCURVE",
"430 1320 OFFCURVE",
"430 1388 CURVE SMOOTH",
"430 1460 OFFCURVE",
"473 1507 OFFCURVE",
"545 1507 CURVE SMOOTH",
"617 1507 OFFCURVE",
"660 1459 OFFCURVE",
"660 1391 CURVE SMOOTH"
);
},
{
closed = 1;
nodes = (
"659 1715 OFFCURVE",
"779 1829 OFFCURVE",
"850 1921 CURVE",
"850 1937 LINE",
"711 1937 LINE",
"648 1826 OFFCURVE",
"572 1734 OFFCURVE",
"508 1657 CURVE",
"508 1640 LINE",
"559 1640 LINE"
);
}
);
};
layerId = "9047BFCD-DDCC-4357-AC30-29E5270711EF";
paths = (
{
closed = 1;
nodes = (
"29 0 LINE",
"250 530 LINE",
"537 530 LINE",
"557 0 LINE",
"654 0 LINE",
"606 1212 LINE",
"688 1235 OFFCURVE",
"735 1304 OFFCURVE",
"735 1392 CURVE SMOOTH",
"735 1505 OFFCURVE",
"657 1577 OFFCURVE",
"542 1577 CURVE SMOOTH",
"426 1577 OFFCURVE",
"355 1504 OFFCURVE",
"355 1388 CURVE SMOOTH",
"355 1313 OFFCURVE",
"385 1256 OFFCURVE",
"445 1225 CURVE",
"-78 0 LINE"
);
},
{
closed = 1;
nodes = (
"324 718 OFFCURVE",
"362 807 OFFCURVE",
"399 896 CURVE",
"441 997 OFFCURVE",
"483 1097 OFFCURVE",
"524 1198 CURVE",
"526 1198 LINE",
"527 1098 OFFCURVE",
"529 998 OFFCURVE",
"531 898 CURVE",
"533 808 OFFCURVE",
"535 719 OFFCURVE",
"537 629 CURVE",
"287 629 LINE"
);
},
{
closed = 1;
nodes = (
"469 1276 OFFCURVE",
"430 1320 OFFCURVE",
"430 1388 CURVE SMOOTH",
"430 1460 OFFCURVE",
"473 1507 OFFCURVE",
"545 1507 CURVE SMOOTH",
"617 1507 OFFCURVE",
"660 1459 OFFCURVE",
"660 1391 CURVE SMOOTH",
"660 1320 OFFCURVE",
"615 1276 OFFCURVE",
"542 1276 CURVE SMOOTH"
);
},
{
closed = 1;
nodes = (
"559 1640 LINE",
"659 1715 OFFCURVE",
"779 1829 OFFCURVE",
"850 1921 CURVE",
"850 1937 LINE",
"711 1937 LINE",
"648 1826 OFFCURVE",
"572 1734 OFFCURVE",
"508 1657 CURVE",
"508 1640 LINE"
);
}
);
width = 734;
},
{
background = {
paths = (
{
closed = 1;
nodes = (
"1181 1617 OFFCURVE",
"1067 1721 OFFCURVE",
"909 1721 CURVE SMOOTH",
"751 1721 OFFCURVE",
"646 1625 OFFCURVE",
"646 1468 CURVE SMOOTH",
"646 1438.281 OFFCURVE",
"649.834 1410.713 OFFCURVE",
"657.108 1385.545 CURVE",
"-3 0 LINE",
"346 0 LINE",
"478 301 LINE",
"869 301 LINE",
"870 0 LINE",
"1211 0 LINE",
"1160.164 1362.974 LINE",
"1173.687 1394.456 OFFCURVE",
"1181 1430.078 OFFCURVE",
"1181 1469 CURVE SMOOTH"
);
},
{
closed = 1;
nodes = (
"863 1160 LINE",
"869 603 LINE",
"608 601 LINE"
);
},
{
closed = 1;
nodes = (
"1000 1408 OFFCURVE",
"959 1374 OFFCURVE",
"909 1374 CURVE SMOOTH",
"847 1374 OFFCURVE",
"817 1410 OFFCURVE",
"817 1468 CURVE SMOOTH",
"817 1527 OFFCURVE",
"858 1562 OFFCURVE",
"909 1562 CURVE SMOOTH",
"957 1562 OFFCURVE",
"1000 1527 OFFCURVE",
"1000 1468 CURVE SMOOTH"
);
},
{
closed = 1;
nodes = (
"1224 1832 OFFCURVE",
"1417 1919 OFFCURVE",
"1449 1942 CURVE",
"1448 1969 LINE",
"1045 1969 LINE",
"1010 1938 OFFCURVE",
"874 1832 OFFCURVE",
"819 1801 CURVE",
"819 1773 LINE",
"1074 1773 LINE"
);
}
);
};
layerId = "055178C8-6F6F-4B48-86C1-608D4439D248";
paths = (
{
closed = 1;
nodes = (
"346 0 LINE",
"478 301 LINE",
"869 301 LINE",
"870 0 LINE",
"1211 0 LINE",
"1160.164 1362.974 LINE",
"1173.687 1394.456 OFFCURVE",
"1181 1430.078 OFFCURVE",
"1181 1469 CURVE SMOOTH",
"1181 1617 OFFCURVE",
"1067 1721 OFFCURVE",
"909 1721 CURVE SMOOTH",
"751 1721 OFFCURVE",
"646 1625 OFFCURVE",
"646 1468 CURVE SMOOTH",
"646 1438.281 OFFCURVE",
"649.834 1410.713 OFFCURVE",
"657.108 1385.545 CURVE",
"-3 0 LINE"
);
},
{
closed = 1;
nodes = (
"651 695 OFFCURVE",
"693 788 OFFCURVE",
"736 882 CURVE SMOOTH",
"778 975 OFFCURVE",
"821 1068 OFFCURVE",
"862 1160 CURVE",
"864 1160 LINE",
"864 1064 OFFCURVE",
"865 968 OFFCURVE",
"866 872 CURVE SMOOTH",
"867 782 OFFCURVE",
"868 693 OFFCURVE",
"869 603 CURVE",
"608 601 LINE"
);
},
{
closed = 1;
nodes = (
"847 1374 OFFCURVE",
"817 1410 OFFCURVE",
"817 1468 CURVE SMOOTH",
"817 1527 OFFCURVE",
"858 1562 OFFCURVE",
"909 1562 CURVE SMOOTH",
"957 1562 OFFCURVE",
"1000 1527 OFFCURVE",
"1000 1468 CURVE SMOOTH",
"1000 1408 OFFCURVE",
"959 1374 OFFCURVE",
"909 1374 CURVE SMOOTH"
);
},
{
closed = 1;
nodes = (
"1074 1773 LINE",
"1224 1832 OFFCURVE",
"1417 1919 OFFCURVE",
"1449 1942 CURVE",
"1448 1969 LINE",
"1045 1969 LINE",
"1010 1938 OFFCURVE",
"874 1832 OFFCURVE",
"819 1801 CURVE",
"819 1773 LINE"
);
}
);
width = 1214;
},
{
background = {
paths = (
{
closed = 1;
nodes = (
"1147 1637 OFFCURVE",
"1036 1741 OFFCURVE",
"879 1741 CURVE SMOOTH",
"716 1741 OFFCURVE",
"610 1639 OFFCURVE",
"610 1487 CURVE SMOOTH",
"610 1452 OFFCURVE",
"614 1422 OFFCURVE",
"623 1397 CURVE",
"-121 0 LINE",
"285 0 LINE",
"410 274 LINE",
"850 274 LINE",
"868 0 LINE",
"1249 0 LINE",
"1087 1335 LINE",
"1123 1371 OFFCURVE",
"1147 1430 OFFCURVE",
"1147 1489 CURVE SMOOTH"
);
},
{
closed = 1;
nodes = (
"805 1053 OFFCURVE",
"807 983 OFFCURVE",
"811 891 CURVE",
"838 586 LINE",
"553 586 LINE",
"745 977 LINE",
"768 1030 LINE",
"795 1102 LINE",
"805 1102 LINE"
);
},
{
closed = 1;
nodes = (
"967 1440 OFFCURVE",
"928 1403 OFFCURVE",
"877 1403 CURVE SMOOTH",
"821 1403 OFFCURVE",
"791 1438 OFFCURVE",
"791 1487 CURVE SMOOTH",
"791 1538 OFFCURVE",
"831 1573 OFFCURVE",
"879 1573 CURVE SMOOTH",
"926 1573 OFFCURVE",
"967 1538 OFFCURVE",
"967 1487 CURVE SMOOTH"
);
},
{
closed = 1;
nodes = (
"1040 1792 LINE",
"1198 1843 OFFCURVE",
"1314 1897 OFFCURVE",
"1389 1954 CURVE",
"1389 1962 LINE",
"963 1962 LINE",
"910 1911 OFFCURVE",
"843 1858 OFFCURVE",
"762 1802 CURVE",
"762 1792 LINE"
);
}
);
};
layerId = "0B5E954E-D3E5-4A16-AD17-8B1BCB8BDBD4";
paths = (
{
closed = 1;
nodes = (
"285 0 LINE",
"410 274 LINE",
"850 274 LINE",
"868 0 LINE",
"1249 0 LINE",
"1087 1335 LINE",
"1123 1371 OFFCURVE",
"1147 1430 OFFCURVE",
"1147 1489 CURVE SMOOTH",
"1147 1637 OFFCURVE",
"1036 1741 OFFCURVE",
"879 1741 CURVE SMOOTH",
"716 1741 OFFCURVE",
"610 1639 OFFCURVE",
"610 1487 CURVE SMOOTH",
"610 1452 OFFCURVE",
"614 1422 OFFCURVE",
"623 1397 CURVE",
"-121 0 LINE"
);
},
{
closed = 1;
nodes = (
"617 716 OFFCURVE",
"681 847 OFFCURVE",
"745 977 CURVE",
"763 1017 OFFCURVE",
"777 1054 OFFCURVE",
"795 1102 CURVE",
"805 1102 LINE",
"805 1053 OFFCURVE",
"807 983 OFFCURVE",
"811 891 CURVE",
"820 789 OFFCURVE",
"829 688 OFFCURVE",
"838 586 CURVE",
"553 586 LINE"
);
},
{
closed = 1;
nodes = (
"821 1403 OFFCURVE",
"791 1438 OFFCURVE",
"791 1487 CURVE SMOOTH",
"791 1538 OFFCURVE",
"831 1573 OFFCURVE",
"879 1573 CURVE SMOOTH",
"926 1573 OFFCURVE",
"967 1538 OFFCURVE",
"967 1487 CURVE SMOOTH",
"967 1440 OFFCURVE",
"928 1403 OFFCURVE",
"877 1403 CURVE SMOOTH"
);
},
{
closed = 1;
nodes = (
"1040 1792 LINE",
"1198 1843 OFFCURVE",
"1314 1897 OFFCURVE",
"1389 1954 CURVE",
"1389 1962 LINE",
"963 1962 LINE",
"910 1911 OFFCURVE",
"843 1858 OFFCURVE",
"762 1802 CURVE",
"762 1792 LINE"
);
}
);
width = 1384;
}
);
leftKerningGroup = A;
note = Aringacute;
rightKerningGroup = A;
unicode = 01FA;
},
{
glyphname = AE;
layers = (
{
anchors = (
{
name = bottom;
position = "{704, 0}";
},
{
name = top;
position = "{1215, 1462}";
}
);
background = {
anchors = (
{
name = bottom;
position = "{704, 0}";
},
{
name = top;
position = "{1015, 1462}";
}
);
paths = (
{
closed = 1;
nodes = (
"797 94 LINE",
"932 721 LINE",
"1520 721 LINE",
"1540 815 LINE",
"950 815 LINE",
"1067 1368 LINE",
"1692 1368 LINE",
"1712 1462 LINE",
"829 1462 LINE",
"-117 0 LINE",
"14 0 LINE",
"342 522 LINE",
"786 522 LINE",
"676 0 LINE",
"1403 0 LINE",
"1423 94 LINE"
);
},
{
closed = 1;
nodes = (
"965 1368 LINE",
"809 627 LINE",
"408 627 LINE",
"877 1368 LINE"
);
}
);
};
layerId = "4C802D5D-2BAD-4759-8C93-835BB7B64EA1";
paths = (
{
closed = 1;
nodes = (
"14 0 LINE",
"342 522 LINE",
"786 522 LINE",
"676 0 LINE",
"1403 0 LINE",
"1423 94 LINE",
"797 94 LINE",
"932 721 LINE",
"1520 721 LINE",
"1540 815 LINE",
"950 815 LINE",
"1067 1368 LINE",
"1692 1368 LINE",
"1712 1462 LINE",
"829 1462 LINE",
"-117 0 LINE"
);
},
{
closed = 1;
nodes = (
"877 1368 LINE",
"965 1368 LINE",
"809 627 LINE",
"408 627 LINE"
);
}
);
width = 1640;
},
{
anchors = (
{
name = bottom;
position = "{403, 0}";
},
{
name = top;
position = "{883, 1462}";
}
);
background = {
anchors = (
{
name = bottom;
position = "{403, 0}";
},
{
name = top;
position = "{883, 1462}";
}
);
paths = (
{
closed = 1;
nodes = (
"512 94 LINE",
"645 719 LINE",
"1001 719 LINE",
"1022 813 LINE",
"666 813 LINE",
"782 1366 LINE",
"1159 1366 LINE",
"1180 1462 LINE",
"608 1462 LINE",
"-76 0 LINE",
"25 0 LINE",
"270 530 LINE",
"506 530 LINE",
"393 0 LINE",
"870 0 LINE",
"889 94 LINE"
);
},
{
closed = 1;
nodes = (
"682 1364 LINE",
"526 629 LINE",
"313 629 LINE",
"653 1364 LINE"
);
}
);
};
layerId = "9047BFCD-DDCC-4357-AC30-29E5270711EF";
paths = (
{
closed = 1;
nodes = (
"25 0 LINE",
"270 530 LINE",
"506 530 LINE",
"393 0 LINE",
"870 0 LINE",
"889 94 LINE",
"512 94 LINE",
"645 719 LINE",
"1001 719 LINE",
"1022 813 LINE",
"666 813 LINE",
"782 1366 LINE",
"1159 1366 LINE",
"1180 1462 LINE",
"608 1462 LINE",
"-76 0 LINE"
);
},
{
closed = 1;
nodes = (
"653 1364 LINE",
"682 1364 LINE",
"526 629 LINE",
"313 629 LINE"
);
}
);
width = 1036;
},
{
anchors = (
{
name = bottom;
position = "{771, 0}";
},
{
name = top;
position = "{1302, 1462}";
}
);
background = {
anchors = (
{
name = bottom;
position = "{771, 0}";
},
{
name = top;
position = "{1302, 1462}";
}
);
paths = (
{
closed = 1;
nodes = (
"1163 300 LINE",
"1228 610 LINE",
"1560 610 LINE",
"1623 907 LINE",
"1291 907 LINE",
"1346 1167 LINE",
"1708 1167 LINE",
"1771 1462 LINE",
"795 1462 LINE",
"-4 0 LINE",
"348 0 LINE",
"508 301 LINE",
"815 301 LINE",
"752 0 LINE",
"1461 0 LINE",
"1525 300 LINE"
);
},
{
closed = 1;
nodes = (
"999 1169 LINE",
"879 601 LINE",
"668 601 LINE",
"959 1169 LINE"
);
}
);
};
layerId = "055178C8-6F6F-4B48-86C1-608D4439D248";
paths = (
{
closed = 1;
nodes = (
"348 0 LINE",
"508 301 LINE",
"815 301 LINE",
"752 0 LINE",
"1461 0 LINE",
"1525 300 LINE",
"1163 300 LINE",
"1228 610 LINE",
"1560 610 LINE",
"1623 907 LINE",
"1291 907 LINE",
"1346 1167 LINE",
"1708 1167 LINE",
"1771 1462 LINE",
"795 1462 LINE",
"-4 0 LINE"
);
},
{
closed = 1;
nodes = (
"959 1169 LINE",
"999 1169 LINE",
"879 601 LINE",
"668 601 LINE"
);
}
);
width = 1542;
},
{
anchors = (
{
name = bottom;
position = "{849, 0}";
},
{
name = top;
position = "{1359, 1462}";
}
);
background = {
paths = (
{
closed = 1;
nodes = (
"1278 322 LINE",
"1335 598 LINE",
"1780 598 LINE",
"1851 915 LINE",
"1407 915 LINE",
"1454 1145 LINE",
"1931 1145 LINE",
"1997 1462 LINE",
"784 1462 LINE",
"-125 0 LINE",
"289 0 LINE",
"459 274 LINE",
"877 274 LINE",
"819 0 LINE",
"1688 0 LINE",
"1755 322 LINE"
);
},
{
closed = 1;
nodes = (
"993 1145 LINE",
"1061 1145 LINE",
"948 602 LINE",
"662 602 LINE"
);
}
);
};
layerId = "0B5E954E-D3E5-4A16-AD17-8B1BCB8BDBD4";
paths = (
{
closed = 1;
nodes = (
"289 0 LINE",
"459 274 LINE",
"877 274 LINE",
"819 0 LINE",
"1688 0 LINE",
"1755 322 LINE",
"1278 322 LINE",
"1335 598 LINE",
"1780 598 LINE",
"1851 915 LINE",
"1407 915 LINE",
"1454 1145 LINE",
"1931 1145 LINE",
"1997 1462 LINE",
"784 1462 LINE",
"-125 0 LINE"
);
},
{
closed = 1;
nodes = (
"993 1145 LINE",
"1061 1145 LINE",
"948 602 LINE",
"662 602 LINE"
);
}
);
width = 1937;
}
);
leftKerningGroup = A;
rightKerningGroup = E;
unicode = 00C6;
},
{
glyphname = B;
layers = (
{
anchors = (
{
name = bottom;
position = "{485, 0}";
},
{
name = top;
position = "{796, 1462}";
}
);
background = {
anchors = (
{
name = bottom;
position = "{485, 0}";
},
{
name = top;
position = "{796, 1462}";
}
);
paths = (
{
closed = 1;
nodes = (
"559 0 LINE SMOOTH",
"892 0 OFFCURVE",
"1090 169 OFFCURVE",
"1090 442 CURVE SMOOTH",
"1090 605 OFFCURVE",
"1005 719 OFFCURVE",
"838 760 CURVE",
"838 764 LINE",
"1057 801 OFFCURVE",
"1182 933 OFFCURVE",
"1182 1137 CURVE SMOOTH",
"1182 1346 OFFCURVE",
"1044 1462 OFFCURVE",
"791 1462 CURVE SMOOTH",
"412 1462 LINE",
"102 0 LINE"
);
},
{
closed = 1;
nodes = (
"768 1372 LINE SMOOTH",
"969 1372 OFFCURVE",
"1075 1289 OFFCURVE",
"1075 1130 CURVE SMOOTH",
"1075 921 OFFCURVE",
"930 811 OFFCURVE",
"655 811 CURVE SMOOTH",
"377 811 LINE",
"496 1372 LINE"
);
},
{
closed = 1;
nodes = (
"865 721 OFFCURVE",
"983 627 OFFCURVE",
"983 434 CURVE SMOOTH",
"983 209 OFFCURVE",
"833 90 OFFCURVE",
"565 90 CURVE SMOOTH",
"223 90 LINE",
"358 721 LINE",
"618 721 LINE SMOOTH"
);
}
);
};
layerId = "4C802D5D-2BAD-4759-8C93-835BB7B64EA1";
paths = (
{
closed = 1;
nodes = (
"559 0 LINE SMOOTH",
"892 0 OFFCURVE",
"1090 169 OFFCURVE",
"1090 442 CURVE SMOOTH",
"1090 605 OFFCURVE",
"1005 719 OFFCURVE",
"838 760 CURVE",
"838 764 LINE",
"1057 801 OFFCURVE",
"1182 933 OFFCURVE",
"1182 1137 CURVE SMOOTH",
"1182 1346 OFFCURVE",
"1044 1462 OFFCURVE",
"791 1462 CURVE SMOOTH",
"412 1462 LINE",
"102 0 LINE"
);
},
{
closed = 1;
nodes = (
"358 721 LINE",
"618 721 LINE SMOOTH",
"865 721 OFFCURVE",
"983 627 OFFCURVE",
"983 434 CURVE SMOOTH",
"983 209 OFFCURVE",
"833 90 OFFCURVE",
"565 90 CURVE SMOOTH",
"223 90 LINE"
);
},
{
closed = 1;
nodes = (
"496 1372 LINE",
"768 1372 LINE SMOOTH",
"969 1372 OFFCURVE",
"1075 1289 OFFCURVE",
"1075 1130 CURVE SMOOTH",
"1075 921 OFFCURVE",
"930 811 OFFCURVE",
"655 811 CURVE SMOOTH",
"377 811 LINE"
);
}
);
width = 1202;
},
{
anchors = (
{
name = bottom;
position = "{294, 0}";
},
{
name = top;
position = "{604, 1462}";
}
);
background = {
anchors = (
{
name = bottom;
position = "{294, 0}";
},
{
name = top;
position = "{604, 1462}";
}
);
paths = (
{
closed = 1;
nodes = (
"338 0 LINE SMOOTH",
"429 0 OFFCURVE",
"506 21 OFFCURVE",
"571 64 CURVE SMOOTH",
"700 148 OFFCURVE",
"770 309 OFFCURVE",
"770 510 CURVE SMOOTH",
"770 638 OFFCURVE",
"703 741 OFFCURVE",
"606 766 CURVE",
"608 772 LINE",
"781 805 OFFCURVE",
"887 965 OFFCURVE",
"887 1188 CURVE SMOOTH",
"887 1353 OFFCURVE",
"773 1462 OFFCURVE",
"600 1462 CURVE SMOOTH",
"375 1462 LINE",
"66 0 LINE"
);
},
{
closed = 1;
nodes = (
"578 1366 LINE SMOOTH",
"717 1366 OFFCURVE",
"784 1305 OFFCURVE",
"784 1176 CURVE SMOOTH",
"784 1107 OFFCURVE",
"772 1044 OFFCURVE",
"747 989 CURVE SMOOTH",
"697 877 OFFCURVE",
"603 813 OFFCURVE",
"483 813 CURVE SMOOTH",
"336 813 LINE",
"455 1366 LINE"
);
},
{
closed = 1;
nodes = (
"596 719 OFFCURVE",
"668 633 OFFCURVE",
"668 494 CURVE SMOOTH",
"668 247 OFFCURVE",
"547 94 OFFCURVE",
"342 94 CURVE SMOOTH",
"184 94 LINE",
"317 719 LINE",
"475 719 LINE SMOOTH"
);
}
);
};
layerId = "9047BFCD-DDCC-4357-AC30-29E5270711EF";
paths = (
{
closed = 1;
nodes = (
"338 0 LINE SMOOTH",
"621 0 OFFCURVE",
"770 217 OFFCURVE",
"770 510 CURVE SMOOTH",
"770 638 OFFCURVE",
"703 741 OFFCURVE",
"606 766 CURVE",
"608 772 LINE",
"781 805 OFFCURVE",
"887 965 OFFCURVE",
"887 1188 CURVE SMOOTH",
"887 1353 OFFCURVE",
"773 1462 OFFCURVE",
"600 1462 CURVE SMOOTH",
"375 1462 LINE",
"66 0 LINE"
);
},
{
closed = 1;
nodes = (
"317 719 LINE",
"475 719 LINE SMOOTH",
"596 719 OFFCURVE",
"668 633 OFFCURVE",
"668 494 CURVE SMOOTH",
"668 247 OFFCURVE",
"547 94 OFFCURVE",
"342 94 CURVE SMOOTH",
"184 94 LINE"
);
},
{
closed = 1;
nodes = (
"455 1366 LINE",
"578 1366 LINE SMOOTH",
"717 1366 OFFCURVE",
"784 1305 OFFCURVE",
"784 1176 CURVE SMOOTH",
"784 974 OFFCURVE",
"674 813 OFFCURVE",
"483 813 CURVE SMOOTH",
"336 813 LINE"
);
}
);
width = 817;
},
{
anchors = (
{
name = bottom;
position = "{427, 0}";
},
{
name = top;
position = "{738, 1462}";
}
);
background = {
anchors = (
{
name = bottom;
position = "{427, 0}";
},
{
name = top;
position = "{738, 1462}";
}
);
paths = (
{
closed = 1;
nodes = (
"613 0 LINE SMOOTH",
"720 0 OFFCURVE",
"815 28 OFFCURVE",
"894 76 CURVE SMOOTH",
"1038 164 OFFCURVE",
"1126 321 OFFCURVE",
"1126 505 CURVE SMOOTH",
"1126 638 OFFCURVE",
"1069 721 OFFCURVE",
"938 759 CURVE",
"940 767 LINE",
"1116 806 OFFCURVE",
"1237 975 OFFCURVE",
"1237 1168 CURVE SMOOTH",
"1237 1372 OFFCURVE",
"1118 1462 OFFCURVE",
"826 1462 CURVE SMOOTH",
"424 1462 LINE",
"115 0 LINE"
);
},
{
closed = 1;
nodes = (
"785 1165 LINE SMOOTH",
"861 1165 OFFCURVE",
"883 1126 OFFCURVE",
"883 1078 CURVE SMOOTH",
"883 1042 OFFCURVE",
"874 1002 OFFCURVE",
"852 969 CURVE SMOOTH",
"826 930 OFFCURVE",
"783 901 OFFCURVE",
"717 901 CURVE SMOOTH",
"631 901 LINE",
"687 1165 LINE"
);
},
{
closed = 1;
nodes = (
"763 615 OFFCURVE",
"785 566 OFFCURVE",
"785 513 CURVE SMOOTH",
"785 412 OFFCURVE",
"721 301 OFFCURVE",
"589 301 CURVE SMOOTH",
"504 301 LINE",
"570 615 LINE",
"688 615 LINE SMOOTH"
);
}
);
};
layerId = "055178C8-6F6F-4B48-86C1-608D4439D248";
paths = (
{
closed = 1;
nodes = (
"613 0 LINE SMOOTH",
"907 0 OFFCURVE",
"1126 213 OFFCURVE",
"1126 505 CURVE SMOOTH",
"1126 638 OFFCURVE",
"1069 721 OFFCURVE",
"938 759 CURVE",
"940 767 LINE",
"1116 806 OFFCURVE",
"1237 975 OFFCURVE",
"1237 1168 CURVE SMOOTH",
"1237 1372 OFFCURVE",
"1118 1462 OFFCURVE",
"826 1462 CURVE SMOOTH",
"424 1462 LINE",
"115 0 LINE"
);
},
{
closed = 1;
nodes = (
"570 615 LINE",
"688 615 LINE SMOOTH",
"763 615 OFFCURVE",
"785 566 OFFCURVE",
"785 513 CURVE SMOOTH",
"785 412 OFFCURVE",
"721 301 OFFCURVE",
"589 301 CURVE SMOOTH",
"504 301 LINE"
);
},
{
closed = 1;
nodes = (
"687 1165 LINE",
"785 1165 LINE SMOOTH",
"861 1165 OFFCURVE",
"883 1126 OFFCURVE",
"883 1078 CURVE SMOOTH",
"883 979 OFFCURVE",
"822 901 OFFCURVE",
"717 901 CURVE SMOOTH",
"631 901 LINE"
);
}
);
width = 1094;
},
{
anchors = (
{
name = bottom;
position = "{529, 0}";
},
{
name = top;
position = "{839, 1462}";
}
);
background = {
paths = (
{
closed = 1;
nodes = (
"580 0 LINE SMOOTH",
"953 0 OFFCURVE",
"1165 174 OFFCURVE",
"1165 479 CURVE SMOOTH",
"1165 619 OFFCURVE",
"1090 719 OFFCURVE",
"973 758 CURVE",
"973 766 LINE",
"1171 825 OFFCURVE",
"1270 951 OFFCURVE",
"1270 1143 CURVE SMOOTH",
"1270 1348 OFFCURVE",
"1118 1462 OFFCURVE",
"829 1462 CURVE SMOOTH",
"342 1462 LINE",
"33 0 LINE"
);
},
{
closed = 1;
nodes = (
"737 1163 LINE SMOOTH",
"822 1163 OFFCURVE",
"864 1129 OFFCURVE",
"864 1061 CURVE SMOOTH",
"864 949 OFFCURVE",
"803 901 OFFCURVE",
"686 901 CURVE SMOOTH",
"614 901 LINE",
"674 1163 LINE"
);
},
{
closed = 1;
nodes = (
"734 612 OFFCURVE",
"772 567 OFFCURVE",
"772 475 CURVE SMOOTH",
"772 378 OFFCURVE",
"686 305 OFFCURVE",
"571 305 CURVE SMOOTH",
"489 305 LINE",
"555 612 LINE",
"623 612 LINE SMOOTH"
);
}
);
};
layerId = "0B5E954E-D3E5-4A16-AD17-8B1BCB8BDBD4";
paths = (
{
closed = 1;
nodes = (
"580 0 LINE SMOOTH",
"953 0 OFFCURVE",
"1165 174 OFFCURVE",
"1165 479 CURVE SMOOTH",
"1165 619 OFFCURVE",
"1090 719 OFFCURVE",
"973 758 CURVE",
"973 766 LINE",
"1171 825 OFFCURVE",
"1270 951 OFFCURVE",
"1270 1143 CURVE SMOOTH",
"1270 1348 OFFCURVE",
"1118 1462 OFFCURVE",
"829 1462 CURVE SMOOTH",
"342 1462 LINE",
"33 0 LINE"
);
},
{
closed = 1;
nodes = (
"555 612 LINE",
"623 612 LINE SMOOTH",
"734 612 OFFCURVE",
"772 567 OFFCURVE",
"772 475 CURVE SMOOTH",
"772 378 OFFCURVE",
"686 305 OFFCURVE",
"571 305 CURVE SMOOTH",
"489 305 LINE"
);
},
{
closed = 1;
nodes = (
"674 1163 LINE",
"737 1163 LINE SMOOTH",
"822 1163 OFFCURVE",
"864 1129 OFFCURVE",
"864 1061 CURVE SMOOTH",
"864 949 OFFCURVE",
"803 901 OFFCURVE",
"686 901 CURVE SMOOTH",
"614 901 LINE"
);
}
);
width = 1298;
}
);
leftKerningGroup = H;
rightKerningGroup = B;
unicode = 0042;
},
{
glyphname = C;
layers = (
{
anchors = (
{
name = bottom;
position = "{591, 0}";
},
{
name = top;
position = "{940, 1462}";
}
);
background = {
anchors = (
{
name = bottom;
position = "{469, 0}";
},
{
name = top;
position = "{780, 1462}";
}
);
paths = (
{
closed = 1;
nodes = (
"1052 1389 OFFCURVE",
"1150 1365 OFFCURVE",
"1223 1325 CURVE",
"1268 1415 LINE",
"1181 1460 OFFCURVE",
"1079 1483 OFFCURVE",
"961 1483 CURVE SMOOTH",
"813 1483 OFFCURVE",
"679 1443 OFFCURVE",
"559 1364 CURVE SMOOTH",
"319 1205 OFFCURVE",
"170 890 OFFCURVE",
"170 535 CURVE SMOOTH",
"170 182 OFFCURVE",
"354 -20 OFFCURVE",
"690 -20 CURVE SMOOTH",
"797 -20 OFFCURVE",
"902 -4 OFFCURVE",
"1006 29 CURVE",
"1006 123 LINE",
"897 89 OFFCURVE",
"795 72 OFFCURVE",
"702 72 CURVE SMOOTH",
"426 72 OFFCURVE",
"274 239 OFFCURVE",
"274 539 CURVE SMOOTH",
"274 700 OFFCURVE",
"304 847 OFFCURVE",
"365 980 CURVE SMOOTH",
"485 1247 OFFCURVE",
"698 1389 OFFCURVE",
"961 1389 CURVE SMOOTH"
);
}
);
};
layerId = "4C802D5D-2BAD-4759-8C93-835BB7B64EA1";
paths = (
{
closed = 1;
nodes = (
"797 -20 OFFCURVE",
"902 -4 OFFCURVE",
"1006 29 CURVE",
"1006 123 LINE",
"897 89 OFFCURVE",
"795 72 OFFCURVE",
"702 72 CURVE SMOOTH",
"426 72 OFFCURVE",
"274 239 OFFCURVE",
"274 539 CURVE SMOOTH",
"274 700 OFFCURVE",
"304 847 OFFCURVE",
"365 980 CURVE SMOOTH",
"485 1247 OFFCURVE",
"698 1389 OFFCURVE",
"961 1389 CURVE SMOOTH",
"1052 1389 OFFCURVE",
"1150 1365 OFFCURVE",
"1223 1325 CURVE",
"1268 1415 LINE",
"1181 1460 OFFCURVE",
"1079 1483 OFFCURVE",
"961 1483 CURVE SMOOTH",
"813 1483 OFFCURVE",
"679 1443 OFFCURVE",
"559 1364 CURVE SMOOTH",
"390 1252 OFFCURVE",
"267 1063 OFFCURVE",
"208 838 CURVE SMOOTH",
"183 742 OFFCURVE",
"170 640 OFFCURVE",
"170 535 CURVE SMOOTH",
"170 182 OFFCURVE",
"354 -20 OFFCURVE",
"690 -20 CURVE SMOOTH"
);
}
);
width = 1169;
},
{
anchors = (
{
name = bottom;
position = "{375, 0}";
},
{
name = top;
position = "{751, 1462}";
}
);
background = {
anchors = (
{
name = bottom;
position = "{375, 0}";
},
{
name = top;
position = "{751, 1462}";
}
);
paths = (
{
closed = 1;
nodes = (
"795 1389 OFFCURVE",
"845 1372 OFFCURVE",
"885 1337 CURVE",
"946 1423 LINE",
"895 1466 OFFCURVE",
"825 1485 OFFCURVE",
"753 1485 CURVE SMOOTH",
"642 1485 OFFCURVE",
"540 1439 OFFCURVE",
"447 1344 CURVE SMOOTH",
"304 1199 OFFCURVE",
"199 958 OFFCURVE",
"156 701 CURVE SMOOTH",
"142 617 OFFCURVE",
"135 532 OFFCURVE",
"135 447 CURVE SMOOTH",
"135 131 OFFCURVE",
"238 -20 OFFCURVE",
"445 -20 CURVE SMOOTH",
"503 -20 OFFCURVE",
"566 -8 OFFCURVE",
"629 16 CURVE",
"629 111 LINE",
"565 85 OFFCURVE",
"508 72 OFFCURVE",
"457 72 CURVE SMOOTH",
"299 72 OFFCURVE",
"233 196 OFFCURVE",
"233 455 CURVE SMOOTH",
"233 601 OFFCURVE",
"254 747 OFFCURVE",
"306 905 CURVE SMOOTH",
"408 1216 OFFCURVE",
"566 1389 OFFCURVE",
"740 1389 CURVE SMOOTH"
);
}
);
};
layerId = "9047BFCD-DDCC-4357-AC30-29E5270711EF";
paths = (
{
closed = 1;
nodes = (
"503 -20 OFFCURVE",
"566 -8 OFFCURVE",
"629 16 CURVE",
"629 111 LINE",
"565 85 OFFCURVE",
"508 72 OFFCURVE",
"457 72 CURVE SMOOTH",
"299 72 OFFCURVE",
"233 196 OFFCURVE",
"233 455 CURVE SMOOTH",
"233 601 OFFCURVE",
"254 747 OFFCURVE",
"306 905 CURVE SMOOTH",
"408 1216 OFFCURVE",
"566 1389 OFFCURVE",
"740 1389 CURVE SMOOTH",
"795 1389 OFFCURVE",
"845 1372 OFFCURVE",
"885 1337 CURVE",
"946 1423 LINE",
"895 1466 OFFCURVE",
"825 1485 OFFCURVE",
"753 1485 CURVE SMOOTH",
"642 1485 OFFCURVE",
"540 1439 OFFCURVE",
"447 1344 CURVE SMOOTH",
"304 1199 OFFCURVE",
"199 958 OFFCURVE",
"156 701 CURVE SMOOTH",
"142 617 OFFCURVE",
"135 532 OFFCURVE",
"135 447 CURVE SMOOTH",
"135 131 OFFCURVE",
"238 -20 OFFCURVE",
"445 -20 CURVE SMOOTH"
);
}
);
width = 727;
},
{
anchors = (
{
name = bottom;
position = "{573, 0}";
},
{
name = top;
position = "{904, 1462}";
}
);
background = {
anchors = (
{
name = bottom;
position = "{573, 0}";
},
{
name = top;
position = "{904, 1462}";
}
);
paths = (
{
closed = 1;
nodes = (
"987 1183 OFFCURVE",
"1055 1126 OFFCURVE",
"1087 1097 CURVE",
"1235 1360 LINE",
"1117 1446 OFFCURVE",
"1023 1482 OFFCURVE",
"901 1482 CURVE SMOOTH",
"774 1482 OFFCURVE",
"660 1443 OFFCURVE",
"562 1368 CURVE SMOOTH",
"406 1249 OFFCURVE",
"292 1040 OFFCURVE",
"232 754 CURVE SMOOTH",
"210 648 OFFCURVE",
"201 559 OFFCURVE",
"201 480 CURVE SMOOTH",
"201 174 OFFCURVE",
"334 -20 OFFCURVE",
"624 -20 CURVE SMOOTH",
"730 -20 OFFCURVE",
"881 6 OFFCURVE",
"975 63 CURVE",
"975 377 LINE",
"879 326 OFFCURVE",
"793 281 OFFCURVE",
"680 281 CURVE SMOOTH",
"565 281 OFFCURVE",
"539 328 OFFCURVE",
"539 437 CURVE SMOOTH",
"539 511 OFFCURVE",
"551 593 OFFCURVE",
"571 682 CURVE SMOOTH",
"646 1019 OFFCURVE",
"767 1183 OFFCURVE",
"905 1183 CURVE SMOOTH"
);
}
);
};
layerId = "055178C8-6F6F-4B48-86C1-608D4439D248";
paths = (
{
closed = 1;
nodes = (
"730 -20 OFFCURVE",
"881 6 OFFCURVE",
"975 63 CURVE",
"975 377 LINE",
"879 326 OFFCURVE",
"793 281 OFFCURVE",
"680 281 CURVE SMOOTH",
"565 281 OFFCURVE",
"539 328 OFFCURVE",
"539 437 CURVE SMOOTH",
"539 511 OFFCURVE",
"551 593 OFFCURVE",
"571 682 CURVE SMOOTH",
"646 1019 OFFCURVE",
"767 1183 OFFCURVE",
"905 1183 CURVE SMOOTH",
"987 1183 OFFCURVE",
"1055 1126 OFFCURVE",
"1087 1097 CURVE",
"1235 1360 LINE",
"1117 1446 OFFCURVE",
"1023 1482 OFFCURVE",
"901 1482 CURVE SMOOTH",
"774 1482 OFFCURVE",
"660 1443 OFFCURVE",
"562 1368 CURVE SMOOTH",
"406 1249 OFFCURVE",
"292 1040 OFFCURVE",
"232 754 CURVE SMOOTH",
"210 648 OFFCURVE",
"201 559 OFFCURVE",
"201 480 CURVE SMOOTH",
"201 174 OFFCURVE",
"334 -20 OFFCURVE",
"624 -20 CURVE SMOOTH"
);
}
);
width = 986;
},
{
anchors = (
{
name = bottom;
position = "{675, 0}";
},
{
name = top;
position = "{835, 1462}";
}
);
background = {
paths = (
{
closed = 1;
nodes = (
"993 1159 OFFCURVE",
"1090 1122 OFFCURVE",
"1214 1049 CURVE",
"1362 1354 LINE",
"1218 1441 OFFCURVE",
"1058 1485 OFFCURVE",
"881 1485 CURVE SMOOTH",
"731 1485 OFFCURVE",
"598 1447 OFFCURVE",
"482 1372 CURVE SMOOTH",
"249 1221 OFFCURVE",
"104 904 OFFCURVE",
"104 549 CURVE SMOOTH",
"104 186 OFFCURVE",
"298 -20 OFFCURVE",
"645 -20 CURVE SMOOTH",
"803 -20 OFFCURVE",
"950 10 OFFCURVE",
"1085 70 CURVE",
"1085 393 LINE",
"932 328 OFFCURVE",
"828 303 OFFCURVE",
"717 303 CURVE SMOOTH",
"577 303 OFFCURVE",
"500 390 OFFCURVE",
"500 569 CURVE SMOOTH",
"500 676 OFFCURVE",
"517 775 OFFCURVE",
"550 866 CURVE SMOOTH",
"616 1049 OFFCURVE",
"737 1159 OFFCURVE",
"881 1159 CURVE SMOOTH"
);
}
);
};
layerId = "0B5E954E-D3E5-4A16-AD17-8B1BCB8BDBD4";
paths = (
{
closed = 1;
nodes = (
"803 -20 OFFCURVE",
"950 10 OFFCURVE",
"1085 70 CURVE",
"1085 393 LINE",
"932 328 OFFCURVE",
"828 303 OFFCURVE",
"717 303 CURVE SMOOTH",
"577 303 OFFCURVE",
"500 390 OFFCURVE",
"500 569 CURVE SMOOTH",
"500 676 OFFCURVE",
"517 775 OFFCURVE",
"550 866 CURVE SMOOTH",
"616 1049 OFFCURVE",
"737 1159 OFFCURVE",
"881 1159 CURVE SMOOTH",
"993 1159 OFFCURVE",
"1090 1122 OFFCURVE",
"1214 1049 CURVE",
"1362 1354 LINE",
"1218 1441 OFFCURVE",
"1058 1485 OFFCURVE",
"881 1485 CURVE SMOOTH",
"731 1485 OFFCURVE",
"598 1447 OFFCURVE",
"482 1372 CURVE SMOOTH",
"309 1260 OFFCURVE",
"184 1056 OFFCURVE",
"132 813 CURVE SMOOTH",
"114 729 OFFCURVE",
"104 640 OFFCURVE",
"104 549 CURVE SMOOTH",
"104 186 OFFCURVE",
"298 -20 OFFCURVE",
"645 -20 CURVE SMOOTH"
);
}
);
width = 1290;
}
);
leftKerningGroup = O;
rightKerningGroup = C;
unicode = 0043;
},
{
glyphname = D;
layers = (
{
anchors = (
{
name = bottom;
position = "{559, 0}";
},
{
name = center;
position = "{715, 731}";
},
{
name = top;
position = "{870, 1462}";
}
);
background = {
anchors = (
{
name = bottom;
position = "{559, 0}";
},
{
name = center;
position = "{715, 731}";
},
{
name = top;
position = "{870, 1462}";
}
);
paths = (
{
closed = 1;
nodes = (
"1288 1263 OFFCURVE",
"1093 1462 OFFCURVE",
"717 1462 CURVE SMOOTH",
"412 1462 LINE",
"102 0 LINE",
"432 0 LINE SMOOTH",
"602 0 OFFCURVE",
"751 35 OFFCURVE",
"878 105 CURVE SMOOTH",
"1133 244 OFFCURVE",
"1288 542 OFFCURVE",
"1288 879 CURVE SMOOTH"
);
},
{
closed = 1;
nodes = (
"496 1370 LINE",
"702 1370 LINE SMOOTH",
"1019 1370 OFFCURVE",
"1178 1204 OFFCURVE",
"1178 872 CURVE SMOOTH",
"1178 718 OFFCURVE",
"1147 581 OFFCURVE",
"1086 460 CURVE SMOOTH",
"962 219 OFFCURVE",
"731 90 OFFCURVE",
"430 90 CURVE SMOOTH",
"221 90 LINE"
);
}
);
};
layerId = "4C802D5D-2BAD-4759-8C93-835BB7B64EA1";
paths = (
{
closed = 1;
nodes = (
"432 0 LINE SMOOTH",
"602 0 OFFCURVE",
"751 35 OFFCURVE",
"878 105 CURVE SMOOTH",
"1133 244 OFFCURVE",
"1288 542 OFFCURVE",
"1288 879 CURVE SMOOTH",
"1288 1263 OFFCURVE",
"1093 1462 OFFCURVE",
"717 1462 CURVE SMOOTH",
"412 1462 LINE",
"102 0 LINE"
);
},
{
closed = 1;
nodes = (
"496 1370 LINE",
"702 1370 LINE SMOOTH",
"1019 1370 OFFCURVE",
"1178 1204 OFFCURVE",
"1178 872 CURVE SMOOTH",
"1178 718 OFFCURVE",
"1147 581 OFFCURVE",
"1086 460 CURVE SMOOTH",
"962 219 OFFCURVE",
"731 90 OFFCURVE",
"430 90 CURVE SMOOTH",
"221 90 LINE"
);
}
);
width = 1350;
},
{
anchors = (
{
name = bottom;
position = "{333, 0}";
},
{
name = center;
position = "{488, 731}";
},
{
name = top;
position = "{643, 1462}";
}
);
background = {
anchors = (
{
name = bottom;
position = "{333, 0}";
},
{
name = center;
position = "{488, 731}";
},
{
name = top;
position = "{643, 1462}";
}
);
paths = (
{
closed = 1;
nodes = (
"913 1320 OFFCURVE",
"813 1462 OFFCURVE",
"592 1462 CURVE SMOOTH",
"375 1462 LINE",
"66 0 LINE",
"256 0 LINE SMOOTH",
"384 0 OFFCURVE",
"504 43 OFFCURVE",
"601 129 CURVE SMOOTH",
"796 302 OFFCURVE",
"913 664 OFFCURVE",
"913 1005 CURVE SMOOTH"
);
},
{
closed = 1;
nodes = (
"455 1366 LINE",
"578 1366 LINE SMOOTH",
"744 1366 OFFCURVE",
"809 1254 OFFCURVE",
"809 1023 CURVE SMOOTH",
"809 883 OFFCURVE",
"785 708 OFFCURVE",
"738 555 CURVE SMOOTH",
"647 259 OFFCURVE",
"480 94 OFFCURVE",
"276 94 CURVE SMOOTH",
"184 94 LINE"
);
}
);
};
layerId = "9047BFCD-DDCC-4357-AC30-29E5270711EF";
paths = (
{
closed = 1;
nodes = (
"256 0 LINE SMOOTH",
"384 0 OFFCURVE",
"504 43 OFFCURVE",
"601 129 CURVE SMOOTH",
"796 302 OFFCURVE",
"913 664 OFFCURVE",
"913 1005 CURVE SMOOTH",
"913 1320 OFFCURVE",
"813 1462 OFFCURVE",
"592 1462 CURVE SMOOTH",
"375 1462 LINE",
"66 0 LINE"
);
},
{
closed = 1;
nodes = (
"455 1366 LINE",
"578 1366 LINE SMOOTH",
"744 1366 OFFCURVE",
"809 1254 OFFCURVE",
"809 1023 CURVE SMOOTH",
"809 883 OFFCURVE",
"785 708 OFFCURVE",
"738 555 CURVE SMOOTH",
"647 259 OFFCURVE",
"480 94 OFFCURVE",
"276 94 CURVE SMOOTH",
"184 94 LINE"
);
}
);
width = 895;
},
{
anchors = (
{
name = bottom;
position = "{603, 0}";
},
{
name = center;
position = "{618, 731}";
},
{
name = top;
position = "{834, 1462}";
}
);
background = {
anchors = (
{
name = bottom;
position = "{603, 0}";
},
{
name = center;
position = "{618, 731}";
},
{
name = top;
position = "{834, 1462}";
}
);
paths = (
{
closed = 1;
nodes = (
"1313 1253 OFFCURVE",
"1153 1462 OFFCURVE",
"858 1462 CURVE SMOOTH",
"424 1462 LINE",
"115 0 LINE",
"528 0 LINE SMOOTH",
"697 0 OFFCURVE",
"844 50 OFFCURVE",
"963 137 CURVE SMOOTH",
"1185 298 OFFCURVE",
"1313 584 OFFCURVE",
"1313 899 CURVE SMOOTH"
);
},
{
closed = 1;
nodes = (
"709 1165 LINE",
"808 1165 LINE SMOOTH",
"926 1165 OFFCURVE",
"966 1070 OFFCURVE",
"966 925 CURVE SMOOTH",
"966 812 OFFCURVE",
"942 684 OFFCURVE",
"894 575 CURVE SMOOTH",
"827 421 OFFCURVE",
"719 301 OFFCURVE",
"572 301 CURVE SMOOTH",
"526 301 LINE"
);
}
);
};
layerId = "055178C8-6F6F-4B48-86C1-608D4439D248";
paths = (
{
closed = 1;
nodes = (
"528 0 LINE SMOOTH",
"697 0 OFFCURVE",
"844 50 OFFCURVE",
"963 137 CURVE SMOOTH",
"1185 298 OFFCURVE",
"1313 584 OFFCURVE",
"1313 899 CURVE SMOOTH",
"1313 1253 OFFCURVE",
"1153 1462 OFFCURVE",
"858 1462 CURVE SMOOTH",
"424 1462 LINE",
"115 0 LINE"
);
},
{
closed = 1;
nodes = (
"709 1165 LINE",
"808 1165 LINE SMOOTH",
"926 1165 OFFCURVE",
"966 1070 OFFCURVE",
"966 925 CURVE SMOOTH",
"966 812 OFFCURVE",
"942 684 OFFCURVE",
"894 575 CURVE SMOOTH",
"827 421 OFFCURVE",
"719 301 OFFCURVE",
"572 301 CURVE SMOOTH",
"526 301 LINE"
);
}
);
width = 1206;
},
{
anchors = (
{
name = bottom;
position = "{581, 0}";
},
{
name = center;
position = "{736, 731}";
},
{
name = top;
position = "{891, 1462}";
}
);
background = {
paths = (
{
closed = 1;
nodes = (
"1337 1261 OFFCURVE",
"1126 1462 OFFCURVE",
"758 1462 CURVE SMOOTH",
"342 1462 LINE",
"33 0 LINE",
"504 0 LINE SMOOTH",
"676 0 OFFCURVE",
"825 36 OFFCURVE",
"951 109 CURVE SMOOTH",
"1202 254 OFFCURVE",
"1337 536 OFFCURVE",
"1337 909 CURVE SMOOTH"
);
},
{
closed = 1;
nodes = (
"666 1143 LINE",
"737 1143 LINE SMOOTH",
"866 1143 OFFCURVE",
"942 1056 OFFCURVE",
"942 889 CURVE SMOOTH",
"942 778 OFFCURVE",
"926 680 OFFCURVE",
"894 594 CURVE SMOOTH",
"830 421 OFFCURVE",
"710 324 OFFCURVE",
"563 324 CURVE SMOOTH",
"494 324 LINE"
);
}
);
};
layerId = "0B5E954E-D3E5-4A16-AD17-8B1BCB8BDBD4";
paths = (
{
closed = 1;
nodes = (
"504 0 LINE SMOOTH",
"676 0 OFFCURVE",
"825 36 OFFCURVE",
"951 109 CURVE SMOOTH",
"1202 254 OFFCURVE",
"1337 536 OFFCURVE",
"1337 909 CURVE SMOOTH",
"1337 1261 OFFCURVE",
"1126 1462 OFFCURVE",
"758 1462 CURVE SMOOTH",
"342 1462 LINE",
"33 0 LINE"
);
},
{
closed = 1;
nodes = (
"666 1143 LINE",
"737 1143 LINE SMOOTH",
"866 1143 OFFCURVE",
"942 1056 OFFCURVE",
"942 889 CURVE SMOOTH",
"942 778 OFFCURVE",
"926 680 OFFCURVE",
"894 594 CURVE SMOOTH",
"830 421 OFFCURVE",
"710 324 OFFCURVE",
"563 324 CURVE SMOOTH",
"494 324 LINE"
);
}
);
width = 1401;
}
);
leftKerningGroup = H;
rightKerningGroup = O;
unicode = 0044;
},
{
glyphname = Eth;
layers = (
{
background = {
paths = (
{
closed = 1;
nodes = (
"1288 1263 OFFCURVE",
"1093 1462 OFFCURVE",
"717 1462 CURVE SMOOTH",
"412 1462 LINE",
"266 772 LINE",
"111 772 LINE",
"90 676 LINE",
"246 676 LINE",
"102 0 LINE",
"432 0 LINE SMOOTH",
"602 0 OFFCURVE",
"751 35 OFFCURVE",
"878 105 CURVE SMOOTH",
"1133 244 OFFCURVE",
"1288 542 OFFCURVE",
"1288 879 CURVE SMOOTH"
);
},
{
closed = 1;
nodes = (
"346 676 LINE",
"725 676 LINE",
"745 772 LINE",
"367 772 LINE",
"496 1370 LINE",
"702 1370 LINE SMOOTH",
"1019 1370 OFFCURVE",
"1178 1204 OFFCURVE",
"1178 872 CURVE SMOOTH",
"1178 718 OFFCURVE",
"1147 581 OFFCURVE",
"1086 460 CURVE SMOOTH",
"962 219 OFFCURVE",
"731 90 OFFCURVE",
"430 90 CURVE SMOOTH",
"221 90 LINE"
);
}
);
};
layerId = "4C802D5D-2BAD-4759-8C93-835BB7B64EA1";
paths = (
{
closed = 1;
nodes = (
"432 0 LINE SMOOTH",
"602 0 OFFCURVE",
"751 35 OFFCURVE",
"878 105 CURVE SMOOTH",
"1133 244 OFFCURVE",
"1288 542 OFFCURVE",
"1288 879 CURVE SMOOTH",
"1288 1263 OFFCURVE",
"1093 1462 OFFCURVE",
"717 1462 CURVE SMOOTH",
"412 1462 LINE",
"266 772 LINE",
"111 772 LINE",
"90 676 LINE",
"246 676 LINE",
"102 0 LINE"
);
},
{
closed = 1;
nodes = (
"346 676 LINE",
"725 676 LINE",
"745 772 LINE",
"367 772 LINE",
"496 1370 LINE",
"702 1370 LINE SMOOTH",
"1019 1370 OFFCURVE",
"1178 1204 OFFCURVE",
"1178 872 CURVE SMOOTH",
"1178 718 OFFCURVE",
"1147 581 OFFCURVE",
"1086 460 CURVE SMOOTH",
"962 219 OFFCURVE",
"731 90 OFFCURVE",
"430 90 CURVE SMOOTH",
"221 90 LINE"
);
}
);
width = 1352;
},
{
background = {
paths = (
{
closed = 1;
nodes = (
"913 1320 OFFCURVE",
"813 1462 OFFCURVE",
"592 1462 CURVE SMOOTH",
"375 1462 LINE",
"233 807 LINE",
"145 807 LINE",
"127 715 LINE",
"215 715 LINE",
"66 0 LINE",
"256 0 LINE SMOOTH",
"384 0 OFFCURVE",
"504 43 OFFCURVE",
"601 129 CURVE SMOOTH",
"796 302 OFFCURVE",
"913 664 OFFCURVE",
"913 1005 CURVE SMOOTH"
);
},
{
closed = 1;
nodes = (
"313 715 LINE",
"506 715 LINE",
"524 807 LINE",
"334 807 LINE",
"455 1366 LINE",
"578 1366 LINE SMOOTH",
"744 1366 OFFCURVE",
"809 1254 OFFCURVE",
"809 1023 CURVE SMOOTH",
"809 883 OFFCURVE",
"785 708 OFFCURVE",
"738 555 CURVE SMOOTH",
"647 259 OFFCURVE",
"480 94 OFFCURVE",
"276 94 CURVE SMOOTH",
"184 94 LINE"
);
}
);
};
layerId = "9047BFCD-DDCC-4357-AC30-29E5270711EF";
paths = (
{
closed = 1;
nodes = (
"256 0 LINE SMOOTH",
"384 0 OFFCURVE",
"504 43 OFFCURVE",
"601 129 CURVE SMOOTH",
"796 302 OFFCURVE",
"913 664 OFFCURVE",
"913 1005 CURVE SMOOTH",
"913 1320 OFFCURVE",
"813 1462 OFFCURVE",
"592 1462 CURVE SMOOTH",
"375 1462 LINE",
"233 807 LINE",
"145 807 LINE",
"127 715 LINE",
"215 715 LINE",
"66 0 LINE"
);
},
{
closed = 1;
nodes = (
"313 715 LINE",
"506 715 LINE",
"524 807 LINE",
"334 807 LINE",
"455 1366 LINE",
"578 1366 LINE SMOOTH",
"744 1366 OFFCURVE",
"809 1254 OFFCURVE",
"809 1023 CURVE SMOOTH",
"809 883 OFFCURVE",
"785 708 OFFCURVE",
"738 555 CURVE SMOOTH",
"647 259 OFFCURVE",
"480 94 OFFCURVE",
"276 94 CURVE SMOOTH",
"184 94 LINE"
);
}
);
width = 895;
},
{
background = {
paths = (
{
closed = 1;
nodes = (
"1313 1253 OFFCURVE",
"1153 1462 OFFCURVE",
"858 1462 CURVE SMOOTH",
"424 1462 LINE",
"297.61 864 LINE",
"156 864 LINE",
"92 563 LINE",
"233.992 563 LINE",
"115 0 LINE",
"528 0 LINE SMOOTH",
"697 0 OFFCURVE",
"844 50 OFFCURVE",
"963 137 CURVE SMOOTH",
"1185 298 OFFCURVE",
"1313 584 OFFCURVE",
"1313 899 CURVE SMOOTH"
);
},
{
closed = 1;
nodes = (
"581.493 563 LINE",
"746 563 LINE",
"810 864 LINE",
"645.247 864 LINE",
"709 1165 LINE",
"808 1165 LINE SMOOTH",
"926 1165 OFFCURVE",
"966 1070 OFFCURVE",
"966 925 CURVE SMOOTH",
"966 812 OFFCURVE",
"942 684 OFFCURVE",
"894 575 CURVE SMOOTH",
"827 421 OFFCURVE",
"719 301 OFFCURVE",
"572 301 CURVE SMOOTH",
"526 301 LINE"
);
}
);
};
layerId = "055178C8-6F6F-4B48-86C1-608D4439D248";
paths = (
{
closed = 1;
nodes = (
"528 0 LINE SMOOTH",
"697 0 OFFCURVE",
"844 50 OFFCURVE",
"963 137 CURVE SMOOTH",
"1185 298 OFFCURVE",
"1313 584 OFFCURVE",
"1313 899 CURVE SMOOTH",
"1313 1253 OFFCURVE",
"1153 1462 OFFCURVE",
"858 1462 CURVE SMOOTH",
"424 1462 LINE",
"297.61 864 LINE",
"156 864 LINE",
"92 563 LINE",
"233.992 563 LINE",
"115 0 LINE"
);
},
{
closed = 1;
nodes = (
"581.493 563 LINE",
"746 563 LINE",
"810 864 LINE",
"645.247 864 LINE",
"709 1165 LINE",
"808 1165 LINE SMOOTH",
"926 1165 OFFCURVE",
"966 1070 OFFCURVE",
"966 925 CURVE SMOOTH",
"966 812 OFFCURVE",
"942 684 OFFCURVE",
"894 575 CURVE SMOOTH",
"827 421 OFFCURVE",
"719 301 OFFCURVE",
"572 301 CURVE SMOOTH",
"526 301 LINE"
);
}
);
width = 1206;
},
{
background = {
paths = (
{
closed = 1;
nodes = (
"152 563 LINE",
"33 0 LINE",
"526 0 LINE SMOOTH",
"1039 0 OFFCURVE",
"1337 330 OFFCURVE",
"1337 909 CURVE SMOOTH",
"1337 1264 OFFCURVE",
"1133 1462 OFFCURVE",
"772 1462 CURVE SMOOTH",
"342 1462 LINE",
"219 883 LINE",
"80 883 LINE",
"10 563 LINE"
);
},
{
closed = 1;
nodes = (
"543 563 LINE",
"719 563 LINE",
"788 883 LINE",
"610 883 LINE",
"666 1143 LINE",
"737 1143 LINE SMOOTH",
"866 1143 OFFCURVE",
"942 1056 OFFCURVE",
"942 901 CURVE SMOOTH",
"942 788 OFFCURVE",
"926 688 OFFCURVE",
"895 600 CURVE SMOOTH",
"832 423 OFFCURVE",
"711 324 OFFCURVE",
"563 324 CURVE SMOOTH",
"494 324 LINE"
);
}
);
};
layerId = "0B5E954E-D3E5-4A16-AD17-8B1BCB8BDBD4";
paths = (
{
closed = 1;
nodes = (
"526 0 LINE SMOOTH",
"727 0 OFFCURVE",
"894 50 OFFCURVE",
"1024 147 CURVE SMOOTH",
"1227 296 OFFCURVE",
"1337 556 OFFCURVE",
"1337 909 CURVE SMOOTH",
"1337 1264 OFFCURVE",
"1133 1462 OFFCURVE",
"772 1462 CURVE SMOOTH",
"342 1462 LINE",
"219 883 LINE",
"80 883 LINE",
"10 563 LINE",
"152 563 LINE",
"33 0 LINE"
);
},
{
closed = 1;
nodes = (
"543 563 LINE",
"719 563 LINE",
"788 883 LINE",
"610 883 LINE",
"666 1143 LINE",
"737 1143 LINE SMOOTH",
"866 1143 OFFCURVE",
"942 1056 OFFCURVE",
"942 901 CURVE SMOOTH",
"942 788 OFFCURVE",
"926 688 OFFCURVE",
"895 600 CURVE SMOOTH",
"832 423 OFFCURVE",
"711 324 OFFCURVE",
"563 324 CURVE SMOOTH",
"494 324 LINE"
);
}
);
width = 1401;
}
);
leftKerningGroup = H;
rightKerningGroup = O;
unicode = 00D0;
},
{
glyphname = Dcroat;
layers = (
{
background = {
paths = (
{
closed = 1;
nodes = (
"1288 1263 OFFCURVE",
"1093 1462 OFFCURVE",
"717 1462 CURVE SMOOTH",
"412 1462 LINE",
"266 772 LINE",
"111 772 LINE",
"90 676 LINE",
"246 676 LINE",
"102 0 LINE",
"432 0 LINE SMOOTH",
"602 0 OFFCURVE",
"751 35 OFFCURVE",
"878 105 CURVE SMOOTH",
"1133 244 OFFCURVE",
"1288 542 OFFCURVE",
"1288 879 CURVE SMOOTH"
);
},
{
closed = 1;
nodes = (
"346 676 LINE",
"725 676 LINE",
"745 772 LINE",
"367 772 LINE",
"496 1370 LINE",
"702 1370 LINE SMOOTH",
"1019 1370 OFFCURVE",
"1178 1204 OFFCURVE",
"1178 872 CURVE SMOOTH",
"1178 718 OFFCURVE",
"1147 581 OFFCURVE",
"1086 460 CURVE SMOOTH",
"962 219 OFFCURVE",
"731 90 OFFCURVE",
"430 90 CURVE SMOOTH",
"221 90 LINE"
);
}
);
};
components = (
{
name = Eth;
}
);
layerId = "4C802D5D-2BAD-4759-8C93-835BB7B64EA1";
width = 1352;
},
{
background = {
components = (
{
name = Eth;
}
);
};
components = (
{
name = Eth;
}
);
layerId = "9047BFCD-DDCC-4357-AC30-29E5270711EF";
width = 895;
},
{
background = {
components = (
{
name = Eth;
}
);
};
components = (
{
name = Eth;
}
);
layerId = "055178C8-6F6F-4B48-86C1-608D4439D248";
width = 1206;
},
{
background = {
paths = (
{
closed = 1;
nodes = (
"152 563 LINE",
"33 0 LINE",
"526 0 LINE SMOOTH",
"1039 0 OFFCURVE",
"1337 330 OFFCURVE",
"1337 909 CURVE SMOOTH",
"1337 1264 OFFCURVE",
"1133 1462 OFFCURVE",
"772 1462 CURVE SMOOTH",
"342 1462 LINE",
"219 883 LINE",
"80 883 LINE",
"10 563 LINE"
);
},
{
closed = 1;
nodes = (
"543 563 LINE",
"719 563 LINE",
"788 883 LINE",
"610 883 LINE",
"666 1143 LINE",
"737 1143 LINE SMOOTH",
"866 1143 OFFCURVE",
"942 1056 OFFCURVE",
"942 901 CURVE SMOOTH",
"942 788 OFFCURVE",
"926 688 OFFCURVE",
"895 600 CURVE SMOOTH",
"832 423 OFFCURVE",
"711 324 OFFCURVE",
"563 324 CURVE SMOOTH",
"494 324 LINE"
);
}
);
};
components = (
{
name = Eth;
}
);
layerId = "0B5E954E-D3E5-4A16-AD17-8B1BCB8BDBD4";
width = 1401;
}
);
leftKerningGroup = H;
note = Dcroat;
rightKerningGroup = O;
unicode = 0110;
},
{
glyphname = E;
layers = (
{
anchors = (
{
name = bottom;
position = "{418, 0}";
},
{
name = ogonek;
position = "{709, 10}";
},
{
name = top;
position = "{729, 1462}";
},
{
name = topleft;
position = "{215, 1462}";
}
);
background = {
anchors = (
{
name = bottom;
position = "{418, 0}";
},
{
name = ogonek;
position = "{844, 10}";
},
{
name = top;
position = "{729, 1462}";
},
{
name = topleft;
position = "{215, 1462}";
}
);
paths = (
{
closed = 1;
nodes = (
"223 94 LINE",
"358 721 LINE",
"946 721 LINE",
"967 815 LINE",
"377 815 LINE",
"494 1368 LINE",
"1118 1368 LINE",
"1139 1462 LINE",
"412 1462 LINE",
"102 0 LINE",
"829 0 LINE",
"850 94 LINE"
);
}
);
};
layerId = "4C802D5D-2BAD-4759-8C93-835BB7B64EA1";
paths = (
{
closed = 1;
nodes = (
"829 0 LINE",
"850 94 LINE",
"223 94 LINE",
"358 721 LINE",
"946 721 LINE",
"967 815 LINE",
"377 815 LINE",
"494 1368 LINE",
"1118 1368 LINE",
"1139 1462 LINE",
"412 1462 LINE",
"102 0 LINE"
);
}
);
width = 1067;
},
{
anchors = (
{
name = bottom;
position = "{240, 0}";
},
{
name = ogonek;
position = "{523, 10}";
},
{
name = top;
position = "{590, 1462}";
},
{
name = topleft;
position = "{215, 1462}";
}
);
background = {
anchors = (
{
name = bottom;
position = "{240, 0}";
},
{
name = ogonek;
position = "{523, 10}";
},
{
name = top;
position = "{590, 1462}";
},
{
name = topleft;
position = "{215, 1462}";
}
);
paths = (
{
closed = 1;
nodes = (
"184 94 LINE",
"317 719 LINE",
"672 719 LINE",
"692 813 LINE",
"338 813 LINE",
"455 1366 LINE",
"831 1366 LINE",
"852 1462 LINE",
"375 1462 LINE",
"66 0 LINE",
"543 0 LINE",
"561 94 LINE"
);
}
);
};
layerId = "9047BFCD-DDCC-4357-AC30-29E5270711EF";
paths = (
{
closed = 1;
nodes = (
"543 0 LINE",
"561 94 LINE",
"184 94 LINE",
"317 719 LINE",
"672 719 LINE",
"692 813 LINE",
"338 813 LINE",
"455 1366 LINE",
"831 1366 LINE",
"852 1462 LINE",
"375 1462 LINE",
"66 0 LINE"
);
}
);
width = 709;
},
{
anchors = (
{
name = bottom;
position = "{316, 0}";
},
{
name = ogonek;
position = "{678, 10}";
},
{
name = top;
position = "{687, 1462}";
},
{
name = topleft;
position = "{-87, 1462}";
}
);
background = {
anchors = (
{
name = bottom;
position = "{316, 0}";
},
{
name = ogonek;
position = "{678, 10}";
},
{
name = top;
position = "{687, 1462}";
},
{
name = topleft;
position = "{-87, 1462}";
}
);
paths = (
{
closed = 1;
nodes = (
"388 300 LINE",
"453 610 LINE",
"792 610 LINE",
"855 907 LINE",
"516 907 LINE",
"571 1166 LINE",
"939 1166 LINE",
"1002 1462 LINE",
"286 1462 LINE",
"-23 0 LINE",
"692 0 LINE",
"756 300 LINE"
);
}
);
};
layerId = "055178C8-6F6F-4B48-86C1-608D4439D248";
paths = (
{
closed = 1;
nodes = (
"692 0 LINE",
"756 300 LINE",
"388 300 LINE",
"453 610 LINE",
"792 610 LINE",
"855 907 LINE",
"516 907 LINE",
"571 1166 LINE",
"939 1166 LINE",
"1002 1462 LINE",
"286 1462 LINE",
"-23 0 LINE"
);
}
);
width = 907;
},
{
anchors = (
{
name = bottom;
position = "{456, 0}";
},
{
name = ogonek;
position = "{785, 10}";
},
{
name = top;
position = "{766, 1462}";
},
{
name = topleft;
position = "{210, 1462}";
}
);
background = {
anchors = (
{
name = bottom;
position = "{456, 0}";
},
{
name = ogonek;
position = "{916, 10}";
},
{
name = top;
position = "{766, 1462}";
},
{
name = topleft;
position = "{210, 1462}";
}
);
paths = (
{
closed = 1;
nodes = (
"492 322 LINE",
"549 598 LINE",
"993 598 LINE",
"1065 915 LINE",
"621 915 LINE",
"668 1145 LINE",
"1145 1145 LINE",
"1210 1462 LINE",
"342 1462 LINE",
"33 0 LINE",
"901 0 LINE",
"969 322 LINE"
);
}
);
};
layerId = "0B5E954E-D3E5-4A16-AD17-8B1BCB8BDBD4";
paths = (
{
closed = 1;
nodes = (
"901 0 LINE",
"969 322 LINE",
"492 322 LINE",
"549 598 LINE",
"993 598 LINE",
"1065 915 LINE",
"621 915 LINE",
"668 1145 LINE",
"1145 1145 LINE",
"1210 1462 LINE",
"342 1462 LINE",
"33 0 LINE"
);
}
);
width = 1151;
}
);
leftKerningGroup = H;
rightKerningGroup = E;
unicode = 0045;
},
{
glyphname = F;
layers = (
{
anchors = (
{
name = bottom;
position = "{375, 0}";
},
{
name = top;
position = "{686, 1462}";
}
);
background = {
anchors = (
{
name = bottom;
position = "{375, 0}";
},
{
name = top;
position = "{686, 1462}";
}
);
paths = (
{
closed = 1;
nodes = (
"911 653 LINE",
"932 748 LINE",
"362 748 LINE",
"496 1368 LINE",
"1100 1368 LINE",
"1120 1462 LINE",
"412 1462 LINE",
"102 0 LINE",
"205 0 LINE",
"342 653 LINE"
);
}
);
};
layerId = "4C802D5D-2BAD-4759-8C93-835BB7B64EA1";
paths = (
{
closed = 1;
nodes = (
"205 0 LINE",
"342 653 LINE",
"911 653 LINE",
"932 748 LINE",
"362 748 LINE",
"496 1368 LINE",
"1100 1368 LINE",
"1120 1462 LINE",
"412 1462 LINE",
"102 0 LINE"
);
}
);
width = 981;
},
{
anchors = (
{
name = bottom;
position = "{213, 0}";
},
{
name = top;
position = "{523, 1462}";
}
);
background = {
anchors = (
{
name = bottom;
position = "{213, 0}";
},
{
name = top;
position = "{523, 1462}";
}
);
paths = (
{
closed = 1;
nodes = (
"662 657 LINE",
"682 752 LINE",
"326 752 LINE",
"455 1366 LINE",
"834 1366 LINE",
"854 1462 LINE",
"375 1462 LINE",
"66 0 LINE",
"166 0 LINE",
"305 657 LINE"
);
}
);
};
layerId = "9047BFCD-DDCC-4357-AC30-29E5270711EF";
paths = (
{
closed = 1;
nodes = (
"166 0 LINE",
"305 657 LINE",
"662 657 LINE",
"682 752 LINE",
"326 752 LINE",
"455 1366 LINE",
"834 1366 LINE",
"854 1462 LINE",
"375 1462 LINE",
"66 0 LINE"
);
}
);
width = 655;
},
{
anchors = (
{
name = bottom;
position = "{323, 0}";
},
{
name = top;
position = "{634, 1462}";
}
);
background = {
anchors = (
{
name = bottom;
position = "{323, 0}";
},
{
name = top;
position = "{634, 1462}";
}
);
paths = (
{
closed = 1;
nodes = (
"914 557 LINE",
"977 853 LINE",
"641 853 LINE",
"707 1166 LINE",
"1070 1166 LINE",
"1133 1462 LINE",
"424 1462 LINE",
"115 0 LINE",
"460 0 LINE",
"578 557 LINE"
);
}
);
};
layerId = "055178C8-6F6F-4B48-86C1-608D4439D248";
paths = (
{
closed = 1;
nodes = (
"460 0 LINE",
"578 557 LINE",
"914 557 LINE",
"977 853 LINE",
"641 853 LINE",
"707 1166 LINE",
"1070 1166 LINE",
"1133 1462 LINE",
"424 1462 LINE",
"115 0 LINE"
);
}
);
width = 885;
},
{
anchors = (
{
name = bottom;
position = "{463, 0}";
},
{
name = top;
position = "{773, 1462}";
}
);
background = {
paths = (
{
closed = 1;
nodes = (
"975 547 LINE",
"1044 866 LINE",
"608 866 LINE",
"666 1145 LINE",
"1137 1145 LINE",
"1204 1462 LINE",
"342 1462 LINE",
"33 0 LINE",
"424 0 LINE",
"537 547 LINE"
);
}
);
};
layerId = "0B5E954E-D3E5-4A16-AD17-8B1BCB8BDBD4";
paths = (
{
closed = 1;
nodes = (
"424 0 LINE",
"537 547 LINE",
"975 547 LINE",
"1044 866 LINE",
"608 866 LINE",
"666 1145 LINE",
"1137 1145 LINE",
"1204 1462 LINE",
"342 1462 LINE",
"33 0 LINE"
);
}
);
width = 1165;
}
);
leftKerningGroup = H;
rightKerningGroup = F;
unicode = 0046;
},
{
glyphname = G;
layers = (
{
anchors = (
{
name = bottom;
position = "{571, 0}";
},
{
name = top;
position = "{882, 1462}";
}
);
background = {
anchors = (
{
name = bottom;
position = "{571, 0}";
},
{
name = top;
position = "{882, 1462}";
}
);
paths = (
{
closed = 1;
nodes = (
"1141 645 LINE",
"1024 119 LINE",
"921 88 OFFCURVE",
"818 72 OFFCURVE",
"715 72 CURVE SMOOTH",
"432 72 OFFCURVE",
"274 242 OFFCURVE",
"274 547 CURVE SMOOTH",
"274 706 OFFCURVE",
"304 851 OFFCURVE",
"363 980 CURVE SMOOTH",
"482 1239 OFFCURVE",
"701 1389 OFFCURVE",
"946 1389 CURVE SMOOTH",
"1063 1389 OFFCURVE",
"1156 1372 OFFCURVE",
"1303 1311 CURVE",
"1341 1405 LINE",
"1216 1458 OFFCURVE",
"1105 1483 OFFCURVE",
"954 1483 CURVE SMOOTH",
"809 1483 OFFCURVE",
"678 1444 OFFCURVE",
"559 1366 CURVE SMOOTH",
"321 1210 OFFCURVE",
"170 900 OFFCURVE",
"170 547 CURVE SMOOTH",
"170 180 OFFCURVE",
"364 -20 OFFCURVE",
"707 -20 CURVE SMOOTH",
"836 -20 OFFCURVE",
"971 4 OFFCURVE",
"1112 53 CURVE",
"1262 735 LINE",
"856 735 LINE",
"838 645 LINE"
);
}
);
};
layerId = "4C802D5D-2BAD-4759-8C93-835BB7B64EA1";
paths = (
{
closed = 1;
nodes = (
"836 -20 OFFCURVE",
"971 4 OFFCURVE",
"1112 53 CURVE",
"1262 735 LINE",
"856 735 LINE",
"838 645 LINE",
"1141 645 LINE",
"1024 119 LINE",
"921 88 OFFCURVE",
"818 72 OFFCURVE",
"715 72 CURVE SMOOTH",
"432 72 OFFCURVE",
"274 242 OFFCURVE",
"274 547 CURVE SMOOTH",
"274 706 OFFCURVE",
"304 851 OFFCURVE",
"363 980 CURVE SMOOTH",
"482 1239 OFFCURVE",
"701 1389 OFFCURVE",
"946 1389 CURVE SMOOTH",
"1063 1389 OFFCURVE",
"1156 1372 OFFCURVE",
"1303 1311 CURVE",
"1341 1405 LINE",
"1216 1458 OFFCURVE",
"1105 1483 OFFCURVE",
"954 1483 CURVE SMOOTH",
"809 1483 OFFCURVE",
"678 1444 OFFCURVE",
"559 1366 CURVE SMOOTH",
"321 1210 OFFCURVE",
"170 900 OFFCURVE",
"170 547 CURVE SMOOTH",
"170 180 OFFCURVE",
"364 -20 OFFCURVE",
"707 -20 CURVE SMOOTH"
);
}
);
width = 1374;
},
{
anchors = (
{
name = bottom;
position = "{429, 0}";
},
{
name = top;
position = "{770, 1462}";
}
);
background = {
anchors = (
{
name = bottom;
position = "{429, 0}";
},
{
name = top;
position = "{770, 1462}";
}
);
paths = (
{
closed = 1;
nodes = (
"819 647 LINE",
"702 100 LINE",
"641 81 OFFCURVE",
"574 72 OFFCURVE",
"516 72 CURVE SMOOTH",
"318 72 OFFCURVE",
"233 176 OFFCURVE",
"233 440 CURVE SMOOTH",
"233 665 OFFCURVE",
"295 928 OFFCURVE",
"389 1109 CURVE SMOOTH",
"486 1296 OFFCURVE",
"611 1389 OFFCURVE",
"766 1389 CURVE SMOOTH",
"836 1389 OFFCURVE",
"911 1370 OFFCURVE",
"1001 1303 CURVE",
"1065 1391 LINE",
"976 1456 OFFCURVE",
"869 1485 OFFCURVE",
"770 1485 CURVE SMOOTH",
"589 1485 OFFCURVE",
"441 1387 OFFCURVE",
"325 1184 CURVE SMOOTH",
"210 983 OFFCURVE",
"135 688 OFFCURVE",
"135 441 CURVE SMOOTH",
"135 127 OFFCURVE",
"257 -20 OFFCURVE",
"508 -20 CURVE SMOOTH",
"598 -20 OFFCURVE",
"701 -1 OFFCURVE",
"788 33 CURVE",
"940 741 LINE",
"645 741 LINE",
"625 647 LINE"
);
}
);
};
layerId = "9047BFCD-DDCC-4357-AC30-29E5270711EF";
paths = (
{
closed = 1;
nodes = (
"598 -20 OFFCURVE",
"701 -1 OFFCURVE",
"788 33 CURVE",
"940 741 LINE",
"645 741 LINE",
"625 647 LINE",
"819 647 LINE",
"702 100 LINE",
"641 81 OFFCURVE",
"574 72 OFFCURVE",
"516 72 CURVE SMOOTH",
"318 72 OFFCURVE",
"233 176 OFFCURVE",
"233 440 CURVE SMOOTH",
"233 665 OFFCURVE",
"295 928 OFFCURVE",
"389 1109 CURVE SMOOTH",
"486 1296 OFFCURVE",
"611 1389 OFFCURVE",
"766 1389 CURVE SMOOTH",
"836 1389 OFFCURVE",
"911 1370 OFFCURVE",
"1001 1303 CURVE",
"1065 1391 LINE",
"976 1456 OFFCURVE",
"869 1485 OFFCURVE",
"770 1485 CURVE SMOOTH",
"589 1485 OFFCURVE",
"441 1387 OFFCURVE",
"325 1184 CURVE SMOOTH",
"210 983 OFFCURVE",
"135 688 OFFCURVE",
"135 441 CURVE SMOOTH",
"135 127 OFFCURVE",
"257 -20 OFFCURVE",
"508 -20 CURVE SMOOTH"
);
}
);
width = 967;
},
{
anchors = (
{
name = bottom;
position = "{565, -1}";
},
{
name = top;
position = "{989, 1462}";
}
);
background = {
anchors = (
{
name = bottom;
position = "{565, -1}";
},
{
name = top;
position = "{989, 1462}";
}
);
paths = (
{
closed = 1;
nodes = (
"825 541 LINE",
"778 304 LINE",
"737 291 OFFCURVE",
"691 281 OFFCURVE",
"660 281 CURVE SMOOTH",
"572 281 OFFCURVE",
"541 351 OFFCURVE",
"541 476 CURVE SMOOTH",
"541 534 OFFCURVE",
"552 599 OFFCURVE",
"565 659 CURVE SMOOTH",
"639 1000 OFFCURVE",
"806 1180 OFFCURVE",
"1000 1180 CURVE SMOOTH",
"1056 1180 OFFCURVE",
"1122 1165 OFFCURVE",
"1193 1121 CURVE",
"1332 1389 LINE",
"1232 1447 OFFCURVE",
"1129 1483 OFFCURVE",
"988 1483 CURVE SMOOTH",
"810 1483 OFFCURVE",
"652 1425 OFFCURVE",
"524 1310 CURVE SMOOTH",
"324 1131 OFFCURVE",
"197 768 OFFCURVE",
"197 486 CURVE SMOOTH",
"197 157 OFFCURVE",
"350 -20 OFFCURVE",
"651 -20 CURVE SMOOTH",
"779 -20 OFFCURVE",
"920 12 OFFCURVE",
"1069 73 CURVE",
"1221 843 LINE",
"719 843 LINE",
"655 541 LINE"
);
}
);
};
layerId = "055178C8-6F6F-4B48-86C1-608D4439D248";
paths = (
{
closed = 1;
nodes = (
"779 -20 OFFCURVE",
"920 12 OFFCURVE",
"1069 73 CURVE",
"1221 843 LINE",
"719 843 LINE",
"655 541 LINE",
"825 541 LINE",
"778 304 LINE",
"737 291 OFFCURVE",
"691 281 OFFCURVE",
"660 281 CURVE SMOOTH",
"572 281 OFFCURVE",
"541 351 OFFCURVE",
"541 476 CURVE SMOOTH",
"541 534 OFFCURVE",
"552 599 OFFCURVE",
"565 659 CURVE SMOOTH",
"639 1000 OFFCURVE",
"806 1180 OFFCURVE",
"1000 1180 CURVE SMOOTH",
"1056 1180 OFFCURVE",
"1122 1165 OFFCURVE",
"1193 1121 CURVE",
"1332 1389 LINE",
"1232 1447 OFFCURVE",
"1129 1483 OFFCURVE",
"988 1483 CURVE SMOOTH",
"810 1483 OFFCURVE",
"652 1425 OFFCURVE",
"524 1310 CURVE SMOOTH",
"324 1131 OFFCURVE",
"197 768 OFFCURVE",
"197 486 CURVE SMOOTH",
"197 157 OFFCURVE",
"350 -20 OFFCURVE",
"651 -20 CURVE SMOOTH"
);
}
);
width = 1128;
},
{
anchors = (
{
name = bottom;
position = "{595, 0}";
},
{
name = top;
position = "{905, 1462}";
}
);
background = {
anchors = (
{
name = bottom;
position = "{595, 0}";
},
{
name = top;
position = "{905, 1462}";
}
);
paths = (
{
closed = 1;
nodes = (
"893 551 LINE",
"842 319 LINE",
"795 310 OFFCURVE",
"751 305 OFFCURVE",
"709 305 CURVE SMOOTH",
"570 305 OFFCURVE",
"500 393 OFFCURVE",
"500 569 CURVE SMOOTH",
"500 676 OFFCURVE",
"520 777 OFFCURVE",
"561 872 CURVE SMOOTH",
"641 1061 OFFCURVE",
"780 1159 OFFCURVE",
"956 1159 CURVE SMOOTH",
"1058 1159 OFFCURVE",
"1160 1129 OFFCURVE",
"1262 1069 CURVE",
"1409 1378 LINE",
"1288 1449 OFFCURVE",
"1138 1485 OFFCURVE",
"961 1485 CURVE SMOOTH",
"792 1485 OFFCURVE",
"643 1448 OFFCURVE",
"516 1373 CURVE SMOOTH",
"260 1223 OFFCURVE",
"104 919 OFFCURVE",
"104 563 CURVE SMOOTH",
"104 191 OFFCURVE",
"305 -20 OFFCURVE",
"653 -20 CURVE SMOOTH",
"834 -20 OFFCURVE",
"1007 7 OFFCURVE",
"1174 61 CURVE",
"1341 856 LINE",
"731 856 LINE",
"664 551 LINE"
);
}
);
};
layerId = "0B5E954E-D3E5-4A16-AD17-8B1BCB8BDBD4";
paths = (
{
closed = 1;
nodes = (
"834 -20 OFFCURVE",
"1007 7 OFFCURVE",
"1174 61 CURVE",
"1341 856 LINE",
"731 856 LINE",
"664 551 LINE",
"893 551 LINE",
"842 319 LINE",
"795 310 OFFCURVE",
"751 305 OFFCURVE",
"709 305 CURVE SMOOTH",
"570 305 OFFCURVE",
"500 393 OFFCURVE",
"500 569 CURVE SMOOTH",
"500 676 OFFCURVE",
"520 777 OFFCURVE",
"561 872 CURVE SMOOTH",
"641 1061 OFFCURVE",
"780 1159 OFFCURVE",
"956 1159 CURVE SMOOTH",
"1058 1159 OFFCURVE",
"1160 1129 OFFCURVE",
"1262 1069 CURVE",
"1409 1378 LINE",
"1288 1449 OFFCURVE",
"1138 1485 OFFCURVE",
"961 1485 CURVE SMOOTH",
"792 1485 OFFCURVE",
"643 1448 OFFCURVE",
"516 1373 CURVE SMOOTH",
"260 1223 OFFCURVE",
"104 919 OFFCURVE",
"104 563 CURVE SMOOTH",
"104 191 OFFCURVE",
"305 -20 OFFCURVE",
"653 -20 CURVE SMOOTH"
);
}
);
width = 1430;
}
);
leftKerningGroup = O;
rightKerningGroup = G;
unicode = 0047;
},
{
glyphname = H;
layers = (
{
anchors = (
{
name = bottom;
position = "{567, 0}";
},
{
name = center;
position = "{723, 731}";
},
{
name = top;
position = "{878, 1462}";
},
{
name = topleft;
position = "{215, 1462}";
}
);
background = {
anchors = (
{
name = bottom;
position = "{567, 0}";
},
{
name = center;
position = "{723, 731}";
},
{
name = top;
position = "{878, 1462}";
},
{
name = topleft;
position = "{215, 1462}";
}
);
paths = (
{
closed = 1;
nodes = (
"1272 1462 LINE",
"1135 813 LINE",
"375 813 LINE",
"514 1462 LINE",
"412 1462 LINE",
"102 0 LINE",
"205 0 LINE",
"354 719 LINE",
"1114 719 LINE",
"963 0 LINE",
"1063 0 LINE",
"1372 1462 LINE"
);
}
);
};
layerId = "4C802D5D-2BAD-4759-8C93-835BB7B64EA1";
paths = (
{
closed = 1;
nodes = (
"205 0 LINE",
"354 719 LINE",
"1114 719 LINE",
"963 0 LINE",
"1063 0 LINE",
"1372 1462 LINE",
"1272 1462 LINE",
"1135 813 LINE",
"375 813 LINE",
"514 1462 LINE",
"412 1462 LINE",
"102 0 LINE"
);
}
);
width = 1366;
},
{
anchors = (
{
name = bottom;
position = "{347, 0}";
},
{
name = center;
position = "{502, 731}";
},
{
name = top;
position = "{677, 1462}";
},
{
name = topleft;
position = "{215, 1462}";
}
);
background = {
anchors = (
{
name = bottom;
position = "{347, 0}";
},
{
name = center;
position = "{502, 731}";
},
{
name = top;
position = "{677, 1462}";
},
{
name = topleft;
position = "{215, 1462}";
}
);
paths = (
{
closed = 1;
nodes = (
"913 1462 LINE",
"776 815 LINE",
"336 815 LINE",
"473 1462 LINE",
"375 1462 LINE",
"66 0 LINE",
"164 0 LINE",
"315 717 LINE",
"756 717 LINE",
"604 0 LINE",
"702 0 LINE",
"1012 1462 LINE"
);
}
);
};
layerId = "9047BFCD-DDCC-4357-AC30-29E5270711EF";
paths = (
{
closed = 1;
nodes = (
"164 0 LINE",
"315 717 LINE",
"756 717 LINE",
"604 0 LINE",
"702 0 LINE",
"1012 1462 LINE",
"913 1462 LINE",
"776 815 LINE",
"336 815 LINE",
"473 1462 LINE",
"375 1462 LINE",
"66 0 LINE"
);
}
);
width = 924;
},
{
anchors = (
{
name = bottom;
position = "{492, 0}";
},
{
name = center;
position = "{507, 731}";
},
{
name = top;
position = "{802, 1462}";
},
{
name = topleft;
position = "{-68, 1462}";
}
);
background = {
anchors = (
{
name = bottom;
position = "{492, 0}";
},
{
name = center;
position = "{507, 731}";
},
{
name = top;
position = "{802, 1462}";
},
{
name = topleft;
position = "{-68, 1462}";
}
);
paths = (
{
closed = 1;
nodes = (
"947 1462 LINE",
"830 910 LINE",
"537 910 LINE",
"654 1462 LINE",
"306 1462 LINE",
"-4 0 LINE",
"344 0 LINE",
"473 608 LINE",
"766 608 LINE",
"638 0 LINE",
"985 0 LINE",
"1295 1462 LINE"
);
}
);
};
layerId = "055178C8-6F6F-4B48-86C1-608D4439D248";
paths = (
{
closed = 1;
nodes = (
"344 0 LINE",
"473 608 LINE",
"766 608 LINE",
"638 0 LINE",
"985 0 LINE",
"1295 1462 LINE",
"947 1462 LINE",
"830 910 LINE",
"537 910 LINE",
"654 1462 LINE",
"306 1462 LINE",
"-4 0 LINE"
);
}
);
width = 1219;
},
{
anchors = (
{
name = bottom;
position = "{611, 0}";
},
{
name = center;
position = "{766, 731}";
},
{
name = top;
position = "{921, 1462}";
},
{
name = topleft;
position = "{210, 1462}";
}
);
background = {
anchors = (
{
name = bottom;
position = "{611, 0}";
},
{
name = center;
position = "{766, 731}";
},
{
name = top;
position = "{921, 1462}";
},
{
name = topleft;
position = "{210, 1462}";
}
);
paths = (
{
closed = 1;
nodes = (
"1081 1462 LINE",
"969 920 LINE",
"621 920 LINE",
"733 1462 LINE",
"342 1462 LINE",
"33 0 LINE",
"424 0 LINE",
"551 596 LINE",
"897 596 LINE",
"772 0 LINE",
"1163 0 LINE",
"1473 1462 LINE"
);
}
);
};
layerId = "0B5E954E-D3E5-4A16-AD17-8B1BCB8BDBD4";
paths = (
{
closed = 1;
nodes = (
"424 0 LINE",
"551 596 LINE",
"897 596 LINE",
"772 0 LINE",
"1163 0 LINE",
"1473 1462 LINE",
"1081 1462 LINE",
"969 920 LINE",
"621 920 LINE",
"733 1462 LINE",
"342 1462 LINE",
"33 0 LINE"
);
}
);
width = 1462;
}
);
leftKerningGroup = H;
rightKerningGroup = H;
unicode = 0048;
},
{
glyphname = Hbar;
layers = (
{
background = {
paths = (
{
closed = 1;
nodes = (
"1272 1462 LINE",
"1212 1184 LINE",
"455 1184 LINE",
"514 1462 LINE",
"412 1462 LINE",
"352 1184 LINE",
"162 1184 LINE",
"141 1094 LINE",
"334 1094 LINE",
"102 0 LINE",
"205 0 LINE",
"354 719 LINE",
"1114 719 LINE",
"963 0 LINE",
"1063 0 LINE",
"1294 1094 LINE",
"1491 1094 LINE",
"1511 1184 LINE",
"1313 1184 LINE",
"1372 1462 LINE"
);
},
{
closed = 1;
nodes = (
"434 1094 LINE",
"1194 1094 LINE",
"1135 813 LINE",
"375 813 LINE"
);
}
);
};
layerId = "4C802D5D-2BAD-4759-8C93-835BB7B64EA1";
paths = (
{
closed = 1;
nodes = (
"205 0 LINE",
"354 719 LINE",
"1114 719 LINE",
"963 0 LINE",
"1063 0 LINE",
"1294 1094 LINE",
"1491 1094 LINE",
"1511 1184 LINE",
"1313 1184 LINE",
"1372 1462 LINE",
"1272 1462 LINE",
"1212 1184 LINE",
"455 1184 LINE",
"514 1462 LINE",
"412 1462 LINE",
"352 1184 LINE",
"162 1184 LINE",
"141 1094 LINE",
"334 1094 LINE",
"102 0 LINE"
);
},
{
closed = 1;
nodes = (
"434 1094 LINE",
"1194 1094 LINE",
"1135 813 LINE",
"375 813 LINE"
);
}
);
width = 1366;
},
{
background = {
paths = (
{
closed = 1;
nodes = (
"1075 1087 LINE",
"1096 1184 LINE",
"952 1184 LINE",
"1012 1462 LINE",
"911 1462 LINE",
"852 1184 LINE",
"414 1184 LINE",
"473 1462 LINE",
"375 1462 LINE",
"315 1184 LINE",
"172 1184 LINE",
"152 1087 LINE",
"295 1087 LINE",
"66 0 LINE",
"164 0 LINE",
"315 717 LINE",
"754 717 LINE",
"602 0 LINE",
"702 0 LINE",
"932 1087 LINE"
);
},
{
closed = 1;
nodes = (
"393 1087 LINE",
"831 1087 LINE",
"774 815 LINE",
"336 815 LINE"
);
}
);
};
layerId = "9047BFCD-DDCC-4357-AC30-29E5270711EF";
paths = (
{
closed = 1;
nodes = (
"164 0 LINE",
"315 717 LINE",
"754 717 LINE",
"602 0 LINE",
"702 0 LINE",
"932 1087 LINE",
"1075 1087 LINE",
"1096 1184 LINE",
"952 1184 LINE",
"1012 1462 LINE",
"911 1462 LINE",
"852 1184 LINE",
"414 1184 LINE",
"473 1462 LINE",
"375 1462 LINE",
"315 1184 LINE",
"172 1184 LINE",
"152 1087 LINE",
"295 1087 LINE",
"66 0 LINE"
);
},
{
closed = 1;
nodes = (
"393 1087 LINE",
"831 1087 LINE",
"774 815 LINE",
"336 815 LINE"
);
}
);
width = 924;
},
{
background = {
paths = (
{
closed = 1;
nodes = (
"1461 1058 LINE",
"1510 1289 LINE",
"1376 1289 LINE",
"1413 1462 LINE",
"1065 1462 LINE",
"1029 1289 LINE",
"735 1289 LINE",
"772 1462 LINE",
"424 1462 LINE",
"388 1289 LINE",
"256 1289 LINE",
"207 1058 LINE",
"339 1058 LINE",
"115 0 LINE",
"462 0 LINE",
"591 608 LINE",
"884 608 LINE",
"756 0 LINE",
"1103 0 LINE",
"1327 1058 LINE"
);
},
{
closed = 1;
nodes = (
"686 1058 LINE",
"980 1058 LINE",
"948 909 LINE",
"655 909 LINE"
);
}
);
};
layerId = "055178C8-6F6F-4B48-86C1-608D4439D248";
paths = (
{
closed = 1;
nodes = (
"462 0 LINE",
"591 608 LINE",
"884 608 LINE",
"756 0 LINE",
"1103 0 LINE",
"1327 1058 LINE",
"1461 1058 LINE",
"1510 1289 LINE",
"1376 1289 LINE",
"1413 1462 LINE",
"1065 1462 LINE",
"1029 1289 LINE",
"735 1289 LINE",
"772 1462 LINE",
"424 1462 LINE",
"388 1289 LINE",
"256 1289 LINE",
"207 1058 LINE",
"339 1058 LINE",
"115 0 LINE"
);
},
{
closed = 1;
nodes = (
"686 1058 LINE",
"980 1058 LINE",
"948 909 LINE",
"655 909 LINE"
);
}
);
width = 1219;
},
{
background = {
paths = (
{
closed = 1;
nodes = (
"1081 1462 LINE",
"1049 1305 LINE",
"702 1305 LINE",
"733 1462 LINE",
"342 1462 LINE",
"307 1305 LINE",
"135 1305 LINE",
"88 1069 LINE",
"258 1069 LINE",
"33 0 LINE",
"424 0 LINE",
"551 594 LINE",
"897 594 LINE",
"772 0 LINE",
"1163 0 LINE",
"1389 1069 LINE",
"1563 1069 LINE",
"1612 1305 LINE",
"1440 1305 LINE",
"1473 1462 LINE"
);
},
{
closed = 1;
nodes = (
"649 1069 LINE",
"997 1069 LINE",
"969 920 LINE",
"621 920 LINE"
);
}
);
};
layerId = "0B5E954E-D3E5-4A16-AD17-8B1BCB8BDBD4";
paths = (
{
closed = 1;
nodes = (
"424 0 LINE",
"551 594 LINE",
"897 594 LINE",
"772 0 LINE",
"1163 0 LINE",
"1389 1069 LINE",
"1563 1069 LINE",
"1612 1305 LINE",
"1440 1305 LINE",
"1473 1462 LINE",
"1081 1462 LINE",
"1049 1305 LINE",
"702 1305 LINE",
"733 1462 LINE",
"342 1462 LINE",
"307 1305 LINE",
"135 1305 LINE",
"88 1069 LINE",
"258 1069 LINE",
"33 0 LINE"
);
},
{
closed = 1;
nodes = (
"649 1069 LINE",
"997 1069 LINE",
"969 920 LINE",
"621 920 LINE"
);
}
);
width = 1462;
}
);
leftKerningGroup = H;
note = Hbar;
rightKerningGroup = H;
unicode = 0126;
},
{
glyphname = I;
layers = (
{
anchors = (
{
name = bottom;
position = "{136, 0}";
},
{
name = ogonek;
position = "{173, 10}";
},
{
name = top;
position = "{447, 1462}";
},
{
name = topleft;
position = "{215, 1462}";
}
);
background = {
anchors = (
{
name = bottom;
position = "{136, 0}";
},
{
name = ogonek;
position = "{338, 10}";
},
{
name = top;
position = "{447, 1462}";
},
{
name = topleft;
position = "{215, 1462}";
}
);
paths = (
{
closed = 1;
nodes = (
"510 1462 LINE",
"412 1462 LINE",
"102 0 LINE",
"201 0 LINE"
);
}
);
};
layerId = "4C802D5D-2BAD-4759-8C93-835BB7B64EA1";
paths = (
{
closed = 1;
nodes = (
"201 0 LINE",
"510 1462 LINE",
"412 1462 LINE",
"102 0 LINE"
);
}
);
width = 504;
},
{
anchors = (
{
name = bottom;
position = "{94, 0}";
},
{
name = ogonek;
position = "{163, 10}";
},
{
name = top;
position = "{404, 1462}";
},
{
name = topleft;
position = "{215, 1462}";
}
);
background = {
anchors = (
{
name = bottom;
position = "{94, 0}";
},
{
name = ogonek;
position = "{163, 10}";
},
{
name = top;
position = "{404, 1462}";
},
{
name = topleft;
position = "{215, 1462}";
}
);
paths = (
{
closed = 1;
nodes = (
"473 1462 LINE",
"375 1462 LINE",
"66 0 LINE",
"164 0 LINE"
);
}
);
};
layerId = "9047BFCD-DDCC-4357-AC30-29E5270711EF";
paths = (
{
closed = 1;
nodes = (
"164 0 LINE",
"473 1462 LINE",
"375 1462 LINE",
"66 0 LINE"
);
}
);
width = 418;
},
{
anchors = (
{
name = bottom;
position = "{222, 0}";
},
{
name = ogonek;
position = "{381, 10}";
},
{
name = top;
position = "{563, 1462}";
},
{
name = topleft;
position = "{-67, 1462}";
}
);
background = {
anchors = (
{
name = bottom;
position = "{222, 0}";
},
{
name = ogonek;
position = "{381, 10}";
},
{
name = top;
position = "{563, 1462}";
},
{
name = topleft;
position = "{-67, 1462}";
}
);
paths = (
{
closed = 1;
nodes = (
"702 1462 LINE",
"378 1462 LINE",
"69 0 LINE",
"392 0 LINE"
);
}
);
};
layerId = "055178C8-6F6F-4B48-86C1-608D4439D248";
paths = (
{
closed = 1;
nodes = (
"392 0 LINE",
"702 1462 LINE",
"378 1462 LINE",
"69 0 LINE"
);
}
);
width = 698;
},
{
anchors = (
{
name = bottom;
position = "{244, 0}";
},
{
name = ogonek;
position = "{384, 10}";
},
{
name = top;
position = "{554, 1462}";
},
{
name = topleft;
position = "{210, 1462}";
}
);
background = {
anchors = (
{
name = bottom;
position = "{244, 0}";
},
{
name = ogonek;
position = "{534, 10}";
},
{
name = top;
position = "{554, 1462}";
},
{
name = topleft;
position = "{210, 1462}";
}
);
paths = (
{
closed = 1;
nodes = (
"737 1462 LINE",
"340 1462 LINE",
"31 0 LINE",
"428 0 LINE"
);
}
);
};
layerId = "0B5E954E-D3E5-4A16-AD17-8B1BCB8BDBD4";
paths = (
{
closed = 1;
nodes = (
"428 0 LINE",
"737 1462 LINE",
"340 1462 LINE",
"31 0 LINE"
);
}
);
width = 727;
}
);
leftKerningGroup = H;
rightKerningGroup = H;
unicode = 0049;
},
{
glyphname = IJ;
layers = (
{
background = {
paths = (
{
closed = 1;
nodes = (
"510 1462 LINE",
"412 1462 LINE",
"102 0 LINE",
"201 0 LINE"
);
},
{
closed = 1;
nodes = (
"525 -360 OFFCURVE",
"643 -256 OFFCURVE",
"690 -29 CURVE SMOOTH",
"1004 1462 LINE",
"899 1462 LINE",
"590 -23 LINE SMOOTH",
"557 -184 OFFCURVE",
"470 -264 OFFCURVE",
"328 -264 CURVE SMOOTH",
"275 -264 OFFCURVE",
"229 -257 OFFCURVE",
"191 -244 CURVE",
"180 -336 LINE",
"201 -347 OFFCURVE",
"260 -360 OFFCURVE",
"324 -360 CURVE SMOOTH"
);
}
);
};
components = (
{
name = I;
},
{
name = J;
transform = "{1, 0, 0, 1, 504, 0}";
}
);
layerId = "4C802D5D-2BAD-4759-8C93-835BB7B64EA1";
width = 981;
},
{
background = {
components = (
{
name = I;
},
{
name = J;
transform = "{1, 0, 0, 1, 418, 0}";
}
);
};
components = (
{
name = I;
},
{
name = J;
transform = "{1, 0, 0, 1, 418, 0}";
}
);
layerId = "9047BFCD-DDCC-4357-AC30-29E5270711EF";
width = 778;
},
{
background = {
components = (
{
alignment = -1;
name = I;
},
{
alignment = -1;
name = J;
transform = "{1, 0, 0, 1, 626, 0}";
}
);
};
components = (
{
alignment = -1;
name = I;
},
{
alignment = -1;
name = J;
transform = "{1, 0, 0, 1, 626, 0}";
}
);
layerId = "055178C8-6F6F-4B48-86C1-608D4439D248";
width = 1273;
},
{
background = {
components = (
{
alignment = -1;
name = I;
},
{
alignment = -1;
name = J;
transform = "{1, 0, 0, 1, 727, 0}";
}
);
};
components = (
{
name = I;
},
{
name = J;
transform = "{1, 0, 0, 1, 727, 0}";
}
);
layerId = "0B5E954E-D3E5-4A16-AD17-8B1BCB8BDBD4";
width = 1491;
}
);
leftKerningGroup = H;
note = IJ;
rightKerningGroup = J;
unicode = 0132;
},
{
glyphname = J;
layers = (
{
anchors = (
{
name = bottom;
position = "{123, 0}";
},
{
name = top;
position = "{434, 1462}";
}
);
background = {
anchors = (
{
name = bottom;
position = "{123, 0}";
},
{
name = top;
position = "{434, 1462}";
}
);
paths = (
{
closed = 1;
nodes = (
"21 -360 OFFCURVE",
"139 -256 OFFCURVE",
"186 -29 CURVE SMOOTH",
"500 1462 LINE",
"395 1462 LINE",
"86 -23 LINE SMOOTH",
"53 -184 OFFCURVE",
"-34 -264 OFFCURVE",
"-176 -264 CURVE SMOOTH",
"-229 -264 OFFCURVE",
"-275 -257 OFFCURVE",
"-313 -244 CURVE",
"-324 -336 LINE",
"-303 -347 OFFCURVE",
"-244 -360 OFFCURVE",
"-180 -360 CURVE SMOOTH"
);
}
);
};
layerId = "4C802D5D-2BAD-4759-8C93-835BB7B64EA1";
paths = (
{
closed = 1;
nodes = (
"21 -360 OFFCURVE",
"139 -256 OFFCURVE",
"186 -29 CURVE SMOOTH",
"500 1462 LINE",
"395 1462 LINE",
"86 -23 LINE SMOOTH",
"53 -184 OFFCURVE",
"-34 -264 OFFCURVE",
"-176 -264 CURVE SMOOTH",
"-229 -264 OFFCURVE",
"-275 -257 OFFCURVE",
"-313 -244 CURVE",
"-324 -336 LINE",
"-303 -347 OFFCURVE",
"-244 -360 OFFCURVE",
"-180 -360 CURVE SMOOTH"
);
}
);
width = 477;
},
{
anchors = (
{
name = bottom;
position = "{65, 0}";
},
{
name = top;
position = "{415, 1462}";
}
);
background = {
anchors = (
{
name = bottom;
position = "{65, 0}";
},
{
name = top;
position = "{415, 1462}";
}
);
paths = (
{
closed = 1;
nodes = (
"27 -369 OFFCURVE",
"108 -275 OFFCURVE",
"154 -57 CURVE SMOOTH",
"475 1462 LINE",
"377 1462 LINE",
"59 -35 LINE SMOOTH",
"24 -201 OFFCURVE",
"-15 -272 OFFCURVE",
"-110 -272 CURVE SMOOTH",
"-140 -272 OFFCURVE",
"-171 -265 OFFCURVE",
"-199 -252 CURVE",
"-227 -344 LINE",
"-198 -361 OFFCURVE",
"-159 -369 OFFCURVE",
"-117 -369 CURVE SMOOTH"
);
}
);
};
layerId = "9047BFCD-DDCC-4357-AC30-29E5270711EF";
paths = (
{
closed = 1;
nodes = (
"27 -369 OFFCURVE",
"108 -275 OFFCURVE",
"154 -57 CURVE SMOOTH",
"475 1462 LINE",
"377 1462 LINE",
"59 -35 LINE SMOOTH",
"24 -201 OFFCURVE",
"-15 -272 OFFCURVE",
"-110 -272 CURVE SMOOTH",
"-140 -272 OFFCURVE",
"-171 -265 OFFCURVE",
"-199 -252 CURVE",
"-227 -344 LINE",
"-198 -361 OFFCURVE",
"-159 -369 OFFCURVE",
"-117 -369 CURVE SMOOTH"
);
}
);
width = 360;
},
{
anchors = (
{
name = bottom;
position = "{186, 0}";
},
{
name = top;
position = "{595, 1462}";
}
);
background = {
anchors = (
{
name = bottom;
position = "{186, 0}";
},
{
name = top;
position = "{595, 1462}";
}
);
paths = (
{
closed = 1;
nodes = (
"253 -445 OFFCURVE",
"415 -249 OFFCURVE",
"480 59 CURVE SMOOTH",
"777 1462 LINE",
"429 1462 LINE",
"134 70 LINE SMOOTH",
"110 -44 OFFCURVE",
"3 -141 OFFCURVE",
"-105 -141 CURVE SMOOTH",
"-136 -141 OFFCURVE",
"-175 -138 OFFCURVE",
"-221 -125 CURVE",
"-258 -415 LINE",
"-216 -432 OFFCURVE",
"-162 -445 OFFCURVE",
"-52 -445 CURVE SMOOTH"
);
}
);
};
layerId = "055178C8-6F6F-4B48-86C1-608D4439D248";
paths = (
{
closed = 1;
nodes = (
"253 -445 OFFCURVE",
"415 -249 OFFCURVE",
"480 59 CURVE SMOOTH",
"777 1462 LINE",
"429 1462 LINE",
"134 70 LINE SMOOTH",
"110 -44 OFFCURVE",
"3 -141 OFFCURVE",
"-105 -141 CURVE SMOOTH",
"-136 -141 OFFCURVE",
"-175 -138 OFFCURVE",
"-221 -125 CURVE",
"-258 -415 LINE",
"-216 -432 OFFCURVE",
"-162 -445 OFFCURVE",
"-52 -445 CURVE SMOOTH"
);
}
);
width = 586;
},
{
anchors = (
{
name = bottom;
position = "{262, 0}";
},
{
name = top;
position = "{572, 1462}";
}
);
background = {
anchors = (
{
name = bottom;
position = "{262, 0}";
},
{
name = top;
position = "{572, 1462}";
}
);
paths = (
{
closed = 1;
nodes = (
"5 -461 OFFCURVE",
"103 -444 OFFCURVE",
"178 -409 CURVE SMOOTH",
"328 -340 OFFCURVE",
"416 -199 OFFCURVE",
"473 68 CURVE SMOOTH",
"772 1462 LINE",
"381 1462 LINE",
"92 117 LINE SMOOTH",
"53 -64 OFFCURVE",
"-11 -137 OFFCURVE",
"-154 -137 CURVE SMOOTH",
"-204 -137 OFFCURVE",
"-262 -129 OFFCURVE",
"-328 -113 CURVE",
"-328 -432 LINE",
"-257 -451 OFFCURVE",
"-186 -461 OFFCURVE",
"-115 -461 CURVE SMOOTH"
);
}
);
};
layerId = "0B5E954E-D3E5-4A16-AD17-8B1BCB8BDBD4";
paths = (
{
closed = 1;
nodes = (
"248 -461 OFFCURVE",
"393 -309 OFFCURVE",
"473 68 CURVE SMOOTH",
"772 1462 LINE",
"381 1462 LINE",
"92 117 LINE SMOOTH",
"53 -64 OFFCURVE",
"-11 -137 OFFCURVE",
"-154 -137 CURVE SMOOTH",
"-204 -137 OFFCURVE",
"-262 -129 OFFCURVE",
"-328 -113 CURVE",
"-328 -432 LINE",
"-257 -451 OFFCURVE",
"-186 -461 OFFCURVE",
"-115 -461 CURVE SMOOTH"
);
}
);
width = 764;
}
);
leftKerningGroup = J;
rightKerningGroup = J;
unicode = 004A;
},
{
glyphname = K;
layers = (
{
anchors = (
{
name = bottom;
position = "{445, 0}";
},
{
name = top;
position = "{756, 1462}";
}
);
background = {
anchors = (
{
name = bottom;
position = "{445, 0}";
},
{
name = top;
position = "{756, 1462}";
}
);
paths = (
{
closed = 1;
nodes = (
"1307 1462 LINE",
"1169 1462 LINE",
"489 860 LINE",
"356 739 LINE",
"514 1462 LINE",
"412 1462 LINE",
"102 0 LINE",
"205 0 LINE",
"336 635 LINE",
"526 788 LINE",
"868 0 LINE",
"979 0 LINE",
"608 852 LINE"
);
}
);
};
layerId = "4C802D5D-2BAD-4759-8C93-835BB7B64EA1";
paths = (
{
closed = 1;
nodes = (
"205 0 LINE",
"336 635 LINE",
"526 788 LINE",
"868 0 LINE",
"979 0 LINE",
"608 852 LINE",
"1307 1462 LINE",
"1169 1462 LINE",
"489 860 LINE",
"445 820 OFFCURVE",
"400 779 OFFCURVE",
"356 739 CURVE",
"514 1462 LINE",
"412 1462 LINE",
"102 0 LINE"
);
}
);
width = 1122;
},
{
anchors = (
{
name = bottom;
position = "{327, 0}";
},
{
name = top;
position = "{567, 1462}";
}
);
background = {
anchors = (
{
name = bottom;
position = "{327, 0}";
},
{
name = top;
position = "{567, 1462}";
}
);
paths = (
{
closed = 1;
nodes = (
"948 1462 LINE",
"848 1462 LINE",
"710 1264 OFFCURVE",
"571 1066 OFFCURVE",
"432 868 CURVE SMOOTH",
"390 808 OFFCURVE",
"349 748 OFFCURVE",
"309 688 CURVE",
"473 1462 LINE",
"375 1462 LINE",
"66 0 LINE",
"164 0 LINE",
"287 580 LINE",
"416 709 LINE",
"565 0 LINE",
"666 0 LINE",
"496 795 LINE"
);
}
);
};
layerId = "9047BFCD-DDCC-4357-AC30-29E5270711EF";
paths = (
{
closed = 1;
nodes = (
"164 0 LINE",
"287 580 LINE",
"416 709 LINE",
"565 0 LINE",
"666 0 LINE",
"496 795 LINE",
"948 1462 LINE",
"848 1462 LINE",
"432 868 LINE",
"390 808 OFFCURVE",
"349 748 OFFCURVE",
"309 688 CURVE",
"473 1462 LINE",
"375 1462 LINE",
"66 0 LINE"
);
}
);
width = 743;
},
{
anchors = (
{
name = bottom;
position = "{562, 0}";
},
{
name = top;
position = "{949, 1462}";
}
);
background = {
anchors = (
{
name = bottom;
position = "{562, 0}";
},
{
name = top;
position = "{949, 1462}";
}
);
paths = (
{
closed = 1;
nodes = (
"1453 1462 LINE",
"1066 1462 LINE",
"964 1308 OFFCURVE",
"854 1151 OFFCURVE",
"731 977 CURVE SMOOTH",
"701 934 OFFCURVE",
"664 860 OFFCURVE",
"620 772 CURVE",
"772 1462 LINE",
"424 1462 LINE",
"115 0 LINE",
"462 0 LINE",
"570 488 LINE",
"701 581 LINE",
"768 0 LINE",
"1129 0 LINE",
"990 834 LINE"
);
}
);
};
layerId = "055178C8-6F6F-4B48-86C1-608D4439D248";
paths = (
{
closed = 1;
nodes = (
"462 0 LINE",
"570 488 LINE",
"701 581 LINE",
"768 0 LINE",
"1129 0 LINE",
"990 834 LINE",
"1453 1462 LINE",
"1066 1462 LINE",
"731 977 LINE",
"701 934 OFFCURVE",
"664 860 OFFCURVE",
"620 772 CURVE",
"772 1462 LINE",
"424 1462 LINE",
"115 0 LINE"
);
}
);
width = 1133;
},
{
anchors = (
{
name = bottom;
position = "{565, 0}";
},
{
name = top;
position = "{875, 1462}";
}
);
background = {
anchors = (
{
name = bottom;
position = "{565, 0}";
},
{
name = top;
position = "{875, 1462}";
}
);
paths = (
{
closed = 1;
nodes = (
"1522 1462 LINE",
"1063 1462 LINE",
"766 1092 LINE SMOOTH",
"738 1057 OFFCURVE",
"695 992 OFFCURVE",
"636 897 CURVE SMOOTH",
"598 838 LINE",
"733 1462 LINE",
"342 1462 LINE",
"33 0 LINE",
"424 0 LINE",
"532 522 LINE",
"629 578 LINE",
"803 0 LINE",
"1241 0 LINE",
"971 788 LINE"
);
}
);
};
layerId = "0B5E954E-D3E5-4A16-AD17-8B1BCB8BDBD4";
paths = (
{
closed = 1;
nodes = (
"424 0 LINE",
"532 522 LINE",
"629 578 LINE",
"803 0 LINE",
"1241 0 LINE",
"971 788 LINE",
"1522 1462 LINE",
"1063 1462 LINE",
"766 1092 LINE SMOOTH",
"739 1058 OFFCURVE",
"698 997 OFFCURVE",
"598 838 CURVE",
"733 1462 LINE",
"342 1462 LINE",
"33 0 LINE"
);
}
);
width = 1370;
}
);
leftKerningGroup = H;
rightKerningGroup = K;
unicode = 004B;
},
{
glyphname = L;
layers = (
{
anchors = (
{
name = bottom;
position = "{353, 0}";
},
{
name = center;
position = "{509, 731}";
},
{
name = top;
position = "{664, 1462}";
},
{
name = topright;
position = "{1113, 1462}";
}
);
background = {
anchors = (
{
name = bottom;
position = "{353, 0}";
},
{
name = center;
position = "{509, 731}";
},
{
name = top;
position = "{664, 1462}";
},
{
name = topright;
position = "{1113, 1462}";
}
);
paths = (
{
closed = 1;
nodes = (
"846 96 LINE",
"225 96 LINE",
"514 1462 LINE",
"412 1462 LINE",
"102 0 LINE",
"823 0 LINE"
);
}
);
};
layerId = "4C802D5D-2BAD-4759-8C93-835BB7B64EA1";
paths = (
{
closed = 1;
nodes = (
"823 0 LINE",
"846 96 LINE",
"225 96 LINE",
"514 1462 LINE",
"412 1462 LINE",
"102 0 LINE"
);
}
);
width = 938;
},
{
anchors = (
{
name = bottom;
position = "{275, 0}";
},
{
name = center;
position = "{360, 731}";
},
{
name = top;
position = "{515, 1462}";
},
{
name = topright;
position = "{814, 1462}";
}
);
background = {
anchors = (
{
name = bottom;
position = "{275, 0}";
},
{
name = center;
position = "{360, 731}";
},
{
name = top;
position = "{515, 1462}";
},
{
name = topright;
position = "{814, 1462}";
}
);
paths = (
{
closed = 1;
nodes = (
"543 94 LINE",
"184 94 LINE",
"473 1462 LINE",
"375 1462 LINE",
"66 0 LINE",
"524 0 LINE"
);
}
);
};
layerId = "9047BFCD-DDCC-4357-AC30-29E5270711EF";
paths = (
{
closed = 1;
nodes = (
"524 0 LINE",
"543 94 LINE",
"184 94 LINE",
"473 1462 LINE",
"375 1462 LINE",
"66 0 LINE"
);
}
);
width = 639;
},
{
anchors = (
{
name = bottom;
position = "{429, 0}";
},
{
name = center;
position = "{483, 731}";
},
{
name = top;
position = "{658, 1462}";
},
{
name = topright;
position = "{1053, 1462}";
}
);
background = {
anchors = (
{
name = bottom;
position = "{429, 0}";
},
{
name = center;
position = "{483, 731}";
},
{
name = top;
position = "{658, 1462}";
},
{
name = topright;
position = "{1053, 1462}";
}
);
paths = (
{
closed = 1;
nodes = (
"889 300 LINE",
"526 300 LINE",
"772 1462 LINE",
"424 1462 LINE",
"115 0 LINE",
"825 0 LINE"
);
}
);
};
layerId = "055178C8-6F6F-4B48-86C1-608D4439D248";
paths = (
{
closed = 1;
nodes = (
"825 0 LINE",
"889 300 LINE",
"526 300 LINE",
"772 1462 LINE",
"424 1462 LINE",
"115 0 LINE"
);
}
);
width = 871;
},
{
anchors = (
{
name = bottom;
position = "{420, 0}";
},
{
name = center;
position = "{575, 731}";
},
{
name = top;
position = "{730, 1462}";
},
{
name = topright;
position = "{1249, 1462}";
}
);
background = {
anchors = (
{
name = bottom;
position = "{420, 0}";
},
{
name = center;
position = "{575, 731}";
},
{
name = top;
position = "{730, 1462}";
},
{
name = topright;
position = "{1249, 1462}";
}
);
paths = (
{
closed = 1;
nodes = (
"969 319 LINE",
"492 319 LINE",
"733 1462 LINE",
"342 1462 LINE",
"33 0 LINE",
"901 0 LINE"
);
}
);
};
layerId = "0B5E954E-D3E5-4A16-AD17-8B1BCB8BDBD4";
paths = (
{
closed = 1;
nodes = (
"901 0 LINE",
"969 319 LINE",
"492 319 LINE",
"733 1462 LINE",
"342 1462 LINE",
"33 0 LINE"
);
}
);
width = 1079;
}
);
leftKerningGroup = H;
rightKerningGroup = L;
unicode = 004C;
},
{
glyphname = Ldot;
layers = (
{
background = {
paths = (
{
closed = 1;
nodes = (
"846 96 LINE",
"225 96 LINE",
"514 1462 LINE",
"412 1462 LINE",
"102 0 LINE",
"823 0 LINE"
);
},
{
closed = 1;
nodes = (
"684 669 OFFCURVE",
"704 644 OFFCURVE",
"743 644 CURVE SMOOTH",
"790 644 OFFCURVE",
"823 690 OFFCURVE",
"823 767 CURVE SMOOTH",
"823 815 OFFCURVE",
"804 839 OFFCURVE",
"766 839 CURVE SMOOTH",
"714 839 OFFCURVE",
"684 793 OFFCURVE",
"684 718 CURVE SMOOTH"
);
}
);
};
layerId = "4C802D5D-2BAD-4759-8C93-835BB7B64EA1";
paths = (
{
closed = 1;
nodes = (
"846 96 LINE",
"225 96 LINE",
"514 1462 LINE",
"412 1462 LINE",
"102 0 LINE",
"823 0 LINE"
);
},
{
closed = 1;
nodes = (
"684 669 OFFCURVE",
"704 644 OFFCURVE",
"743 644 CURVE SMOOTH",
"790 644 OFFCURVE",
"823 690 OFFCURVE",
"823 767 CURVE SMOOTH",
"823 815 OFFCURVE",
"804 839 OFFCURVE",
"766 839 CURVE SMOOTH",
"714 839 OFFCURVE",
"684 793 OFFCURVE",
"684 718 CURVE SMOOTH"
);
}
);
width = 938;
},
{
background = {
paths = (
{
closed = 1;
nodes = (
"543 94 LINE",
"184 94 LINE",
"473 1462 LINE",
"375 1462 LINE",
"66 0 LINE",
"524 0 LINE"
);
},
{
closed = 1;
nodes = (
"483 675 OFFCURVE",
"499 654 OFFCURVE",
"532 654 CURVE SMOOTH",
"580 654 OFFCURVE",
"612 709 OFFCURVE",
"612 785 CURVE SMOOTH",
"612 824 OFFCURVE",
"596 843 OFFCURVE",
"565 843 CURVE SMOOTH",
"517 843 OFFCURVE",
"483 786 OFFCURVE",
"483 718 CURVE SMOOTH"
);
}
);
};
layerId = "9047BFCD-DDCC-4357-AC30-29E5270711EF";
paths = (
{
closed = 1;
nodes = (
"543 94 LINE",
"184 94 LINE",
"473 1462 LINE",
"375 1462 LINE",
"66 0 LINE",
"524 0 LINE"
);
},
{
closed = 1;
nodes = (
"483 675 OFFCURVE",
"499 654 OFFCURVE",
"532 654 CURVE SMOOTH",
"580 654 OFFCURVE",
"612 709 OFFCURVE",
"612 785 CURVE SMOOTH",
"612 824 OFFCURVE",
"596 843 OFFCURVE",
"565 843 CURVE SMOOTH",
"517 843 OFFCURVE",
"483 786 OFFCURVE",
"483 718 CURVE SMOOTH"
);
}
);
width = 639;
},
{
background = {
paths = (
{
closed = 1;
nodes = (
"889 300 LINE",
"526 300 LINE",
"772 1462 LINE",
"424 1462 LINE",
"115 0 LINE",
"825 0 LINE"
);
},
{
closed = 1;
nodes = (
"686 650 OFFCURVE",
"743 600 OFFCURVE",
"862 600 CURVE SMOOTH",
"997 600 OFFCURVE",
"1070 664 OFFCURVE",
"1070 777 CURVE SMOOTH",
"1070 877 OFFCURVE",
"1013 928 OFFCURVE",
"890 928 CURVE SMOOTH",
"761 928 OFFCURVE",
"686 872 OFFCURVE",
"686 753 CURVE SMOOTH"
);
}
);
};
layerId = "055178C8-6F6F-4B48-86C1-608D4439D248";
paths = (
{
closed = 1;
nodes = (
"889 300 LINE",
"526 300 LINE",
"772 1462 LINE",
"424 1462 LINE",
"115 0 LINE",
"825 0 LINE"
);
},
{
closed = 1;
nodes = (
"686 650 OFFCURVE",
"743 600 OFFCURVE",
"862 600 CURVE SMOOTH",
"997 600 OFFCURVE",
"1070 664 OFFCURVE",
"1070 777 CURVE SMOOTH",
"1070 877 OFFCURVE",
"1013 928 OFFCURVE",
"890 928 CURVE SMOOTH",
"761 928 OFFCURVE",
"686 872 OFFCURVE",
"686 753 CURVE SMOOTH"
);
}
);
width = 871;
},
{
background = {
paths = (
{
closed = 1;
nodes = (
"969 319 LINE",
"492 319 LINE",
"733 1462 LINE",
"342 1462 LINE",
"33 0 LINE",
"901 0 LINE"
);
},
{
closed = 1;
nodes = (
"716 641 OFFCURVE",
"774 593 OFFCURVE",
"907 593 CURVE SMOOTH",
"1058 593 OFFCURVE",
"1134 663 OFFCURVE",
"1134 802 CURVE SMOOTH",
"1134 893 OFFCURVE",
"1071 943 OFFCURVE",
"944 943 CURVE SMOOTH",
"792 943 OFFCURVE",
"716 873 OFFCURVE",
"716 734 CURVE SMOOTH"
);
}
);
};
layerId = "0B5E954E-D3E5-4A16-AD17-8B1BCB8BDBD4";
paths = (
{
closed = 1;
nodes = (
"969 319 LINE",
"492 319 LINE",
"733 1462 LINE",
"342 1462 LINE",
"33 0 LINE",
"901 0 LINE"
);
},
{
closed = 1;
nodes = (
"716 641 OFFCURVE",
"774 593 OFFCURVE",
"907 593 CURVE SMOOTH",
"1058 593 OFFCURVE",
"1134 663 OFFCURVE",
"1134 802 CURVE SMOOTH",
"1134 893 OFFCURVE",
"1071 943 OFFCURVE",
"944 943 CURVE SMOOTH",
"792 943 OFFCURVE",
"716 873 OFFCURVE",
"716 734 CURVE SMOOTH"
);
}
);
width = 1079;
}
);
leftKerningGroup = H;
note = Ldot;
rightKerningGroup = L;
unicode = 013F;
},
{
glyphname = Lslash;
layers = (
{
background = {
paths = (
{
closed = 1;
nodes = (
"846 96 LINE",
"225 96 LINE",
"328 588 LINE",
"682 801 LINE",
"639 877 LINE",
"354 707 LINE",
"514 1462 LINE",
"412 1462 LINE",
"238 641 LINE",
"39 522 LINE",
"78 444 LINE",
"213 524 LINE",
"100 0 LINE",
"823 0 LINE"
);
}
);
};
layerId = "4C802D5D-2BAD-4759-8C93-835BB7B64EA1";
paths = (
{
closed = 1;
nodes = (
"823 0 LINE",
"846 96 LINE",
"225 96 LINE",
"328 588 LINE",
"682 801 LINE",
"639 877 LINE",
"354 707 LINE",
"514 1462 LINE",
"412 1462 LINE",
"238 641 LINE",
"39 522 LINE",
"78 444 LINE",
"213 524 LINE",
"100 0 LINE"
);
}
);
width = 922;
},
{
background = {
paths = (
{
closed = 1;
nodes = (
"543 94 LINE",
"184 94 LINE",
"293 614 LINE",
"580 780 LINE",
"543 856 LINE",
"317 725 LINE",
"473 1462 LINE",
"375 1462 LINE",
"205 659 LINE",
"16 551 LINE",
"51 475 LINE",
"182 551 LINE",
"66 0 LINE",
"524 0 LINE"
);
}
);
};
layerId = "9047BFCD-DDCC-4357-AC30-29E5270711EF";
paths = (
{
closed = 1;
nodes = (
"524 0 LINE",
"543 94 LINE",
"184 94 LINE",
"293 614 LINE",
"580 780 LINE",
"543 856 LINE",
"317 725 LINE",
"473 1462 LINE",
"375 1462 LINE",
"205 659 LINE",
"16 551 LINE",
"51 475 LINE",
"182 551 LINE",
"66 0 LINE"
);
}
);
width = 639;
},
{
background = {
paths = (
{
closed = 1;
nodes = (
"946 300 LINE",
"585 300 LINE",
"679 729 LINE",
"931 903 LINE",
"816 1117 LINE",
"740 1055 LINE",
"831 1462 LINE",
"484 1462 LINE",
"340 797 LINE",
"110 645 LINE",
"219 426 LINE",
"279 471 LINE",
"175 0 LINE",
"882 0 LINE"
);
}
);
};
layerId = "055178C8-6F6F-4B48-86C1-608D4439D248";
paths = (
{
closed = 1;
nodes = (
"882 0 LINE",
"946 300 LINE",
"585 300 LINE",
"679 729 LINE",
"931 903 LINE",
"816 1117 LINE",
"740 1055 LINE",
"831 1462 LINE",
"484 1462 LINE",
"340 797 LINE",
"110 645 LINE",
"219 426 LINE",
"279 471 LINE",
"175 0 LINE"
);
}
);
width = 930;
},
{
background = {
paths = (
{
closed = 1;
nodes = (
"-47 688 LINE",
"78 446 LINE",
"156 485 LINE",
"53 0 LINE",
"922 0 LINE",
"989 319 LINE",
"512 319 LINE",
"590 692 LINE",
"967 889 LINE",
"836 1133 LINE",
"664 1042 LINE",
"754 1462 LINE",
"362 1462 LINE",
"227 834 LINE"
);
}
);
};
layerId = "0B5E954E-D3E5-4A16-AD17-8B1BCB8BDBD4";
paths = (
{
closed = 1;
nodes = (
"922 0 LINE",
"989 319 LINE",
"512 319 LINE",
"590 692 LINE",
"967 889 LINE",
"836 1133 LINE",
"664 1042 LINE",
"754 1462 LINE",
"362 1462 LINE",
"227 834 LINE",
"-47 688 LINE",
"78 446 LINE",
"156 485 LINE",
"53 0 LINE"
);
}
);
width = 1100;
}
);
leftKerningGroup = H;
note = Lslash;
rightKerningGroup = L;
unicode = 0141;
},
{
glyphname = M;
layers = (
{
anchors = (
{
name = bottom;
position = "{719, 0}";
},
{
name = top;
position = "{1030, 1462}";
}
);
background = {
anchors = (
{
name = bottom;
position = "{719, 0}";
},
{
name = top;
position = "{1030, 1462}";
}
);
paths = (
{
closed = 1;
nodes = (
"561 1462 LINE",
"418 1462 LINE",
"109 0 LINE",
"205 0 LINE",
"401 922 LINE SMOOTH",
"440 1103 OFFCURVE",
"466 1245 OFFCURVE",
"479 1348 CURVE",
"485 1348 LINE",
"707 0 LINE",
"758 0 LINE",
"1538 1348 LINE",
"1544 1348 LINE",
"1530 1296 OFFCURVE",
"1497 1147 OFFCURVE",
"1444 901 CURVE SMOOTH",
"1253 0 LINE",
"1354 0 LINE",
"1655 1462 LINE",
"1505 1462 LINE",
"772 205 LINE",
"766 205 LINE"
);
}
);
};
layerId = "4C802D5D-2BAD-4759-8C93-835BB7B64EA1";
paths = (
{
closed = 1;
nodes = (
"205 0 LINE",
"401 922 LINE SMOOTH",
"440 1103 OFFCURVE",
"466 1245 OFFCURVE",
"479 1348 CURVE",
"485 1348 LINE",
"707 0 LINE",
"758 0 LINE",
"1538 1348 LINE",
"1544 1348 LINE",
"1530 1296 OFFCURVE",
"1497 1147 OFFCURVE",
"1444 901 CURVE SMOOTH",
"1253 0 LINE",
"1354 0 LINE",
"1655 1462 LINE",
"1505 1462 LINE",
"891 409 LINE",
"851 341 OFFCURVE",
"812 273 OFFCURVE",
"772 205 CURVE",
"766 205 LINE",
"755 274 OFFCURVE",
"743 342 OFFCURVE",
"732 411 CURVE",
"561 1462 LINE",
"418 1462 LINE",
"109 0 LINE"
);
}
);
width = 1669;
},
{
anchors = (
{
name = bottom;
position = "{513, 0}";
},
{
name = top;
position = "{863, 1462}";
}
);
background = {
anchors = (
{
name = bottom;
position = "{513, 0}";
},
{
name = top;
position = "{863, 1462}";
}
);
paths = (
{
closed = 1;
nodes = (
"1217 1329 LINE",
"1221 1329 LINE",
"1204 1260 OFFCURVE",
"1187 1191 OFFCURVE",
"1172 1122 CURVE SMOOTH",
"934 0 LINE",
"1034 0 LINE",
"1343 1462 LINE",
"1174 1462 LINE",
"680 352 LINE SMOOTH",
"618 214 OFFCURVE",
"589 147 OFFCURVE",
"573 102 CURVE",
"571 102 LINE",
"572 128 OFFCURVE",
"573 154 OFFCURVE",
"573 184 CURVE SMOOTH",
"573 212 OFFCURVE",
"571 283 OFFCURVE",
"569 354 CURVE SMOOTH",
"535 1462 LINE",
"375 1462 LINE",
"66 0 LINE",
"162 0 LINE",
"392 1091 LINE SMOOTH",
"409 1171 OFFCURVE",
"423 1251 OFFCURVE",
"436 1331 CURVE",
"442 1331 LINE",
"494 0 LINE",
"621 0 LINE"
);
}
);
};
layerId = "9047BFCD-DDCC-4357-AC30-29E5270711EF";
paths = (
{
closed = 1;
nodes = (
"162 0 LINE",
"392 1091 LINE SMOOTH",
"409 1171 OFFCURVE",
"423 1251 OFFCURVE",
"436 1331 CURVE",
"442 1331 LINE",
"494 0 LINE",
"621 0 LINE",
"1217 1329 LINE",
"1221 1329 LINE",
"1204 1260 OFFCURVE",
"1187 1191 OFFCURVE",
"1172 1122 CURVE SMOOTH",
"934 0 LINE",
"1034 0 LINE",
"1343 1462 LINE",
"1174 1462 LINE",
"680 352 LINE SMOOTH",
"618 214 OFFCURVE",
"589 147 OFFCURVE",
"573 102 CURVE",
"571 102 LINE",
"574 183 OFFCURVE",
"572 250 OFFCURVE",
"569 354 CURVE SMOOTH",
"535 1462 LINE",
"375 1462 LINE",
"66 0 LINE"
);
}
);
width = 1255;
},
{
anchors = (
{
name = bottom;
position = "{721, 0}";
},
{
name = top;
position = "{1069, 1462}";
}
);
background = {
anchors = (
{
name = bottom;
position = "{721, 0}";
},
{
name = top;
position = "{1069, 1462}";
}
);
paths = (
{
closed = 1;
nodes = (
"1413 1221 LINE",
"1420 1222 LINE",
"1389 1145 OFFCURVE",
"1362 1058 OFFCURVE",
"1342 961 CURVE SMOOTH",
"1139 0 LINE",
"1460 0 LINE",
"1770 1462 LINE",
"1231 1462 LINE",
"918 677 LINE SMOOTH",
"887 598 OFFCURVE",
"844 485 OFFCURVE",
"810 394 CURVE",
"802 394 LINE",
"805 435 OFFCURVE",
"813 606 OFFCURVE",
"815 649 CURVE SMOOTH",
"817 689 OFFCURVE",
"818 729 OFFCURVE",
"819 770 CURVE SMOOTH",
"840 1462 LINE",
"305 1462 LINE",
"-4 0 LINE",
"317 0 LINE",
"515 931 LINE SMOOTH",
"536 1028 OFFCURVE",
"553 1130 OFFCURVE",
"559 1207 CURVE",
"568 1208 LINE",
"539 0 LINE",
"921 0 LINE"
);
}
);
};
layerId = "055178C8-6F6F-4B48-86C1-608D4439D248";
paths = (
{
closed = 1;
nodes = (
"317 0 LINE",
"515 931 LINE SMOOTH",
"536 1028 OFFCURVE",
"553 1130 OFFCURVE",
"559 1207 CURVE",
"568 1208 LINE",
"539 0 LINE",
"921 0 LINE",
"1413 1221 LINE",
"1420 1222 LINE",
"1389 1145 OFFCURVE",
"1362 1058 OFFCURVE",
"1342 961 CURVE SMOOTH",
"1139 0 LINE",
"1460 0 LINE",
"1770 1462 LINE",
"1231 1462 LINE",
"918 677 LINE SMOOTH",
"887 598 OFFCURVE",
"844 485 OFFCURVE",
"810 394 CURVE",
"802 394 LINE",
"806 452 OFFCURVE",
"817 695 OFFCURVE",
"819 770 CURVE SMOOTH",
"840 1462 LINE",
"305 1462 LINE",
"-4 0 LINE"
);
}
);
width = 1694;
},
{
anchors = (
{
name = bottom;
position = "{811, 0}";
},
{
name = top;
position = "{1121, 1462}";
}
);
background = {
anchors = (
{
name = bottom;
position = "{811, 0}";
},
{
name = top;
position = "{1121, 1462}";
}
);
paths = (
{
closed = 1;
nodes = (
"1440 1049 LINE",
"1448 1049 LINE",
"1433 985 LINE",
"1394 846 OFFCURVE",
"1358 701 OFFCURVE",
"1325 549 CURVE SMOOTH",
"1208 0 LINE",
"1559 0 LINE",
"1872 1462 LINE",
"1346 1462 LINE",
"868 424 LINE",
"860 424 LINE",
"860 1462 LINE",
"342 1462 LINE",
"33 0 LINE",
"381 0 LINE",
"494 537 LINE SMOOTH",
"507 600 OFFCURVE",
"535 771 OFFCURVE",
"580 1049 CURVE",
"588 1049 LINE",
"588 0 LINE",
"958 0 LINE"
);
}
);
};
layerId = "0B5E954E-D3E5-4A16-AD17-8B1BCB8BDBD4";
paths = (
{
closed = 1;
nodes = (
"381 0 LINE",
"494 537 LINE SMOOTH",
"507 600 OFFCURVE",
"535 771 OFFCURVE",
"580 1049 CURVE",
"588 1049 LINE",
"588 0 LINE",
"958 0 LINE",
"1440 1049 LINE",
"1448 1049 LINE",
"1400 870 OFFCURVE",
"1352 672 OFFCURVE",
"1325 549 CURVE SMOOTH",
"1208 0 LINE",
"1559 0 LINE",
"1872 1462 LINE",
"1346 1462 LINE",
"947 596 LINE",
"921 539 OFFCURVE",
"894 481 OFFCURVE",
"868 424 CURVE",
"860 424 LINE",
"860 483 OFFCURVE",
"860 541 OFFCURVE",
"860 600 CURVE",
"860 1462 LINE",
"342 1462 LINE",
"33 0 LINE"
);
}
);
width = 1862;
}
);
leftKerningGroup = M;
rightKerningGroup = M;
unicode = 004D;
},
{
glyphname = N;
layers = (
{
anchors = (
{
name = bottom;
position = "{570, 0}";
},
{
name = top;
position = "{881, 1462}";
}
);
background = {
anchors = (
{
name = bottom;
position = "{570, 0}";
},
{
name = top;
position = "{881, 1462}";
}
);
paths = (
{
closed = 1;
nodes = (
"1284 1462 LINE",
"1096 584 LINE SMOOTH",
"1062 424 OFFCURVE",
"1037 285 OFFCURVE",
"1022 168 CURVE",
"1014 168 LINE",
"492 1462 LINE",
"412 1462 LINE",
"102 0 LINE",
"197 0 LINE",
"323 591 OFFCURVE",
"394 928 OFFCURVE",
"411 1011 CURVE SMOOTH",
"428 1094 OFFCURVE",
"444 1185 OFFCURVE",
"459 1284 CURVE",
"467 1284 LINE",
"983 0 LINE",
"1069 0 LINE",
"1378 1462 LINE"
);
}
);
};
layerId = "4C802D5D-2BAD-4759-8C93-835BB7B64EA1";
paths = (
{
closed = 1;
nodes = (
"197 0 LINE",
"411 1011 LINE",
"428 1094 OFFCURVE",
"444 1185 OFFCURVE",
"459 1284 CURVE",
"467 1284 LINE",
"983 0 LINE",
"1069 0 LINE",
"1378 1462 LINE",
"1284 1462 LINE",
"1096 584 LINE SMOOTH",
"1062 424 OFFCURVE",
"1037 285 OFFCURVE",
"1022 168 CURVE",
"1014 168 LINE",
"492 1462 LINE",
"412 1462 LINE",
"102 0 LINE"
);
}
);
width = 1372;
},
{
anchors = (
{
name = bottom;
position = "{376, 0}";
},
{
name = top;
position = "{756, 1462}";
}
);
background = {
anchors = (
{
name = bottom;
position = "{376, 0}";
},
{
name = top;
position = "{756, 1462}";
}
);
paths = (
{
closed = 1;
nodes = (
"971 1462 LINE",
"754 440 LINE SMOOTH",
"740 374 OFFCURVE",
"729 311 OFFCURVE",
"705 166 CURVE",
"698 166 LINE",
"506 1462 LINE",
"375 1462 LINE",
"66 0 LINE",
"164 0 LINE",
"385 1049 LINE SMOOTH",
"406 1147 OFFCURVE",
"421 1234 OFFCURVE",
"430 1311 CURVE",
"438 1311 LINE",
"639 0 LINE",
"760 0 LINE",
"1069 1462 LINE"
);
}
);
};
layerId = "9047BFCD-DDCC-4357-AC30-29E5270711EF";
paths = (
{
closed = 1;
nodes = (
"164 0 LINE",
"385 1049 LINE SMOOTH",
"406 1147 OFFCURVE",
"421 1234 OFFCURVE",
"430 1311 CURVE",
"438 1311 LINE",
"639 0 LINE",
"760 0 LINE",
"1069 1462 LINE",
"971 1462 LINE",
"754 440 LINE SMOOTH",
"740 374 OFFCURVE",
"729 311 OFFCURVE",
"705 166 CURVE",
"698 166 LINE",
"506 1462 LINE",
"375 1462 LINE",
"66 0 LINE"
);
}
);
width = 981;
},
{
anchors = (
{
name = bottom;
position = "{516, 0}";
},
{
name = top;
position = "{944, 1462}";
}
);
background = {
anchors = (
{
name = bottom;
position = "{516, 0}";
},
{
name = top;
position = "{944, 1462}";
}
);
paths = (
{
closed = 1;
nodes = (
"1122 1462 LINE",
"976 775 LINE SMOOTH",
"953 667 OFFCURVE",
"939 573 OFFCURVE",
"935 520 CURVE",
"927 520 LINE",
"724 1462 LINE",
"305 1462 LINE",
"-4 0 LINE",
"315 0 LINE",
"459 676 LINE SMOOTH",
"480 773 OFFCURVE",
"497 874 OFFCURVE",
"502 951 CURVE",
"510 951 LINE",
"714 0 LINE",
"1130 0 LINE",
"1440 1462 LINE"
);
}
);
};
layerId = "055178C8-6F6F-4B48-86C1-608D4439D248";
paths = (
{
closed = 1;
nodes = (
"315 0 LINE",
"459 676 LINE SMOOTH",
"480 773 OFFCURVE",
"497 874 OFFCURVE",
"502 951 CURVE",
"510 951 LINE",
"714 0 LINE",
"1130 0 LINE",
"1440 1462 LINE",
"1122 1462 LINE",
"976 775 LINE SMOOTH",
"953 667 OFFCURVE",
"939 573 OFFCURVE",
"935 520 CURVE",
"927 520 LINE",
"724 1462 LINE",
"305 1462 LINE",
"-4 0 LINE"
);
}
);
width = 1364;
},
{
anchors = (
{
name = bottom;
position = "{689, 0}";
},
{
name = top;
position = "{999, 1462}";
}
);
background = {
anchors = (
{
name = bottom;
position = "{689, 0}";
},
{
name = top;
position = "{999, 1462}";
}
);
paths = (
{
closed = 1;
nodes = (
"1280 1462 LINE",
"1149 850 LINE SMOOTH",
"1130 760 OFFCURVE",
"1111 636 OFFCURVE",
"1092 479 CURVE",
"1083 479 LINE",
"797 1462 LINE",
"342 1462 LINE",
"33 0 LINE",
"381 0 LINE",
"510 610 LINE SMOOTH",
"529 695 OFFCURVE",
"548 834 OFFCURVE",
"567 1028 CURVE",
"575 1028 LINE",
"864 0 LINE",
"1319 0 LINE",
"1628 1462 LINE"
);
}
);
};
layerId = "0B5E954E-D3E5-4A16-AD17-8B1BCB8BDBD4";
paths = (
{
closed = 1;
nodes = (
"381 0 LINE",
"510 610 LINE SMOOTH",
"529 695 OFFCURVE",
"548 834 OFFCURVE",
"567 1028 CURVE",
"575 1028 LINE",
"864 0 LINE",
"1319 0 LINE",
"1628 1462 LINE",
"1280 1462 LINE",
"1149 850 LINE SMOOTH",
"1130 760 OFFCURVE",
"1111 636 OFFCURVE",
"1092 479 CURVE",
"1083 479 LINE",
"797 1462 LINE",
"342 1462 LINE",
"33 0 LINE"
);
}
);
width = 1618;
}
);
leftKerningGroup = H;
rightKerningGroup = H;
unicode = 004E;
},
{
glyphname = Eng;
layers = (
{
background = {
paths = (
{
closed = 1;
nodes = (
"905 -360 OFFCURVE",
"1018 -243 OFFCURVE",
"1073 18 CURVE SMOOTH",
"1378 1462 LINE",
"1284 1462 LINE",
"1096 584 LINE SMOOTH",
"1062 424 OFFCURVE",
"1037 285 OFFCURVE",
"1022 168 CURVE",
"1014 168 LINE",
"492 1462 LINE",
"412 1462 LINE",
"102 0 LINE",
"197 0 LINE",
"323 591 OFFCURVE",
"394 928 OFFCURVE",
"411 1011 CURVE SMOOTH",
"428 1094 OFFCURVE",
"444 1185 OFFCURVE",
"459 1284 CURVE",
"467 1284 LINE",
"973 23 LINE",
"926 -186 OFFCURVE",
"851 -264 OFFCURVE",
"700 -264 CURVE SMOOTH",
"647 -264 OFFCURVE",
"602 -257 OFFCURVE",
"563 -244 CURVE",
"553 -336 LINE",
"572 -345 OFFCURVE",
"647 -360 OFFCURVE",
"696 -360 CURVE SMOOTH"
);
}
);
};
layerId = "4C802D5D-2BAD-4759-8C93-835BB7B64EA1";
paths = (
{
closed = 1;
nodes = (
"814 -360 OFFCURVE",
"902 -323 OFFCURVE",
"965 -243 CURVE SMOOTH",
"1014 -182 OFFCURVE",
"1049 -95 OFFCURVE",
"1073 18 CURVE SMOOTH",
"1378 1462 LINE",
"1284 1462 LINE",
"1096 584 LINE SMOOTH",
"1062 424 OFFCURVE",
"1037 285 OFFCURVE",
"1022 168 CURVE",
"1014 168 LINE",
"492 1462 LINE",
"412 1462 LINE",
"102 0 LINE",
"197 0 LINE",
"411 1011 LINE",
"428 1094 OFFCURVE",
"444 1185 OFFCURVE",
"459 1284 CURVE",
"467 1284 LINE",
"989 -18 LINE",
"982 67 LINE",
"936 -175 OFFCURVE",
"861 -264 OFFCURVE",
"700 -264 CURVE SMOOTH",
"647 -264 OFFCURVE",
"602 -257 OFFCURVE",
"563 -244 CURVE",
"553 -336 LINE",
"572 -345 OFFCURVE",
"647 -360 OFFCURVE",
"696 -360 CURVE SMOOTH"
);
}
);
width = 1380;
},
{
background = {
paths = (
{
closed = 1;
nodes = (
"588 -365 OFFCURVE",
"646 -329 OFFCURVE",
"690 -236 CURVE SMOOTH",
"712 -190 OFFCURVE",
"737 -111 OFFCURVE",
"760 0 CURVE SMOOTH",
"1069 1462 LINE",
"971 1462 LINE",
"739 366 LINE SMOOTH",
"721 282 OFFCURVE",
"711 217 OFFCURVE",
"705 172 CURVE",
"698 172 LINE",
"506 1462 LINE",
"375 1462 LINE",
"66 0 LINE",
"164 0 LINE",
"385 1049 LINE SMOOTH",
"406 1147 OFFCURVE",
"421 1234 OFFCURVE",
"430 1311 CURVE",
"438 1311 LINE",
"652 -69 LINE",
"650 24 LINE",
"633 -175 OFFCURVE",
"582 -262 OFFCURVE",
"487 -262 CURVE SMOOTH",
"445 -262 OFFCURVE",
"411 -255 OFFCURVE",
"385 -240 CURVE",
"365 -336 LINE",
"380 -351 OFFCURVE",
"441 -365 OFFCURVE",
"477 -365 CURVE SMOOTH"
);
}
);
};
layerId = "9047BFCD-DDCC-4357-AC30-29E5270711EF";
paths = (
{
closed = 1;
nodes = (
"588 -365 OFFCURVE",
"646 -329 OFFCURVE",
"690 -236 CURVE SMOOTH",
"712 -190 OFFCURVE",
"737 -111 OFFCURVE",
"760 0 CURVE SMOOTH",
"1069 1462 LINE",
"971 1462 LINE",
"739 366 LINE SMOOTH",
"721 282 OFFCURVE",
"711 217 OFFCURVE",
"705 172 CURVE",
"698 172 LINE",
"506 1462 LINE",
"375 1462 LINE",
"66 0 LINE",
"164 0 LINE",
"385 1049 LINE SMOOTH",
"406 1147 OFFCURVE",
"421 1234 OFFCURVE",
"430 1311 CURVE",
"438 1311 LINE",
"652 -69 LINE",
"650 24 LINE",
"633 -175 OFFCURVE",
"582 -262 OFFCURVE",
"487 -262 CURVE SMOOTH",
"445 -262 OFFCURVE",
"411 -255 OFFCURVE",
"385 -240 CURVE",
"365 -336 LINE",
"380 -351 OFFCURVE",
"441 -365 OFFCURVE",
"477 -365 CURVE SMOOTH"
);
}
);
width = 981;
},
{
background = {
paths = (
{
closed = 1;
nodes = (
"732 -445 OFFCURVE",
"880 -389 OFFCURVE",
"976 -286 CURVE SMOOTH",
"1055 -201 OFFCURVE",
"1113 -85 OFFCURVE",
"1143 59 CURVE SMOOTH",
"1440 1462 LINE",
"1122 1462 LINE",
"976 775 LINE SMOOTH",
"953 667 OFFCURVE",
"939 573 OFFCURVE",
"935 520 CURVE",
"927 520 LINE",
"724 1462 LINE",
"305 1462 LINE",
"-4 0 LINE",
"315 0 LINE",
"459 676 LINE SMOOTH",
"480 773 OFFCURVE",
"497 874 OFFCURVE",
"502 951 CURVE",
"510 951 LINE",
"745 -144 LINE",
"747 110 LINE",
"696 1 OFFCURVE",
"709 -141 OFFCURVE",
"545 -141 CURVE SMOOTH",
"517 -141 OFFCURVE",
"474 -137 OFFCURVE",
"423 -124 CURVE",
"386 -415 LINE",
"427 -432 OFFCURVE",
"490 -445 OFFCURVE",
"585 -445 CURVE SMOOTH"
);
}
);
};
layerId = "055178C8-6F6F-4B48-86C1-608D4439D248";
paths = (
{
closed = 1;
nodes = (
"732 -445 OFFCURVE",
"880 -389 OFFCURVE",
"976 -286 CURVE SMOOTH",
"1055 -201 OFFCURVE",
"1113 -85 OFFCURVE",
"1143 59 CURVE SMOOTH",
"1440 1462 LINE",
"1122 1462 LINE",
"976 775 LINE SMOOTH",
"953 667 OFFCURVE",
"939 573 OFFCURVE",
"935 520 CURVE",
"927 520 LINE",
"724 1462 LINE",
"305 1462 LINE",
"-4 0 LINE",
"315 0 LINE",
"459 676 LINE SMOOTH",
"480 773 OFFCURVE",
"497 874 OFFCURVE",
"502 951 CURVE",
"510 951 LINE",
"745 -144 LINE",
"747 110 LINE",
"696 1 OFFCURVE",
"709 -141 OFFCURVE",
"545 -141 CURVE SMOOTH",
"517 -141 OFFCURVE",
"474 -137 OFFCURVE",
"423 -124 CURVE",
"386 -415 LINE",
"427 -432 OFFCURVE",
"490 -445 OFFCURVE",
"585 -445 CURVE SMOOTH"
);
}
);
width = 1364;
},
{
background = {
paths = (
{
closed = 1;
nodes = (
"1077 -461 OFFCURVE",
"1248 -332 OFFCURVE",
"1319 0 CURVE SMOOTH",
"1628 1462 LINE",
"1280 1462 LINE",
"1197 1076 OFFCURVE",
"1149 847 OFFCURVE",
"1136 776 CURVE SMOOTH",
"1122 704 OFFCURVE",
"1112 642 OFFCURVE",
"1106 590 CURVE",
"1098 590 LINE",
"772 1462 LINE",
"342 1462 LINE",
"33 0 LINE",
"381 0 LINE",
"510 610 LINE SMOOTH",
"529 695 OFFCURVE",
"548 834 OFFCURVE",
"567 1028 CURVE",
"575 1028 LINE",
"961 8 LINE",
"934 -89 OFFCURVE",
"851 -150 OFFCURVE",
"723 -150 CURVE SMOOTH",
"659 -150 OFFCURVE",
"595 -142 OFFCURVE",
"532 -125 CURVE",
"532 -432 LINE",
"603 -451 OFFCURVE",
"674 -461 OFFCURVE",
"745 -461 CURVE SMOOTH"
);
}
);
};
layerId = "0B5E954E-D3E5-4A16-AD17-8B1BCB8BDBD4";
paths = (
{
closed = 1;
nodes = (
"930 -461 OFFCURVE",
"1066 -421 OFFCURVE",
"1161 -327 CURVE SMOOTH",
"1237 -254 OFFCURVE",
"1288 -147 OFFCURVE",
"1319 0 CURVE SMOOTH",
"1628 1462 LINE",
"1280 1462 LINE",
"1136 776 LINE",
"1122 704 OFFCURVE",
"1112 642 OFFCURVE",
"1106 590 CURVE",
"1098 590 LINE",
"772 1462 LINE",
"342 1462 LINE",
"33 0 LINE",
"381 0 LINE",
"510 610 LINE SMOOTH",
"529 695 OFFCURVE",
"548 834 OFFCURVE",
"567 1028 CURVE",
"575 1028 LINE",
"1017 -139 LINE",
"969 118 LINE",
"985 -40 OFFCURVE",
"895 -150 OFFCURVE",
"723 -150 CURVE SMOOTH",
"659 -150 OFFCURVE",
"595 -142 OFFCURVE",
"532 -125 CURVE",
"532 -432 LINE",
"603 -451 OFFCURVE",
"674 -461 OFFCURVE",
"745 -461 CURVE SMOOTH"
);
}
);
width = 1618;
}
);
leftKerningGroup = Eng;
note = Eng;
rightKerningGroup = Eng;
unicode = 014A;
},
{
glyphname = O;
layers = (
{
anchors = (
{
name = bottom;
position = "{616, 0}";
},
{
name = center;
position = "{772, 731}";
},
{
name = ogonek;
position = "{1202, 10}";
},
{
name = tonos;
position = "{451, 1578}";
},
{
name = top;
position = "{927, 1462}";
},
{
name = topright;
position = "{1639, 1462}";
}
);
background = {
anchors = (
{
name = bottom;
position = "{616, 0}";
},
{
name = center;
position = "{772, 731}";
},
{
name = ogonek;
position = "{1202, 10}";
},
{
name = top;
position = "{927, 1462}";
},
{
name = topleft;
position = "{215, 1462}";
},
{
name = topright;
position = "{1639, 1462}";
}
);
paths = (
{
closed = 1;
nodes = (
"1403 1278 OFFCURVE",
"1222 1483 OFFCURVE",
"893 1483 CURVE SMOOTH",
"752 1483 OFFCURVE",
"628 1445 OFFCURVE",
"520 1368 CURVE SMOOTH",
"304 1214 OFFCURVE",
"172 908 OFFCURVE",
"172 559 CURVE SMOOTH",
"172 184 OFFCURVE",
"359 -20 OFFCURVE",
"692 -20 CURVE SMOOTH",
"830 -20 OFFCURVE",
"952 17 OFFCURVE",
"1057 92 CURVE SMOOTH",
"1268 240 OFFCURVE",
"1403 571 OFFCURVE",
"1403 911 CURVE SMOOTH"
);
},
{
closed = 1;
nodes = (
"1154 1389 OFFCURVE",
"1294 1221 OFFCURVE",
"1294 901 CURVE SMOOTH",
"1294 748 OFFCURVE",
"1268 605 OFFCURVE",
"1215 471 CURVE SMOOTH",
"1110 202 OFFCURVE",
"930 72 OFFCURVE",
"705 72 CURVE SMOOTH",
"425 72 OFFCURVE",
"276 246 OFFCURVE",
"276 573 CURVE SMOOTH",
"276 720 OFFCURVE",
"303 859 OFFCURVE",
"356 990 CURVE SMOOTH",
"463 1253 OFFCURVE",
"647 1389 OFFCURVE",
"879 1389 CURVE SMOOTH"
);
}
);
};
layerId = "4C802D5D-2BAD-4759-8C93-835BB7B64EA1";
paths = (
{
closed = 1;
nodes = (
"830 -20 OFFCURVE",
"952 17 OFFCURVE",
"1057 92 CURVE SMOOTH",
"1268 240 OFFCURVE",
"1403 571 OFFCURVE",
"1403 911 CURVE SMOOTH",
"1403 1278 OFFCURVE",
"1222 1483 OFFCURVE",
"893 1483 CURVE SMOOTH",
"752 1483 OFFCURVE",
"628 1445 OFFCURVE",
"520 1368 CURVE SMOOTH",
"304 1214 OFFCURVE",
"172 908 OFFCURVE",
"172 559 CURVE SMOOTH",
"172 184 OFFCURVE",
"359 -20 OFFCURVE",
"692 -20 CURVE SMOOTH"
);
},
{
closed = 1;
nodes = (
"425 72 OFFCURVE",
"276 246 OFFCURVE",
"276 573 CURVE SMOOTH",
"276 720 OFFCURVE",
"303 859 OFFCURVE",
"356 990 CURVE SMOOTH",
"463 1253 OFFCURVE",
"647 1389 OFFCURVE",
"879 1389 CURVE SMOOTH",
"1154 1389 OFFCURVE",
"1294 1221 OFFCURVE",
"1294 901 CURVE SMOOTH",
"1294 748 OFFCURVE",
"1268 605 OFFCURVE",
"1215 471 CURVE SMOOTH",
"1110 202 OFFCURVE",
"930 72 OFFCURVE",
"705 72 CURVE SMOOTH"
);
}
);
width = 1464;
},
{
anchors = (
{
name = bottom;
position = "{404, 0}";
},
{
name = center;
position = "{519, 731}";
},
{
name = ogonek;
position = "{467, 10}";
},
{
name = tonos;
position = "{451, 1578}";
},
{
name = top;
position = "{711, 1462}";
},
{
name = topright;
position = "{1133, 1462}";
}
);
background = {
anchors = (
{
name = bottom;
position = "{404, 0}";
},
{
name = center;
position = "{519, 731}";
},
{
name = ogonek;
position = "{467, 10}";
},
{
name = tonos;
position = "{501, 1578}";
},
{
name = top;
position = "{711, 1462}";
},
{
name = topleft;
position = "{215, 1462}";
},
{
name = topright;
position = "{1133, 1462}";
}
);
paths = (
{
closed = 1;
nodes = (
"599 -20 OFFCURVE",
"736 145 OFFCURVE",
"827 351 CURVE SMOOTH",
"919 559 OFFCURVE",
"977 836 OFFCURVE",
"977 1100 CURVE SMOOTH",
"977 1355 OFFCURVE",
"885 1483 OFFCURVE",
"702 1483 CURVE SMOOTH",
"545 1483 OFFCURVE",
"410 1381 OFFCURVE",
"306 1170 CURVE SMOOTH",
"201 958 OFFCURVE",
"135 640 OFFCURVE",
"135 379 CURVE SMOOTH",
"135 113 OFFCURVE",
"227 -20 OFFCURVE",
"412 -20 CURVE SMOOTH"
);
},
{
closed = 1;
nodes = (
"233 597 OFFCURVE",
"291 899 OFFCURVE",
"376 1095 CURVE SMOOTH",
"461 1291 OFFCURVE",
"571 1389 OFFCURVE",
"692 1389 CURVE SMOOTH",
"817 1389 OFFCURVE",
"879 1293 OFFCURVE",
"879 1100 CURVE SMOOTH",
"879 879 OFFCURVE",
"822 584 OFFCURVE",
"738 385 CURVE SMOOTH",
"654 185 OFFCURVE",
"543 74 OFFCURVE",
"420 74 CURVE SMOOTH",
"295 74 OFFCURVE",
"233 175 OFFCURVE",
"233 377 CURVE SMOOTH"
);
}
);
};
layerId = "9047BFCD-DDCC-4357-AC30-29E5270711EF";
paths = (
{
closed = 1;
nodes = (
"599 -20 OFFCURVE",
"736 145 OFFCURVE",
"827 351 CURVE SMOOTH",
"919 559 OFFCURVE",
"977 836 OFFCURVE",
"977 1100 CURVE SMOOTH",
"977 1355 OFFCURVE",
"885 1483 OFFCURVE",
"702 1483 CURVE SMOOTH",
"545 1483 OFFCURVE",
"410 1381 OFFCURVE",
"306 1170 CURVE SMOOTH",
"201 958 OFFCURVE",
"135 640 OFFCURVE",
"135 379 CURVE SMOOTH",
"135 113 OFFCURVE",
"227 -20 OFFCURVE",
"412 -20 CURVE SMOOTH"
);
},
{
closed = 1;
nodes = (
"295 74 OFFCURVE",
"233 175 OFFCURVE",
"233 377 CURVE SMOOTH",
"233 597 OFFCURVE",
"291 899 OFFCURVE",
"376 1095 CURVE SMOOTH",
"461 1291 OFFCURVE",
"571 1389 OFFCURVE",
"692 1389 CURVE SMOOTH",
"817 1389 OFFCURVE",
"879 1293 OFFCURVE",
"879 1100 CURVE SMOOTH",
"879 879 OFFCURVE",
"822 584 OFFCURVE",
"738 385 CURVE SMOOTH",
"654 185 OFFCURVE",
"543 74 OFFCURVE",
"420 74 CURVE SMOOTH"
);
}
);
width = 958;
},
{
anchors = (
{
name = bottom;
position = "{524, 0}";
},
{
name = center;
position = "{539, 731}";
},
{
name = ogonek;
position = "{707, 10}";
},
{
name = tonos;
position = "{401, 1578}";
},
{
name = top;
position = "{865, 1462}";
},
{
name = topright;
position = "{1177, 1462}";
}
);
background = {
anchors = (
{
name = bottom;
position = "{524, 0}";
},
{
name = center;
position = "{539, 731}";
},
{
name = ogonek;
position = "{707, 10}";
},
{
name = tonos;
position = "{501, 1578}";
},
{
name = top;
position = "{865, 1462}";
},
{
name = topleft;
position = "{-68, 1462}";
},
{
name = topright;
position = "{1177, 1462}";
}
);
paths = (
{
closed = 1;
nodes = (
"897 -20 OFFCURVE",
"1143 234 OFFCURVE",
"1243 704 CURVE SMOOTH",
"1265 806 OFFCURVE",
"1275 899 OFFCURVE",
"1275 983 CURVE SMOOTH",
"1275 1308 OFFCURVE",
"1116 1486 OFFCURVE",
"815 1486 CURVE SMOOTH",
"463 1486 OFFCURVE",
"213 1225 OFFCURVE",
"115 764 CURVE SMOOTH",
"93 660 OFFCURVE",
"82 566 OFFCURVE",
"82 482 CURVE SMOOTH",
"82 156 OFFCURVE",
"244 -20 OFFCURVE",
"545 -20 CURVE SMOOTH"
);
},
{
closed = 1;
nodes = (
"427 544 OFFCURVE",
"437 615 OFFCURVE",
"456 704 CURVE SMOOTH",
"521 1014 OFFCURVE",
"650 1183 OFFCURVE",
"802 1183 CURVE SMOOTH",
"895 1183 OFFCURVE",
"931 1120 OFFCURVE",
"931 999 CURVE SMOOTH",
"931 932 OFFCURVE",
"920 858 OFFCURVE",
"900 762 CURVE SMOOTH",
"835 449 OFFCURVE",
"706 284 OFFCURVE",
"559 284 CURVE SMOOTH",
"467 284 OFFCURVE",
"427 350 OFFCURVE",
"427 479 CURVE SMOOTH"
);
}
);
};
layerId = "055178C8-6F6F-4B48-86C1-608D4439D248";
paths = (
{
closed = 1;
nodes = (
"725 -20 OFFCURVE",
"877 46 OFFCURVE",
"996 174 CURVE SMOOTH",
"1173 363 OFFCURVE",
"1275 710 OFFCURVE",
"1275 983 CURVE SMOOTH",
"1275 1308 OFFCURVE",
"1116 1486 OFFCURVE",
"815 1486 CURVE SMOOTH",
"622 1486 OFFCURVE",
"460 1408 OFFCURVE",
"337 1262 CURVE SMOOTH",
"177 1070 OFFCURVE",
"82 741 OFFCURVE",
"82 482 CURVE SMOOTH",
"82 156 OFFCURVE",
"244 -20 OFFCURVE",
"545 -20 CURVE SMOOTH"
);
},
{
closed = 1;
nodes = (
"467 284 OFFCURVE",
"427 350 OFFCURVE",
"427 479 CURVE SMOOTH",
"427 618 OFFCURVE",
"480 850 OFFCURVE",
"548 980 CURVE SMOOTH",
"616 1113 OFFCURVE",
"704 1183 OFFCURVE",
"802 1183 CURVE SMOOTH",
"895 1183 OFFCURVE",
"931 1120 OFFCURVE",
"931 999 CURVE SMOOTH",
"931 838 OFFCURVE",
"865 568 OFFCURVE",
"778 432 CURVE SMOOTH",
"716 334 OFFCURVE",
"640 284 OFFCURVE",
"559 284 CURVE SMOOTH"
);
}
);
width = 1285;
},
{
anchors = (
{
name = bottom;
position = "{635, 0}";
},
{
name = center;
position = "{790, 731}";
},
{
name = ogonek;
position = "{1238, 10}";
},
{
name = tonos;
position = "{451, 1578}";
},
{
name = top;
position = "{945, 1462}";
},
{
name = topright;
position = "{1679, 1462}";
}
);
background = {
anchors = (
{
name = bottom;
position = "{635, 0}";
},
{
name = center;
position = "{790, 731}";
},
{
name = ogonek;
position = "{1238, 10}";
},
{
name = top;
position = "{945, 1462}";
},
{
name = topleft;
position = "{210, 1462}";
},
{
name = topright;
position = "{1679, 1462}";
}
);
paths = (
{
closed = 1;
nodes = (
"742 1485 OFFCURVE",
"606 1446 OFFCURVE",
"488 1369 CURVE SMOOTH",
"251 1213 OFFCURVE",
"104 896 OFFCURVE",
"104 543 CURVE SMOOTH",
"104 190 OFFCURVE",
"307 -20 OFFCURVE",
"666 -20 CURVE SMOOTH",
"820 -20 OFFCURVE",
"955 19 OFFCURVE",
"1072 98 CURVE SMOOTH",
"1305 254 OFFCURVE",
"1446 567 OFFCURVE",
"1446 922 CURVE SMOOTH",
"1446 1277 OFFCURVE",
"1244 1485 OFFCURVE",
"897 1485 CURVE SMOOTH"
);
},
{
closed = 1;
nodes = (
"1051 807 OFFCURVE",
"1036 704 OFFCURVE",
"1005 610 CURVE SMOOTH",
"943 422 OFFCURVE",
"827 303 OFFCURVE",
"700 303 CURVE SMOOTH",
"567 303 OFFCURVE",
"500 384 OFFCURVE",
"500 545 CURVE SMOOTH",
"500 648 OFFCURVE",
"517 748 OFFCURVE",
"550 846 CURVE SMOOTH",
"616 1042 OFFCURVE",
"732 1161 OFFCURVE",
"864 1161 CURVE SMOOTH",
"985 1161 OFFCURVE",
"1051 1070 OFFCURVE",
"1051 918 CURVE SMOOTH"
);
}
);
};
layerId = "0B5E954E-D3E5-4A16-AD17-8B1BCB8BDBD4";
paths = (
{
closed = 1;
nodes = (
"820 -20 OFFCURVE",
"955 19 OFFCURVE",
"1072 98 CURVE SMOOTH",
"1305 254 OFFCURVE",
"1446 567 OFFCURVE",
"1446 922 CURVE SMOOTH",
"1446 1277 OFFCURVE",
"1244 1485 OFFCURVE",
"897 1485 CURVE SMOOTH",
"742 1485 OFFCURVE",
"606 1446 OFFCURVE",
"488 1369 CURVE SMOOTH",
"251 1213 OFFCURVE",
"104 896 OFFCURVE",
"104 543 CURVE SMOOTH",
"104 190 OFFCURVE",
"307 -20 OFFCURVE",
"666 -20 CURVE SMOOTH"
);
},
{
closed = 1;
nodes = (
"567 303 OFFCURVE",
"500 384 OFFCURVE",
"500 545 CURVE SMOOTH",
"500 648 OFFCURVE",
"517 748 OFFCURVE",
"550 846 CURVE SMOOTH",
"616 1042 OFFCURVE",
"732 1161 OFFCURVE",
"864 1161 CURVE SMOOTH",
"985 1161 OFFCURVE",
"1051 1070 OFFCURVE",
"1051 918 CURVE SMOOTH",
"1051 807 OFFCURVE",
"1036 704 OFFCURVE",
"1005 610 CURVE SMOOTH",
"943 422 OFFCURVE",
"827 303 OFFCURVE",
"700 303 CURVE SMOOTH"
);
}
);
width = 1509;
}
);
leftKerningGroup = O;
rightKerningGroup = O;
unicode = 004F;
},
{
glyphname = Ohorn;
layers = (
{
anchors = (
{
name = bottom;
position = "{616, 0}";
},
{
name = top;
position = "{927, 1462}";
}
);
background = {
anchors = (
{
name = bottom;
position = "{616, 0}";
},
{
name = top;
position = "{927, 1462}";
}
);
paths = (
{
closed = 1;
nodes = (
"1403 1019 OFFCURVE",
"1388 1113 OFFCURVE",
"1358 1194 CURVE",
"1526 1259 OFFCURVE",
"1628 1374 OFFCURVE",
"1663 1538 CURVE",
"1651 1556 LINE",
"1546 1556 LINE",
"1521 1405 OFFCURVE",
"1457 1321 OFFCURVE",
"1321 1266 CURVE",
"1233 1411 OFFCURVE",
"1084 1483 OFFCURVE",
"893 1483 CURVE SMOOTH",
"752 1483 OFFCURVE",
"628 1445 OFFCURVE",
"520 1368 CURVE SMOOTH",
"304 1214 OFFCURVE",
"172 908 OFFCURVE",
"172 559 CURVE SMOOTH",
"172 184 OFFCURVE",
"359 -20 OFFCURVE",
"692 -20 CURVE SMOOTH",
"830 -20 OFFCURVE",
"952 17 OFFCURVE",
"1057 92 CURVE SMOOTH",
"1268 240 OFFCURVE",
"1403 571 OFFCURVE",
"1403 911 CURVE SMOOTH"
);
},
{
closed = 1;
nodes = (
"1154 1389 OFFCURVE",
"1294 1221 OFFCURVE",
"1294 901 CURVE SMOOTH",
"1294 748 OFFCURVE",
"1268 605 OFFCURVE",
"1215 471 CURVE SMOOTH",
"1110 202 OFFCURVE",
"930 72 OFFCURVE",
"705 72 CURVE SMOOTH",
"425 72 OFFCURVE",
"276 246 OFFCURVE",
"276 573 CURVE SMOOTH",
"276 720 OFFCURVE",
"303 859 OFFCURVE",
"356 990 CURVE SMOOTH",
"463 1253 OFFCURVE",
"647 1389 OFFCURVE",
"879 1389 CURVE SMOOTH"
);
}
);
};
layerId = "4C802D5D-2BAD-4759-8C93-835BB7B64EA1";
paths = (
{
closed = 1;
nodes = (
"830 -20 OFFCURVE",
"952 17 OFFCURVE",
"1057 92 CURVE SMOOTH",
"1268 240 OFFCURVE",
"1403 571 OFFCURVE",
"1403 911 CURVE SMOOTH",
"1403 1019 OFFCURVE",
"1388 1113 OFFCURVE",
"1358 1194 CURVE",
"1526 1259 OFFCURVE",
"1628 1374 OFFCURVE",
"1663 1538 CURVE",
"1651 1556 LINE",
"1546 1556 LINE",
"1521 1405 OFFCURVE",
"1457 1321 OFFCURVE",
"1321 1266 CURVE",
"1233 1411 OFFCURVE",
"1084 1483 OFFCURVE",
"893 1483 CURVE SMOOTH",
"752 1483 OFFCURVE",
"628 1445 OFFCURVE",
"520 1368 CURVE SMOOTH",
"304 1214 OFFCURVE",
"172 908 OFFCURVE",
"172 559 CURVE SMOOTH",
"172 184 OFFCURVE",
"359 -20 OFFCURVE",
"692 -20 CURVE SMOOTH"
);
},
{
closed = 1;
nodes = (
"425 72 OFFCURVE",
"276 246 OFFCURVE",
"276 573 CURVE SMOOTH",
"276 720 OFFCURVE",
"303 859 OFFCURVE",
"356 990 CURVE SMOOTH",
"463 1253 OFFCURVE",
"647 1389 OFFCURVE",
"879 1389 CURVE SMOOTH",
"1154 1389 OFFCURVE",
"1294 1221 OFFCURVE",
"1294 901 CURVE SMOOTH",
"1294 748 OFFCURVE",
"1268 605 OFFCURVE",
"1215 471 CURVE SMOOTH",
"1110 202 OFFCURVE",
"930 72 OFFCURVE",
"705 72 CURVE SMOOTH"
);
}
);
width = 1464;
},
{
anchors = (
{
name = bottom;
position = "{404, 0}";
},
{
name = top;
position = "{704, 1462}";
}
);
background = {
anchors = (
{
name = bottom;
position = "{404, 0}";
},
{
name = top;
position = "{704, 1462}";
}
);
paths = (
{
closed = 1;
nodes = (
"602 -20 OFFCURVE",
"743 148 OFFCURVE",
"831 358 CURVE SMOOTH",
"918 566 OFFCURVE",
"977 839 OFFCURVE",
"977 1100 CURVE SMOOTH",
"977 1127 OFFCURVE",
"976 1153 OFFCURVE",
"973 1178 CURVE",
"1126 1236 OFFCURVE",
"1219 1353 OFFCURVE",
"1251 1530 CURVE",
"1243 1556 LINE",
"1159 1556 LINE",
"1132 1396 OFFCURVE",
"1070 1294 OFFCURVE",
"961 1255 CURVE",
"928 1407 OFFCURVE",
"841 1483 OFFCURVE",
"702 1483 CURVE SMOOTH",
"545 1483 OFFCURVE",
"410 1381 OFFCURVE",
"306 1170 CURVE SMOOTH",
"201 958 OFFCURVE",
"135 640 OFFCURVE",
"135 379 CURVE SMOOTH",
"135 113 OFFCURVE",
"227 -20 OFFCURVE",
"412 -20 CURVE SMOOTH"
);
},
{
closed = 1;
nodes = (
"233 597 OFFCURVE",
"291 899 OFFCURVE",
"376 1095 CURVE SMOOTH",
"461 1291 OFFCURVE",
"571 1389 OFFCURVE",
"692 1389 CURVE SMOOTH",
"817 1389 OFFCURVE",
"879 1293 OFFCURVE",
"879 1100 CURVE SMOOTH",
"879 879 OFFCURVE",
"822 584 OFFCURVE",
"738 385 CURVE SMOOTH",
"654 185 OFFCURVE",
"543 74 OFFCURVE",
"420 74 CURVE SMOOTH",
"295 74 OFFCURVE",
"233 175 OFFCURVE",
"233 377 CURVE SMOOTH"
);
}
);
};
layerId = "9047BFCD-DDCC-4357-AC30-29E5270711EF";
paths = (
{
closed = 1;
nodes = (
"602 -20 OFFCURVE",
"743 148 OFFCURVE",
"831 358 CURVE SMOOTH",
"918 566 OFFCURVE",
"977 839 OFFCURVE",
"977 1100 CURVE SMOOTH",
"977 1127 OFFCURVE",
"976 1153 OFFCURVE",
"973 1178 CURVE",
"1126 1236 OFFCURVE",
"1219 1353 OFFCURVE",
"1251 1530 CURVE",
"1243 1556 LINE",
"1159 1556 LINE",
"1132 1396 OFFCURVE",
"1070 1294 OFFCURVE",
"961 1255 CURVE",
"928 1407 OFFCURVE",
"841 1483 OFFCURVE",
"702 1483 CURVE SMOOTH",
"545 1483 OFFCURVE",
"410 1381 OFFCURVE",
"306 1170 CURVE SMOOTH",
"201 958 OFFCURVE",
"135 640 OFFCURVE",
"135 379 CURVE SMOOTH",
"135 113 OFFCURVE",
"227 -20 OFFCURVE",
"412 -20 CURVE SMOOTH"
);
},
{
closed = 1;
nodes = (
"295 74 OFFCURVE",
"233 175 OFFCURVE",
"233 377 CURVE SMOOTH",
"233 597 OFFCURVE",
"291 899 OFFCURVE",
"376 1095 CURVE SMOOTH",
"461 1291 OFFCURVE",
"571 1389 OFFCURVE",
"692 1389 CURVE SMOOTH",
"817 1389 OFFCURVE",
"879 1293 OFFCURVE",
"879 1100 CURVE SMOOTH",
"879 879 OFFCURVE",
"822 584 OFFCURVE",
"738 385 CURVE SMOOTH",
"654 185 OFFCURVE",
"543 74 OFFCURVE",
"420 74 CURVE SMOOTH"
);
}
);
width = 958;
},
{
anchors = (
{
name = bottom;
position = "{557, 0}";
},
{
name = top;
position = "{857, 1462}";
}
);
background = {
anchors = (
{
name = bottom;
position = "{557, 0}";
},
{
name = top;
position = "{857, 1462}";
}
);
paths = (
{
closed = 1;
nodes = (
"912 -20 OFFCURVE",
"1153 236 OFFCURVE",
"1243 707 CURVE SMOOTH",
"1265 821 OFFCURVE",
"1271 920 OFFCURVE",
"1271 1011 CURVE SMOOTH",
"1271 1033 OFFCURVE",
"1271 1054 OFFCURVE",
"1270 1075 CURVE",
"1447 1162 OFFCURVE",
"1560 1288 OFFCURVE",
"1667 1524 CURVE",
"1653 1556 LINE",
"1294 1556 LINE",
"1271 1449 OFFCURVE",
"1232 1372 OFFCURVE",
"1191 1309 CURVE",
"1113 1416 OFFCURVE",
"986 1486 OFFCURVE",
"802 1486 CURVE SMOOTH",
"448 1486 OFFCURVE",
"202 1223 OFFCURVE",
"114 761 CURVE SMOOTH",
"96 666 OFFCURVE",
"87 579 OFFCURVE",
"87 501 CURVE SMOOTH",
"87 162 OFFCURVE",
"252 -20 OFFCURVE",
"558 -20 CURVE SMOOTH"
);
},
{
closed = 1;
nodes = (
"432 555 OFFCURVE",
"440 625 OFFCURVE",
"456 707 CURVE SMOOTH",
"515 1016 OFFCURVE",
"640 1183 OFFCURVE",
"789 1183 CURVE SMOOTH",
"881 1183 OFFCURVE",
"925 1118 OFFCURVE",
"925 982 CURVE SMOOTH",
"925 922 OFFCURVE",
"917 847 OFFCURVE",
"900 759 CURVE SMOOTH",
"840 447 OFFCURVE",
"711 284 OFFCURVE",
"570 284 CURVE SMOOTH",
"476 284 OFFCURVE",
"432 357 OFFCURVE",
"432 497 CURVE SMOOTH"
);
}
);
};
layerId = "055178C8-6F6F-4B48-86C1-608D4439D248";
paths = (
{
closed = 1;
nodes = (
"912 -20 OFFCURVE",
"1153 236 OFFCURVE",
"1243 707 CURVE SMOOTH",
"1265 821 OFFCURVE",
"1271 920 OFFCURVE",
"1271 1011 CURVE SMOOTH",
"1271 1033 OFFCURVE",
"1271 1054 OFFCURVE",
"1270 1075 CURVE",
"1447 1162 OFFCURVE",
"1560 1288 OFFCURVE",
"1667 1524 CURVE",
"1653 1556 LINE",
"1294 1556 LINE",
"1271 1449 OFFCURVE",
"1232 1372 OFFCURVE",
"1191 1309 CURVE",
"1113 1416 OFFCURVE",
"986 1486 OFFCURVE",
"802 1486 CURVE SMOOTH",
"448 1486 OFFCURVE",
"202 1223 OFFCURVE",
"114 761 CURVE SMOOTH",
"96 666 OFFCURVE",
"87 579 OFFCURVE",
"87 501 CURVE SMOOTH",
"87 162 OFFCURVE",
"252 -20 OFFCURVE",
"558 -20 CURVE SMOOTH"
);
},
{
closed = 1;
nodes = (
"476 284 OFFCURVE",
"432 357 OFFCURVE",
"432 497 CURVE SMOOTH",
"432 555 OFFCURVE",
"440 625 OFFCURVE",
"456 707 CURVE SMOOTH",
"515 1016 OFFCURVE",
"640 1183 OFFCURVE",
"789 1183 CURVE SMOOTH",
"881 1183 OFFCURVE",
"925 1118 OFFCURVE",
"925 982 CURVE SMOOTH",
"925 922 OFFCURVE",
"917 847 OFFCURVE",
"900 759 CURVE SMOOTH",
"840 447 OFFCURVE",
"711 284 OFFCURVE",
"570 284 CURVE SMOOTH"
);
}
);
width = 1317;
},
{
anchors = (
{
name = bottom;
position = "{703, 0}";
},
{
name = top;
position = "{1013, 1462}";
}
);
background = {
anchors = (
{
name = bottom;
position = "{703, 0}";
},
{
name = top;
position = "{1013, 1462}";
}
);
paths = (
{
closed = 1;
nodes = (
"742 1485 OFFCURVE",
"606 1446 OFFCURVE",
"488 1369 CURVE SMOOTH",
"251 1213 OFFCURVE",
"104 896 OFFCURVE",
"104 543 CURVE SMOOTH",
"104 190 OFFCURVE",
"307 -20 OFFCURVE",
"666 -20 CURVE SMOOTH",
"820 -20 OFFCURVE",
"955 19 OFFCURVE",
"1072 98 CURVE SMOOTH",
"1305 254 OFFCURVE",
"1446 567 OFFCURVE",
"1446 922 CURVE SMOOTH",
"1446 971 OFFCURVE",
"1442 1018 OFFCURVE",
"1434 1063 CURVE",
"1633 1140 OFFCURVE",
"1772 1296 OFFCURVE",
"1849 1530 CURVE",
"1837 1556 LINE",
"1458 1556 LINE",
"1441 1456 OFFCURVE",
"1403 1366 OFFCURVE",
"1343 1286 CURVE",
"1247 1419 OFFCURVE",
"1098 1485 OFFCURVE",
"897 1485 CURVE SMOOTH"
);
},
{
closed = 1;
nodes = (
"1051 807 OFFCURVE",
"1036 704 OFFCURVE",
"1005 610 CURVE SMOOTH",
"943 422 OFFCURVE",
"827 303 OFFCURVE",
"700 303 CURVE SMOOTH",
"567 303 OFFCURVE",
"500 384 OFFCURVE",
"500 545 CURVE SMOOTH",
"500 648 OFFCURVE",
"517 748 OFFCURVE",
"550 846 CURVE SMOOTH",
"616 1042 OFFCURVE",
"732 1161 OFFCURVE",
"864 1161 CURVE SMOOTH",
"985 1161 OFFCURVE",
"1051 1070 OFFCURVE",
"1051 918 CURVE SMOOTH"
);
}
);
};
layerId = "0B5E954E-D3E5-4A16-AD17-8B1BCB8BDBD4";
paths = (
{
closed = 1;
nodes = (
"820 -20 OFFCURVE",
"955 19 OFFCURVE",
"1072 98 CURVE SMOOTH",
"1305 254 OFFCURVE",
"1446 567 OFFCURVE",
"1446 922 CURVE SMOOTH",
"1446 971 OFFCURVE",
"1442 1018 OFFCURVE",
"1434 1063 CURVE",
"1633 1140 OFFCURVE",
"1772 1296 OFFCURVE",
"1849 1530 CURVE",
"1837 1556 LINE",
"1458 1556 LINE",
"1441 1456 OFFCURVE",
"1403 1366 OFFCURVE",
"1343 1286 CURVE",
"1247 1419 OFFCURVE",
"1098 1485 OFFCURVE",
"897 1485 CURVE SMOOTH",
"742 1485 OFFCURVE",
"606 1446 OFFCURVE",
"488 1369 CURVE SMOOTH",
"251 1213 OFFCURVE",
"104 896 OFFCURVE",
"104 543 CURVE SMOOTH",
"104 190 OFFCURVE",
"307 -20 OFFCURVE",
"666 -20 CURVE SMOOTH"
);
},
{
closed = 1;
nodes = (
"567 303 OFFCURVE",
"500 384 OFFCURVE",
"500 545 CURVE SMOOTH",
"500 648 OFFCURVE",
"517 748 OFFCURVE",
"550 846 CURVE SMOOTH",
"616 1042 OFFCURVE",
"732 1161 OFFCURVE",
"864 1161 CURVE SMOOTH",
"985 1161 OFFCURVE",
"1051 1070 OFFCURVE",
"1051 918 CURVE SMOOTH",
"1051 807 OFFCURVE",
"1036 704 OFFCURVE",
"1005 610 CURVE SMOOTH",
"943 422 OFFCURVE",
"827 303 OFFCURVE",
"700 303 CURVE SMOOTH"
);
}
);
width = 1645;
}
);
leftKerningGroup = O;
note = Ohorn;
rightKerningGroup = O;
unicode = 01A0;
},
{
glyphname = Oslash;
layers = (
{
anchors = (
{
name = bottom;
position = "{616, 0}";
},
{
name = top;
position = "{927, 1462}";
}
);
background = {
anchors = (
{
name = bottom;
position = "{616, 0}";
},
{
name = top;
position = "{927, 1462}";
}
);
paths = (
{
closed = 1;
nodes = (
"1403 1060 OFFCURVE",
"1363 1226 OFFCURVE",
"1303 1294 CURVE",
"1448 1477 LINE",
"1378 1530 LINE",
"1245 1362 LINE",
"1156 1443 OFFCURVE",
"1039 1483 OFFCURVE",
"893 1483 CURVE SMOOTH",
"754 1483 OFFCURVE",
"631 1445 OFFCURVE",
"523 1369 CURVE SMOOTH",
"306 1217 OFFCURVE",
"172 910 OFFCURVE",
"172 559 CURVE SMOOTH",
"172 391 OFFCURVE",
"210 257 OFFCURVE",
"285 158 CURVE",
"139 -14 LINE",
"205 -78 LINE",
"344 92 LINE",
"433 17 OFFCURVE",
"549 -20 OFFCURVE",
"692 -20 CURVE SMOOTH",
"907 -20 OFFCURVE",
"1083 73 OFFCURVE",
"1207 241 CURVE SMOOTH",
"1330 409 OFFCURVE",
"1403 662 OFFCURVE",
"1403 911 CURVE SMOOTH"
);
},
{
closed = 1;
nodes = (
"1008 1389 OFFCURVE",
"1109 1351 OFFCURVE",
"1180 1276 CURVE",
"354 244 LINE",
"307 313 OFFCURVE",
"276 433 OFFCURVE",
"276 573 CURVE SMOOTH",
"276 789 OFFCURVE",
"342 1012 OFFCURVE",
"447 1160 CURVE SMOOTH",
"551 1307 OFFCURVE",
"700 1389 OFFCURVE",
"879 1389 CURVE SMOOTH"
);
},
{
closed = 1;
nodes = (
"1294 744 OFFCURVE",
"1268 600 OFFCURVE",
"1216 469 CURVE SMOOTH",
"1111 207 OFFCURVE",
"932 72 OFFCURVE",
"705 72 CURVE SMOOTH",
"581 72 OFFCURVE",
"483 105 OFFCURVE",
"412 172 CURVE",
"1233 1202 LINE",
"1268 1146 OFFCURVE",
"1294 1014 OFFCURVE",
"1294 901 CURVE SMOOTH"
);
}
);
};
layerId = "4C802D5D-2BAD-4759-8C93-835BB7B64EA1";
paths = (
{
closed = 1;
nodes = (
"344 92 LINE",
"433 17 OFFCURVE",
"549 -20 OFFCURVE",
"692 -20 CURVE SMOOTH",
"907 -20 OFFCURVE",
"1083 73 OFFCURVE",
"1207 241 CURVE SMOOTH",
"1330 409 OFFCURVE",
"1403 662 OFFCURVE",
"1403 911 CURVE SMOOTH",
"1403 1060 OFFCURVE",
"1363 1226 OFFCURVE",
"1303 1294 CURVE",
"1448 1477 LINE",
"1378 1530 LINE",
"1245 1362 LINE",
"1156 1443 OFFCURVE",
"1039 1483 OFFCURVE",
"893 1483 CURVE SMOOTH",
"754 1483 OFFCURVE",
"631 1445 OFFCURVE",
"523 1369 CURVE SMOOTH",
"306 1217 OFFCURVE",
"172 910 OFFCURVE",
"172 559 CURVE SMOOTH",
"172 391 OFFCURVE",
"210 257 OFFCURVE",
"285 158 CURVE",
"139 -14 LINE",
"205 -78 LINE"
);
},
{
closed = 1;
nodes = (
"581 72 OFFCURVE",
"483 105 OFFCURVE",
"412 172 CURVE",
"1233 1202 LINE",
"1268 1146 OFFCURVE",
"1294 1014 OFFCURVE",
"1294 901 CURVE SMOOTH",
"1294 744 OFFCURVE",
"1268 600 OFFCURVE",
"1216 469 CURVE SMOOTH",
"1111 207 OFFCURVE",
"932 72 OFFCURVE",
"705 72 CURVE SMOOTH"
);
},
{
closed = 1;
nodes = (
"307 313 OFFCURVE",
"276 433 OFFCURVE",
"276 573 CURVE SMOOTH",
"276 789 OFFCURVE",
"342 1012 OFFCURVE",
"447 1160 CURVE SMOOTH",
"551 1307 OFFCURVE",
"700 1389 OFFCURVE",
"879 1389 CURVE SMOOTH",
"1008 1389 OFFCURVE",
"1109 1351 OFFCURVE",
"1180 1276 CURVE",
"354 244 LINE"
);
}
);
width = 1464;
},
{
anchors = (
{
name = bottom;
position = "{404, 0}";
},
{
name = top;
position = "{704, 1462}";
}
);
background = {
anchors = (
{
name = bottom;
position = "{404, 0}";
},
{
name = top;
position = "{704, 1462}";
}
);
paths = (
{
closed = 1;
nodes = (
"601 -20 OFFCURVE",
"740 142 OFFCURVE",
"824 344 CURVE SMOOTH",
"910 551 OFFCURVE",
"977 827 OFFCURVE",
"977 1088 CURVE SMOOTH",
"977 1171 OFFCURVE",
"971 1221 OFFCURVE",
"956 1280 CURVE",
"1096 1501 LINE",
"1024 1546 LINE",
"915 1374 LINE",
"870 1447 OFFCURVE",
"798 1483 OFFCURVE",
"704 1483 CURVE SMOOTH",
"541 1483 OFFCURVE",
"407 1376 OFFCURVE",
"306 1170 CURVE SMOOTH",
"199 951 OFFCURVE",
"135 636 OFFCURVE",
"135 386 CURVE SMOOTH",
"135 292 OFFCURVE",
"144 225 OFFCURVE",
"162 170 CURVE",
"23 -53 LINE",
"92 -94 LINE",
"203 82 LINE",
"248 16 OFFCURVE",
"319 -20 OFFCURVE",
"409 -20 CURVE SMOOTH"
);
},
{
closed = 1;
nodes = (
"233 597 OFFCURVE",
"291 899 OFFCURVE",
"376 1095 CURVE SMOOTH",
"460 1290 OFFCURVE",
"571 1389 OFFCURVE",
"692 1389 CURVE SMOOTH",
"769 1389 OFFCURVE",
"822 1350 OFFCURVE",
"852 1272 CURVE",
"238 291 LINE",
"235 308 OFFCURVE",
"233 336 OFFCURVE",
"233 377 CURVE SMOOTH"
);
},
{
closed = 1;
nodes = (
"347 74 OFFCURVE",
"294 109 OFFCURVE",
"264 180 CURVE",
"877 1153 LINE",
"879 1135 OFFCURVE",
"879 1118 OFFCURVE",
"879 1100 CURVE SMOOTH",
"879 881 OFFCURVE",
"824 591 OFFCURVE",
"738 385 CURVE SMOOTH",
"654 185 OFFCURVE",
"544 74 OFFCURVE",
"418 74 CURVE SMOOTH"
);
}
);
};
layerId = "9047BFCD-DDCC-4357-AC30-29E5270711EF";
paths = (
{
closed = 1;
nodes = (
"203 82 LINE",
"248 16 OFFCURVE",
"319 -20 OFFCURVE",
"409 -20 CURVE SMOOTH",
"601 -20 OFFCURVE",
"740 142 OFFCURVE",
"824 344 CURVE SMOOTH",
"910 551 OFFCURVE",
"977 827 OFFCURVE",
"977 1088 CURVE SMOOTH",
"977 1171 OFFCURVE",
"971 1221 OFFCURVE",
"956 1280 CURVE",
"1096 1501 LINE",
"1024 1546 LINE",
"915 1374 LINE",
"870 1447 OFFCURVE",
"798 1483 OFFCURVE",
"704 1483 CURVE SMOOTH",
"541 1483 OFFCURVE",
"407 1376 OFFCURVE",
"306 1170 CURVE SMOOTH",
"199 951 OFFCURVE",
"135 636 OFFCURVE",
"135 386 CURVE SMOOTH",
"135 292 OFFCURVE",
"144 225 OFFCURVE",
"162 170 CURVE",
"23 -53 LINE",
"92 -94 LINE"
);
},
{
closed = 1;
nodes = (
"347 74 OFFCURVE",
"294 109 OFFCURVE",
"264 180 CURVE",
"877 1153 LINE",
"879 1135 OFFCURVE",
"879 1118 OFFCURVE",
"879 1100 CURVE SMOOTH",
"879 881 OFFCURVE",
"824 591 OFFCURVE",
"738 385 CURVE SMOOTH",
"654 185 OFFCURVE",
"544 74 OFFCURVE",
"418 74 CURVE SMOOTH"
);
},
{
closed = 1;
nodes = (
"235 308 OFFCURVE",
"233 336 OFFCURVE",
"233 377 CURVE SMOOTH",
"233 597 OFFCURVE",
"291 899 OFFCURVE",
"376 1095 CURVE SMOOTH",
"460 1290 OFFCURVE",
"571 1389 OFFCURVE",
"692 1389 CURVE SMOOTH",
"769 1389 OFFCURVE",
"822 1350 OFFCURVE",
"852 1272 CURVE",
"238 291 LINE"
);
}
);
width = 958;
},
{
anchors = (
{
name = bottom;
position = "{432, 0}";
},
{
name = top;
position = "{810, 1462}";
}
);
background = {
anchors = (
{
name = bottom;
position = "{432, 0}";
},
{
name = top;
position = "{810, 1462}";
}
);
paths = (
{
closed = 1;
nodes = (
"915 -20 OFFCURVE",
"1155 239 OFFCURVE",
"1243 707 CURVE SMOOTH",
"1261 802 OFFCURVE",
"1269 889 OFFCURVE",
"1269 965 CURVE SMOOTH",
"1269 1099 OFFCURVE",
"1244 1205 OFFCURVE",
"1196 1286 CURVE",
"1333 1475 LINE",
"1140 1567 LINE",
"1045 1441 LINE",
"975 1468 OFFCURVE",
"896 1486 OFFCURVE",
"802 1486 CURVE SMOOTH",
"452 1486 OFFCURVE",
"207 1234 OFFCURVE",
"114 761 CURVE SMOOTH",
"95 664 OFFCURVE",
"86 577 OFFCURVE",
"86 498 CURVE SMOOTH",
"86 358 OFFCURVE",
"115 247 OFFCURVE",
"170 164 CURVE",
"41 -11 LINE",
"233 -106 LINE",
"325 17 LINE",
"389 -6 OFFCURVE",
"466 -20 OFFCURVE",
"551 -20 CURVE SMOOTH"
);
},
{
closed = 1;
nodes = (
"487 868 OFFCURVE",
"534 988 OFFCURVE",
"592 1068 CURVE SMOOTH",
"647 1144 OFFCURVE",
"714 1183 OFFCURVE",
"789 1183 CURVE SMOOTH",
"819 1183 OFFCURVE",
"857 1177 OFFCURVE",
"881 1171 CURVE",
"424 529 LINE",
"433 586 OFFCURVE",
"446 656 OFFCURVE",
"456 707 CURVE SMOOTH"
);
},
{
closed = 1;
nodes = (
"548 284 OFFCURVE",
"520 287 OFFCURVE",
"492 292 CURVE",
"933 907 LINE",
"922 864 OFFCURVE",
"914 830 OFFCURVE",
"900 759 CURVE SMOOTH",
"868 595 OFFCURVE",
"823 475 OFFCURVE",
"766 396 CURVE SMOOTH",
"712 321 OFFCURVE",
"646 284 OFFCURVE",
"570 284 CURVE SMOOTH"
);
}
);
};
layerId = "055178C8-6F6F-4B48-86C1-608D4439D248";
paths = (
{
closed = 1;
nodes = (
"325 17 LINE",
"389 -6 OFFCURVE",
"466 -20 OFFCURVE",
"551 -20 CURVE SMOOTH",
"915 -20 OFFCURVE",
"1155 239 OFFCURVE",
"1243 707 CURVE SMOOTH",
"1261 802 OFFCURVE",
"1269 889 OFFCURVE",
"1269 965 CURVE SMOOTH",
"1269 1099 OFFCURVE",
"1244 1205 OFFCURVE",
"1196 1286 CURVE",
"1333 1475 LINE",
"1140 1567 LINE",
"1045 1441 LINE",
"975 1468 OFFCURVE",
"896 1486 OFFCURVE",
"802 1486 CURVE SMOOTH",
"452 1486 OFFCURVE",
"207 1234 OFFCURVE",
"114 761 CURVE SMOOTH",
"95 664 OFFCURVE",
"86 577 OFFCURVE",
"86 498 CURVE SMOOTH",
"86 358 OFFCURVE",
"115 247 OFFCURVE",
"170 164 CURVE",
"41 -11 LINE",
"233 -106 LINE"
);
},
{
closed = 1;
nodes = (
"548 284 OFFCURVE",
"520 287 OFFCURVE",
"492 292 CURVE",
"933 907 LINE",
"922 864 OFFCURVE",
"914 830 OFFCURVE",
"900 759 CURVE SMOOTH",
"868 595 OFFCURVE",
"823 475 OFFCURVE",
"766 396 CURVE SMOOTH",
"712 321 OFFCURVE",
"646 284 OFFCURVE",
"570 284 CURVE SMOOTH"
);
},
{
closed = 1;
nodes = (
"433 586 OFFCURVE",
"446 656 OFFCURVE",
"456 707 CURVE SMOOTH",
"487 868 OFFCURVE",
"534 988 OFFCURVE",
"592 1068 CURVE SMOOTH",
"647 1144 OFFCURVE",
"714 1183 OFFCURVE",
"789 1183 CURVE SMOOTH",
"819 1183 OFFCURVE",
"857 1177 OFFCURVE",
"881 1171 CURVE",
"424 529 LINE"
);
}
);
width = 1285;
},
{
anchors = (
{
name = bottom;
position = "{635, 0}";
},
{
name = top;
position = "{945, 1462}";
}
);
background = {
anchors = (
{
name = bottom;
position = "{635, 0}";
},
{
name = top;
position = "{945, 1462}";
}
);
paths = (
{
closed = 1;
nodes = (
"730 1485 OFFCURVE",
"597 1446 OFFCURVE",
"481 1368 CURVE SMOOTH",
"248 1211 OFFCURVE",
"104 892 OFFCURVE",
"104 543 CURVE SMOOTH",
"104 392 OFFCURVE",
"140 270 OFFCURVE",
"211 176 CURVE",
"94 31 LINE",
"254 -86 LINE",
"360 49 LINE",
"448 3 OFFCURVE",
"556 -20 OFFCURVE",
"684 -20 CURVE SMOOTH",
"831 -20 OFFCURVE",
"962 20 OFFCURVE",
"1077 100 CURVE SMOOTH",
"1307 259 OFFCURVE",
"1446 578 OFFCURVE",
"1446 922 CURVE SMOOTH",
"1446 1068 OFFCURVE",
"1412 1189 OFFCURVE",
"1343 1284 CURVE",
"1442 1409 LINE",
"1286 1528 LINE",
"1194 1413 LINE",
"1105 1461 OFFCURVE",
"1000 1485 OFFCURVE",
"879 1485 CURVE SMOOTH"
);
},
{
closed = 1;
nodes = (
"500 658 OFFCURVE",
"516 760 OFFCURVE",
"548 855 CURVE SMOOTH",
"612 1044 OFFCURVE",
"727 1161 OFFCURVE",
"852 1161 CURVE SMOOTH",
"899 1161 OFFCURVE",
"937 1150 OFFCURVE",
"967 1128 CURVE",
"500 539 LINE",
"500 549 LINE SMOOTH"
);
},
{
closed = 1;
nodes = (
"655 303 OFFCURVE",
"617 313 OFFCURVE",
"586 332 CURVE",
"1051 915 LINE",
"1051 804 OFFCURVE",
"1035 701 OFFCURVE",
"1004 607 CURVE SMOOTH",
"941 419 OFFCURVE",
"827 303 OFFCURVE",
"700 303 CURVE SMOOTH"
);
}
);
};
layerId = "0B5E954E-D3E5-4A16-AD17-8B1BCB8BDBD4";
paths = (
{
closed = 1;
nodes = (
"360 49 LINE",
"448 3 OFFCURVE",
"556 -20 OFFCURVE",
"684 -20 CURVE SMOOTH",
"831 -20 OFFCURVE",
"962 20 OFFCURVE",
"1077 100 CURVE SMOOTH",
"1307 259 OFFCURVE",
"1446 578 OFFCURVE",
"1446 922 CURVE SMOOTH",
"1446 1068 OFFCURVE",
"1412 1189 OFFCURVE",
"1343 1284 CURVE",
"1442 1409 LINE",
"1286 1528 LINE",
"1194 1413 LINE",
"1105 1461 OFFCURVE",
"1000 1485 OFFCURVE",
"879 1485 CURVE SMOOTH",
"730 1485 OFFCURVE",
"597 1446 OFFCURVE",
"481 1368 CURVE SMOOTH",
"248 1211 OFFCURVE",
"104 892 OFFCURVE",
"104 543 CURVE SMOOTH",
"104 392 OFFCURVE",
"140 270 OFFCURVE",
"211 176 CURVE",
"94 31 LINE",
"254 -86 LINE"
);
},
{
closed = 1;
nodes = (
"655 303 OFFCURVE",
"617 313 OFFCURVE",
"586 332 CURVE",
"1051 915 LINE",
"1051 904 OFFCURVE",
"1051 894 OFFCURVE",
"1051 884 CURVE SMOOTH",
"1048 784 OFFCURVE",
"1032 692 OFFCURVE",
"1004 607 CURVE SMOOTH",
"941 419 OFFCURVE",
"827 303 OFFCURVE",
"700 303 CURVE SMOOTH"
);
},
{
closed = 1;
nodes = (
"500 542 OFFCURVE",
"500 546 OFFCURVE",
"500 549 CURVE SMOOTH",
"500 658 OFFCURVE",
"516 760 OFFCURVE",
"548 855 CURVE SMOOTH",
"612 1044 OFFCURVE",
"727 1161 OFFCURVE",
"852 1161 CURVE SMOOTH",
"899 1161 OFFCURVE",
"937 1150 OFFCURVE",
"967 1128 CURVE",
"500 539 LINE"
);
}
);
width = 1509;
}
);
leftKerningGroup = O;
rightKerningGroup = O;
unicode = 00D8;
},
{
glyphname = OE;
layers = (
{
anchors = (
{
name = bottom;
position = "{768, 0}";
},
{
name = top;
position = "{1079, 1462}";
}
);
background = {
anchors = (
{
name = bottom;
position = "{768, 0}";
},
{
name = top;
position = "{1079, 1462}";
}
);
paths = (
{
closed = 1;
nodes = (
"924 94 LINE",
"1059 721 LINE",
"1647 721 LINE",
"1667 815 LINE",
"1077 815 LINE",
"1194 1368 LINE",
"1819 1368 LINE",
"1839 1462 LINE",
"1151 1462 LINE",
"1078 1476 OFFCURVE",
"998 1483 OFFCURVE",
"911 1483 CURVE SMOOTH",
"768 1483 OFFCURVE",
"641 1446 OFFCURVE",
"530 1372 CURVE SMOOTH",
"309 1223 OFFCURVE",
"172 910 OFFCURVE",
"172 559 CURVE SMOOTH",
"172 186 OFFCURVE",
"357 -20 OFFCURVE",
"692 -20 CURVE SMOOTH",
"748 -20 OFFCURVE",
"831 -8 OFFCURVE",
"864 0 CURVE",
"1530 0 LINE",
"1550 94 LINE"
);
},
{
closed = 1;
nodes = (
"424 72 OFFCURVE",
"276 246 OFFCURVE",
"276 573 CURVE SMOOTH",
"276 726 OFFCURVE",
"304 867 OFFCURVE",
"359 997 CURVE SMOOTH",
"470 1257 OFFCURVE",
"660 1389 OFFCURVE",
"903 1389 CURVE SMOOTH",
"956 1389 OFFCURVE",
"1019 1384 OFFCURVE",
"1092 1374 CURVE",
"821 84 LINE",
"789 76 OFFCURVE",
"750 72 OFFCURVE",
"705 72 CURVE SMOOTH"
);
}
);
};
layerId = "4C802D5D-2BAD-4759-8C93-835BB7B64EA1";
paths = (
{
closed = 1;
nodes = (
"748 -20 OFFCURVE",
"831 -8 OFFCURVE",
"864 0 CURVE",
"1530 0 LINE",
"1550 94 LINE",
"924 94 LINE",
"1059 721 LINE",
"1647 721 LINE",
"1667 815 LINE",
"1077 815 LINE",
"1194 1368 LINE",
"1819 1368 LINE",
"1839 1462 LINE",
"1151 1462 LINE",
"1078 1476 OFFCURVE",
"998 1483 OFFCURVE",
"911 1483 CURVE SMOOTH",
"768 1483 OFFCURVE",
"641 1446 OFFCURVE",
"530 1372 CURVE SMOOTH",
"309 1223 OFFCURVE",
"172 910 OFFCURVE",
"172 559 CURVE SMOOTH",
"172 186 OFFCURVE",
"357 -20 OFFCURVE",
"692 -20 CURVE SMOOTH"
);
},
{
closed = 1;
nodes = (
"424 72 OFFCURVE",
"276 246 OFFCURVE",
"276 573 CURVE SMOOTH",
"276 726 OFFCURVE",
"304 867 OFFCURVE",
"359 997 CURVE SMOOTH",
"470 1257 OFFCURVE",
"660 1389 OFFCURVE",
"903 1389 CURVE SMOOTH",
"956 1389 OFFCURVE",
"1019 1384 OFFCURVE",
"1092 1374 CURVE",
"821 84 LINE",
"789 76 OFFCURVE",
"750 72 OFFCURVE",
"705 72 CURVE SMOOTH"
);
}
);
width = 1767;
},
{
anchors = (
{
name = bottom;
position = "{567, 0}";
},
{
name = top;
position = "{827, 1462}";
}
);
background = {
anchors = (
{
name = bottom;
position = "{567, 0}";
},
{
name = top;
position = "{827, 1462}";
}
);
paths = (
{
closed = 1;
nodes = (
"580 94 LINE",
"713 719 LINE",
"1067 719 LINE",
"1087 813 LINE",
"733 813 LINE",
"850 1366 LINE",
"1227 1366 LINE",
"1247 1462 LINE",
"895 1462 LINE SMOOTH",
"832 1462 OFFCURVE",
"770 1467 OFFCURVE",
"707 1467 CURVE SMOOTH",
"603 1467 OFFCURVE",
"501 1423 OFFCURVE",
"416 1327 CURVE SMOOTH",
"246 1135 OFFCURVE",
"135 733 OFFCURVE",
"135 427 CURVE SMOOTH",
"135 121 OFFCURVE",
"246 -6 OFFCURVE",
"438 -6 CURVE SMOOTH",
"489 -6 OFFCURVE",
"539 0 OFFCURVE",
"590 0 CURVE SMOOTH",
"938 0 LINE",
"956 94 LINE"
);
},
{
closed = 1;
nodes = (
"472 86 OFFCURVE",
"466 86 OFFCURVE",
"459 86 CURVE SMOOTH",
"299 93 OFFCURVE",
"233 178 OFFCURVE",
"233 405 CURVE SMOOTH",
"233 621 OFFCURVE",
"293 905 OFFCURVE",
"372 1085 CURVE SMOOTH",
"452 1267 OFFCURVE",
"562 1374 OFFCURVE",
"690 1374 CURVE SMOOTH",
"703 1374 OFFCURVE",
"738 1373 OFFCURVE",
"750 1372 CURVE",
"479 86 LINE"
);
}
);
};
layerId = "9047BFCD-DDCC-4357-AC30-29E5270711EF";
paths = (
{
closed = 1;
nodes = (
"489 -6 OFFCURVE",
"539 0 OFFCURVE",
"590 0 CURVE SMOOTH",
"938 0 LINE",
"956 94 LINE",
"580 94 LINE",
"713 719 LINE",
"1067 719 LINE",
"1087 813 LINE",
"733 813 LINE",
"850 1366 LINE",
"1227 1366 LINE",
"1247 1462 LINE",
"895 1462 LINE SMOOTH",
"832 1462 OFFCURVE",
"770 1467 OFFCURVE",
"707 1467 CURVE SMOOTH",
"603 1467 OFFCURVE",
"501 1423 OFFCURVE",
"416 1327 CURVE SMOOTH",
"246 1135 OFFCURVE",
"135 733 OFFCURVE",
"135 427 CURVE SMOOTH",
"135 121 OFFCURVE",
"246 -6 OFFCURVE",
"438 -6 CURVE SMOOTH"
);
},
{
closed = 1;
nodes = (
"299 93 OFFCURVE",
"233 178 OFFCURVE",
"233 405 CURVE SMOOTH",
"233 621 OFFCURVE",
"293 905 OFFCURVE",
"372 1085 CURVE SMOOTH",
"452 1267 OFFCURVE",
"562 1374 OFFCURVE",
"690 1374 CURVE SMOOTH",
"703 1374 OFFCURVE",
"738 1373 OFFCURVE",
"750 1372 CURVE",
"479 86 LINE",
"472 86 OFFCURVE",
"466 86 OFFCURVE",
"459 86 CURVE SMOOTH"
);
}
);
width = 1104;
},
{
anchors = (
{
name = bottom;
position = "{769, 0}";
},
{
name = top;
position = "{1200, 1462}";
}
);
background = {
anchors = (
{
name = bottom;
position = "{769, 0}";
},
{
name = top;
position = "{1200, 1462}";
}
);
paths = (
{
closed = 1;
nodes = (
"1159 300 LINE",
"1224 610 LINE",
"1555 610 LINE",
"1618 907 LINE",
"1287 907 LINE",
"1342 1166 LINE",
"1703 1166 LINE",
"1766 1462 LINE",
"1094 1457 LINE",
"1040 1478 OFFCURVE",
"993 1493 OFFCURVE",
"922 1493 CURVE SMOOTH",
"694 1493 OFFCURVE",
"517 1373 OFFCURVE",
"395 1191 CURVE SMOOTH",
"267 1000 OFFCURVE",
"201 739 OFFCURVE",
"201 474 CURVE SMOOTH",
"201 154 OFFCURVE",
"354 -26 OFFCURVE",
"652 -26 CURVE SMOOTH",
"691 -26 OFFCURVE",
"734 -22 OFFCURVE",
"793 -4 CURVE",
"1456 0 LINE",
"1520 300 LINE"
);
},
{
closed = 1;
nodes = (
"761 291 OFFCURVE",
"710 278 OFFCURVE",
"654 278 CURVE SMOOTH",
"581 278 OFFCURVE",
"545 343 OFFCURVE",
"545 465 CURVE SMOOTH",
"545 631 OFFCURVE",
"611 902 OFFCURVE",
"699 1044 CURVE SMOOTH",
"756 1137 OFFCURVE",
"825 1189 OFFCURVE",
"900 1189 CURVE SMOOTH",
"923 1189 OFFCURVE",
"967 1187 OFFCURVE",
"1009 1174 CURVE",
"800 304 LINE"
);
}
);
};
layerId = "055178C8-6F6F-4B48-86C1-608D4439D248";
paths = (
{
closed = 1;
nodes = (
"691 -26 OFFCURVE",
"734 -22 OFFCURVE",
"793 -4 CURVE",
"1456 0 LINE",
"1520 300 LINE",
"1159 300 LINE",
"1224 610 LINE",
"1555 610 LINE",
"1618 907 LINE",
"1287 907 LINE",
"1342 1166 LINE",
"1703 1166 LINE",
"1766 1462 LINE",
"1094 1457 LINE",
"1040 1478 OFFCURVE",
"993 1493 OFFCURVE",
"922 1493 CURVE SMOOTH",
"694 1493 OFFCURVE",
"517 1373 OFFCURVE",
"395 1191 CURVE SMOOTH",
"267 1000 OFFCURVE",
"201 739 OFFCURVE",
"201 474 CURVE SMOOTH",
"201 154 OFFCURVE",
"354 -26 OFFCURVE",
"652 -26 CURVE SMOOTH"
);
},
{
closed = 1;
nodes = (
"581 278 OFFCURVE",
"545 343 OFFCURVE",
"545 465 CURVE SMOOTH",
"545 631 OFFCURVE",
"611 902 OFFCURVE",
"699 1044 CURVE SMOOTH",
"756 1137 OFFCURVE",
"825 1189 OFFCURVE",
"900 1189 CURVE SMOOTH",
"923 1189 OFFCURVE",
"967 1187 OFFCURVE",
"1009 1174 CURVE",
"800 304 LINE",
"761 291 OFFCURVE",
"710 278 OFFCURVE",
"654 278 CURVE SMOOTH"
);
}
);
width = 1537;
},
{
anchors = (
{
name = bottom;
position = "{835, 0}";
},
{
name = top;
position = "{1145, 1462}";
}
);
background = {
anchors = (
{
name = bottom;
position = "{835, 0}";
},
{
name = top;
position = "{1145, 1462}";
}
);
paths = (
{
closed = 1;
nodes = (
"1247 324 LINE",
"1305 596 LINE",
"1749 596 LINE",
"1821 918 LINE",
"1376 918 LINE",
"1423 1143 LINE",
"1901 1143 LINE",
"1968 1462 LINE",
"1094 1462 LINE",
"1029 1477 OFFCURVE",
"966 1485 OFFCURVE",
"903 1485 CURVE SMOOTH",
"667 1485 OFFCURVE",
"468 1393 OFFCURVE",
"327 1220 CURVE SMOOTH",
"186 1047 OFFCURVE",
"104 789 OFFCURVE",
"104 528 CURVE SMOOTH",
"104 188 OFFCURVE",
"306 -20 OFFCURVE",
"647 -20 CURVE SMOOTH",
"709 -20 OFFCURVE",
"775 -13 OFFCURVE",
"844 0 CURVE",
"1659 0 LINE",
"1724 324 LINE"
);
},
{
closed = 1;
nodes = (
"561 309 OFFCURVE",
"500 381 OFFCURVE",
"500 526 CURVE SMOOTH",
"500 636 OFFCURVE",
"517 740 OFFCURVE",
"551 838 CURVE SMOOTH",
"618 1034 OFFCURVE",
"742 1161 OFFCURVE",
"870 1161 CURVE SMOOTH",
"937 1161 OFFCURVE",
"989 1145 OFFCURVE",
"1024 1112 CURVE",
"862 350 LINE",
"806 323 OFFCURVE",
"746 309 OFFCURVE",
"682 309 CURVE SMOOTH"
);
}
);
};
layerId = "0B5E954E-D3E5-4A16-AD17-8B1BCB8BDBD4";
paths = (
{
closed = 1;
nodes = (
"709 -20 OFFCURVE",
"775 -13 OFFCURVE",
"844 0 CURVE",
"1659 0 LINE",
"1724 324 LINE",
"1247 324 LINE",
"1305 596 LINE",
"1749 596 LINE",
"1821 918 LINE",
"1376 918 LINE",
"1423 1143 LINE",
"1901 1143 LINE",
"1968 1462 LINE",
"1094 1462 LINE",
"1029 1477 OFFCURVE",
"966 1485 OFFCURVE",
"903 1485 CURVE SMOOTH",
"667 1485 OFFCURVE",
"468 1393 OFFCURVE",
"327 1220 CURVE SMOOTH",
"186 1047 OFFCURVE",
"104 789 OFFCURVE",
"104 528 CURVE SMOOTH",
"104 188 OFFCURVE",
"306 -20 OFFCURVE",
"647 -20 CURVE SMOOTH"
);
},
{
closed = 1;
nodes = (
"561 309 OFFCURVE",
"500 381 OFFCURVE",
"500 526 CURVE SMOOTH",
"500 636 OFFCURVE",
"517 740 OFFCURVE",
"551 838 CURVE SMOOTH",
"618 1034 OFFCURVE",
"742 1161 OFFCURVE",
"870 1161 CURVE SMOOTH",
"937 1161 OFFCURVE",
"989 1145 OFFCURVE",
"1024 1112 CURVE",
"862 350 LINE",
"806 323 OFFCURVE",
"746 309 OFFCURVE",
"682 309 CURVE SMOOTH"
);
}
);
width = 1909;
}
);
leftKerningGroup = O;
rightKerningGroup = E;
unicode = 0152;
},
{
glyphname = P;
layers = (
{
anchors = (
{
name = bottom;
position = "{457, 0}";
},
{
name = top;
position = "{768, 1462}";
}
);
background = {
anchors = (
{
name = bottom;
position = "{457, 0}";
},
{
name = top;
position = "{768, 1462}";
}
);
paths = (
{
closed = 1;
nodes = (
"1145 1335 OFFCURVE",
"996 1462 OFFCURVE",
"727 1462 CURVE SMOOTH",
"412 1462 LINE",
"102 0 LINE",
"205 0 LINE",
"334 602 LINE",
"535 602 LINE SMOOTH",
"942 602 OFFCURVE",
"1145 769 OFFCURVE",
"1145 1102 CURVE SMOOTH"
);
},
{
closed = 1;
nodes = (
"707 1370 LINE SMOOTH",
"926 1370 OFFCURVE",
"1036 1279 OFFCURVE",
"1036 1096 CURVE SMOOTH",
"1036 817 OFFCURVE",
"877 694 OFFCURVE",
"541 694 CURVE SMOOTH",
"350 694 LINE",
"496 1370 LINE"
);
}
);
};
layerId = "4C802D5D-2BAD-4759-8C93-835BB7B64EA1";
paths = (
{
closed = 1;
nodes = (
"205 0 LINE",
"334 602 LINE",
"535 602 LINE SMOOTH",
"687 602 OFFCURVE",
"811 625 OFFCURVE",
"906 672 CURVE SMOOTH",
"1066 750 OFFCURVE",
"1145 894 OFFCURVE",
"1145 1102 CURVE SMOOTH",
"1145 1335 OFFCURVE",
"996 1462 OFFCURVE",
"727 1462 CURVE SMOOTH",
"412 1462 LINE",
"102 0 LINE"
);
},
{
closed = 1;
nodes = (
"496 1370 LINE",
"707 1370 LINE SMOOTH",
"926 1370 OFFCURVE",
"1036 1279 OFFCURVE",
"1036 1096 CURVE SMOOTH",
"1036 817 OFFCURVE",
"877 694 OFFCURVE",
"541 694 CURVE SMOOTH",
"350 694 LINE"
);
}
);
width = 1145;
},
{
anchors = (
{
name = bottom;
position = "{271, 0}";
},
{
name = top;
position = "{581, 1462}";
}
);
background = {
anchors = (
{
name = bottom;
position = "{271, 0}";
},
{
name = top;
position = "{581, 1462}";
}
);
paths = (
{
closed = 1;
nodes = (
"858 1342 OFFCURVE",
"738 1462 OFFCURVE",
"545 1462 CURVE SMOOTH",
"375 1462 LINE",
"66 0 LINE",
"164 0 LINE",
"291 604 LINE",
"387 604 LINE SMOOTH",
"482 604 OFFCURVE",
"566 628 OFFCURVE",
"637 675 CURVE SMOOTH",
"780 770 OFFCURVE",
"858 946 OFFCURVE",
"858 1155 CURVE SMOOTH"
);
},
{
closed = 1;
nodes = (
"530 1366 LINE SMOOTH",
"673 1366 OFFCURVE",
"754 1282 OFFCURVE",
"754 1139 CURVE SMOOTH",
"754 859 OFFCURVE",
"618 698 OFFCURVE",
"381 698 CURVE SMOOTH",
"311 698 LINE",
"453 1366 LINE"
);
}
);
};
layerId = "9047BFCD-DDCC-4357-AC30-29E5270711EF";
paths = (
{
closed = 1;
nodes = (
"164 0 LINE",
"291 604 LINE",
"387 604 LINE SMOOTH",
"482 604 OFFCURVE",
"566 628 OFFCURVE",
"637 675 CURVE SMOOTH",
"780 770 OFFCURVE",
"858 946 OFFCURVE",
"858 1155 CURVE SMOOTH",
"858 1342 OFFCURVE",
"738 1462 OFFCURVE",
"545 1462 CURVE SMOOTH",
"375 1462 LINE",
"66 0 LINE"
);
},
{
closed = 1;
nodes = (
"453 1366 LINE",
"530 1366 LINE SMOOTH",
"673 1366 OFFCURVE",
"754 1282 OFFCURVE",
"754 1139 CURVE SMOOTH",
"754 859 OFFCURVE",
"618 698 OFFCURVE",
"381 698 CURVE SMOOTH",
"311 698 LINE"
);
}
);
width = 772;
},
{
anchors = (
{
name = bottom;
position = "{401, 0}";
},
{
name = top;
position = "{712, 1462}";
}
);
background = {
anchors = (
{
name = bottom;
position = "{401, 0}";
},
{
name = top;
position = "{712, 1462}";
}
);
paths = (
{
closed = 1;
nodes = (
"1216 1344 OFFCURVE",
"1090 1462 OFFCURVE",
"857 1462 CURVE SMOOTH",
"424 1462 LINE",
"115 0 LINE",
"462 0 LINE",
"568 498 LINE",
"633 498 LINE SMOOTH",
"785 498 OFFCURVE",
"910 540 OFFCURVE",
"1004 619 CURVE SMOOTH",
"1141 732 OFFCURVE",
"1216 941 OFFCURVE",
"1216 1126 CURVE SMOOTH"
);
},
{
closed = 1;
nodes = (
"769 1165 LINE SMOOTH",
"836 1165 OFFCURVE",
"864 1138 OFFCURVE",
"864 1080 CURVE SMOOTH",
"864 948 OFFCURVE",
"782 796 OFFCURVE",
"651 796 CURVE SMOOTH",
"631 796 LINE",
"709 1165 LINE"
);
}
);
};
layerId = "055178C8-6F6F-4B48-86C1-608D4439D248";
paths = (
{
closed = 1;
nodes = (
"462 0 LINE",
"568 498 LINE",
"633 498 LINE SMOOTH",
"785 498 OFFCURVE",
"910 540 OFFCURVE",
"1004 619 CURVE SMOOTH",
"1141 732 OFFCURVE",
"1216 941 OFFCURVE",
"1216 1126 CURVE SMOOTH",
"1216 1344 OFFCURVE",
"1090 1462 OFFCURVE",
"857 1462 CURVE SMOOTH",
"424 1462 LINE",
"115 0 LINE"
);
},
{
closed = 1;
nodes = (
"709 1165 LINE",
"769 1165 LINE SMOOTH",
"836 1165 OFFCURVE",
"864 1138 OFFCURVE",
"864 1080 CURVE SMOOTH",
"864 948 OFFCURVE",
"782 796 OFFCURVE",
"651 796 CURVE SMOOTH",
"631 796 LINE"
);
}
);
width = 1042;
},
{
anchors = (
{
name = bottom;
position = "{518, 0}";
},
{
name = top;
position = "{828, 1462}";
}
);
background = {
anchors = (
{
name = bottom;
position = "{518, 0}";
},
{
name = top;
position = "{828, 1462}";
}
);
paths = (
{
closed = 1;
nodes = (
"1251 1305 OFFCURVE",
"1060 1462 OFFCURVE",
"715 1462 CURVE SMOOTH",
"342 1462 LINE",
"33 0 LINE",
"424 0 LINE",
"524 485 LINE",
"610 485 LINE SMOOTH",
"1007 485 OFFCURVE",
"1251 688 OFFCURVE",
"1251 1024 CURVE SMOOTH"
);
},
{
closed = 1;
nodes = (
"725 1143 LINE SMOOTH",
"809 1143 OFFCURVE",
"860 1091 OFFCURVE",
"860 1012 CURVE SMOOTH",
"860 892 OFFCURVE",
"778 805 OFFCURVE",
"657 805 CURVE SMOOTH",
"594 805 LINE",
"666 1143 LINE"
);
}
);
};
layerId = "0B5E954E-D3E5-4A16-AD17-8B1BCB8BDBD4";
paths = (
{
closed = 1;
nodes = (
"424 0 LINE",
"524 485 LINE",
"610 485 LINE SMOOTH",
"771 485 OFFCURVE",
"907 518 OFFCURVE",
"1012 581 CURVE SMOOTH",
"1165 672 OFFCURVE",
"1251 824 OFFCURVE",
"1251 1024 CURVE SMOOTH",
"1251 1305 OFFCURVE",
"1060 1462 OFFCURVE",
"715 1462 CURVE SMOOTH",
"342 1462 LINE",
"33 0 LINE"
);
},
{
closed = 1;
nodes = (
"666 1143 LINE",
"725 1143 LINE SMOOTH",
"809 1143 OFFCURVE",
"860 1091 OFFCURVE",
"860 1012 CURVE SMOOTH",
"860 892 OFFCURVE",
"778 805 OFFCURVE",
"657 805 CURVE SMOOTH",
"594 805 LINE"
);
}
);
width = 1276;
}
);
leftKerningGroup = H;
rightKerningGroup = P;
unicode = 0050;
},
{
glyphname = Thorn;
layers = (
{
anchors = (
{
name = bottom;
position = "{457, 0}";
},
{
name = top;
position = "{768, 1462}";
}
);
background = {
anchors = (
{
name = bottom;
position = "{457, 0}";
},
{
name = top;
position = "{768, 1462}";
}
);
paths = (
{
closed = 1;
nodes = (
"1087 1069 OFFCURVE",
"937 1196 OFFCURVE",
"670 1196 CURVE SMOOTH",
"457 1196 LINE",
"514 1462 LINE",
"412 1462 LINE",
"102 0 LINE",
"205 0 LINE",
"276 336 LINE",
"477 336 LINE SMOOTH",
"882 336 OFFCURVE",
"1087 507 OFFCURVE",
"1087 836 CURVE SMOOTH"
);
},
{
closed = 1;
nodes = (
"649 1104 LINE SMOOTH",
"869 1104 OFFCURVE",
"979 1012 OFFCURVE",
"979 829 CURVE SMOOTH",
"979 557 OFFCURVE",
"824 428 OFFCURVE",
"483 428 CURVE SMOOTH",
"293 428 LINE",
"438 1104 LINE"
);
}
);
};
layerId = "4C802D5D-2BAD-4759-8C93-835BB7B64EA1";
paths = (
{
closed = 1;
nodes = (
"205 0 LINE",
"276 336 LINE",
"477 336 LINE SMOOTH",
"628 336 OFFCURVE",
"751 360 OFFCURVE",
"846 406 CURVE SMOOTH",
"1006 485 OFFCURVE",
"1087 629 OFFCURVE",
"1087 836 CURVE SMOOTH",
"1087 1069 OFFCURVE",
"937 1196 OFFCURVE",
"670 1196 CURVE SMOOTH",
"457 1196 LINE",
"514 1462 LINE",
"412 1462 LINE",
"102 0 LINE"
);
},
{
closed = 1;
nodes = (
"438 1104 LINE",
"649 1104 LINE SMOOTH",
"869 1104 OFFCURVE",
"979 1012 OFFCURVE",
"979 829 CURVE SMOOTH",
"979 557 OFFCURVE",
"824 428 OFFCURVE",
"483 428 CURVE SMOOTH",
"293 428 LINE"
);
}
);
width = 1145;
},
{
anchors = (
{
name = bottom;
position = "{263, 0}";
},
{
name = top;
position = "{573, 1462}";
}
);
background = {
anchors = (
{
name = bottom;
position = "{263, 0}";
},
{
name = top;
position = "{573, 1462}";
}
);
paths = (
{
closed = 1;
nodes = (
"801 1082 OFFCURVE",
"676 1192 OFFCURVE",
"481 1192 CURVE SMOOTH",
"416 1192 LINE",
"473 1462 LINE",
"375 1462 LINE",
"66 0 LINE",
"164 0 LINE",
"233 334 LINE",
"330 334 LINE SMOOTH",
"415 334 OFFCURVE",
"502 355 OFFCURVE",
"572 399 CURVE SMOOTH",
"712 487 OFFCURVE",
"801 678 OFFCURVE",
"801 863 CURVE SMOOTH"
);
},
{
closed = 1;
nodes = (
"473 1096 LINE SMOOTH",
"637 1096 OFFCURVE",
"696 1012 OFFCURVE",
"696 848 CURVE SMOOTH",
"696 601 OFFCURVE",
"561 428 OFFCURVE",
"324 428 CURVE SMOOTH",
"254 428 LINE",
"395 1096 LINE"
);
}
);
};
layerId = "9047BFCD-DDCC-4357-AC30-29E5270711EF";
paths = (
{
closed = 1;
nodes = (
"164 0 LINE",
"233 334 LINE",
"330 334 LINE SMOOTH",
"415 334 OFFCURVE",
"502 355 OFFCURVE",
"572 399 CURVE SMOOTH",
"712 487 OFFCURVE",
"801 678 OFFCURVE",
"801 863 CURVE SMOOTH",
"801 1082 OFFCURVE",
"676 1192 OFFCURVE",
"481 1192 CURVE SMOOTH",
"416 1192 LINE",
"473 1462 LINE",
"375 1462 LINE",
"66 0 LINE"
);
},
{
closed = 1;
nodes = (
"395 1096 LINE",
"473 1096 LINE SMOOTH",
"637 1096 OFFCURVE",
"696 1012 OFFCURVE",
"696 848 CURVE SMOOTH",
"696 601 OFFCURVE",
"561 428 OFFCURVE",
"324 428 CURVE SMOOTH",
"254 428 LINE"
);
}
);
width = 756;
},
{
anchors = (
{
name = bottom;
position = "{521, 0}";
},
{
name = top;
position = "{552, 1462}";
}
);
background = {
anchors = (
{
name = bottom;
position = "{521, 0}";
},
{
name = top;
position = "{552, 1462}";
}
);
paths = (
{
closed = 1;
nodes = (
"1169 1127 OFFCURVE",
"1043 1245 OFFCURVE",
"809 1245 CURVE SMOOTH",
"726 1245 LINE",
"772 1462 LINE",
"424 1462 LINE",
"115 0 LINE",
"462 0 LINE",
"521 279 LINE",
"585 279 LINE SMOOTH",
"719 279 OFFCURVE",
"834 313 OFFCURVE",
"924 375 CURVE SMOOTH",
"1081 482 OFFCURVE",
"1169 671 OFFCURVE",
"1169 905 CURVE SMOOTH"
);
},
{
closed = 1;
nodes = (
"726 952 LINE SMOOTH",
"788 952 OFFCURVE",
"817 921 OFFCURVE",
"817 860 CURVE SMOOTH",
"817 728 OFFCURVE",
"734 573 OFFCURVE",
"604 573 CURVE SMOOTH",
"584 573 LINE",
"664 952 LINE"
);
}
);
};
layerId = "055178C8-6F6F-4B48-86C1-608D4439D248";
paths = (
{
closed = 1;
nodes = (
"462 0 LINE",
"521 279 LINE",
"585 279 LINE SMOOTH",
"719 279 OFFCURVE",
"834 313 OFFCURVE",
"924 375 CURVE SMOOTH",
"1081 482 OFFCURVE",
"1169 671 OFFCURVE",
"1169 905 CURVE SMOOTH",
"1169 1127 OFFCURVE",
"1043 1245 OFFCURVE",
"809 1245 CURVE SMOOTH",
"726 1245 LINE",
"772 1462 LINE",
"424 1462 LINE",
"115 0 LINE"
);
},
{
closed = 1;
nodes = (
"664 952 LINE",
"726 952 LINE SMOOTH",
"788 952 OFFCURVE",
"817 921 OFFCURVE",
"817 860 CURVE SMOOTH",
"817 728 OFFCURVE",
"734 573 OFFCURVE",
"604 573 CURVE SMOOTH",
"584 573 LINE"
);
}
);
width = 1042;
},
{
anchors = (
{
name = bottom;
position = "{518, 0}";
},
{
name = top;
position = "{828, 1462}";
}
);
background = {
anchors = (
{
name = bottom;
position = "{518, 0}";
},
{
name = top;
position = "{828, 1462}";
}
);
paths = (
{
closed = 1;
nodes = (
"424 0 LINE",
"481 274 LINE",
"567 274 LINE SMOOTH",
"967 274 OFFCURVE",
"1208 478 OFFCURVE",
"1208 811 CURVE SMOOTH",
"1208 1094 OFFCURVE",
"1023 1251 OFFCURVE",
"688 1251 CURVE",
"733 1462 LINE",
"342 1462 LINE",
"33 0 LINE"
);
},
{
closed = 1;
nodes = (
"668 932 LINE SMOOTH",
"756 932 OFFCURVE",
"817 876 OFFCURVE",
"817 799 CURVE SMOOTH",
"817 656 OFFCURVE",
"739 594 OFFCURVE",
"614 594 CURVE SMOOTH",
"551 594 LINE",
"623 932 LINE"
);
}
);
};
layerId = "0B5E954E-D3E5-4A16-AD17-8B1BCB8BDBD4";
paths = (
{
closed = 1;
nodes = (
"424 0 LINE",
"481 274 LINE",
"567 274 LINE SMOOTH",
"715 274 OFFCURVE",
"841 302 OFFCURVE",
"942 354 CURVE SMOOTH",
"1112 443 OFFCURVE",
"1208 601 OFFCURVE",
"1208 811 CURVE SMOOTH",
"1208 1132 OFFCURVE",
"969 1291 OFFCURVE",
"544 1242 CURVE",
"655 1097 LINE",
"733 1462 LINE",
"342 1462 LINE",
"33 0 LINE"
);
},
{
closed = 1;
nodes = (
"623 932 LINE",
"668 932 LINE SMOOTH",
"756 932 OFFCURVE",
"817 876 OFFCURVE",
"817 799 CURVE SMOOTH",
"817 656 OFFCURVE",
"739 594 OFFCURVE",
"614 594 CURVE SMOOTH",
"551 594 LINE"
);
}
);
width = 1276;
}
);
leftKerningGroup = H;
rightKerningGroup = Thorn;
unicode = 00DE;
},
{
glyphname = Q;
layers = (
{
anchors = (
{
name = bottom;
position = "{616, 0}";
},
{
name = top;
position = "{927, 1462}";
}
);
background = {
anchors = (
{
name = bottom;
position = "{616, 0}";
},
{
name = top;
position = "{927, 1462}";
}
);
paths = (
{
closed = 1;
nodes = (
"1403 1278 OFFCURVE",
"1222 1483 OFFCURVE",
"893 1483 CURVE SMOOTH",
"752 1483 OFFCURVE",
"628 1445 OFFCURVE",
"520 1368 CURVE SMOOTH",
"304 1214 OFFCURVE",
"172 908 OFFCURVE",
"172 559 CURVE SMOOTH",
"172 184 OFFCURVE",
"359 -20 OFFCURVE",
"692 -20 CURVE",
"766 -16 LINE",
"997 -348 LINE",
"1139 -348 LINE",
"872 2 LINE",
"977 32 OFFCURVE",
"1069 88 OFFCURVE",
"1147 169 CURVE SMOOTH",
"1302 332 OFFCURVE",
"1403 623 OFFCURVE",
"1403 911 CURVE SMOOTH"
);
},
{
closed = 1;
nodes = (
"1154 1389 OFFCURVE",
"1294 1221 OFFCURVE",
"1294 901 CURVE SMOOTH",
"1294 748 OFFCURVE",
"1268 605 OFFCURVE",
"1215 471 CURVE SMOOTH",
"1110 202 OFFCURVE",
"930 72 OFFCURVE",
"705 72 CURVE SMOOTH",
"425 72 OFFCURVE",
"276 246 OFFCURVE",
"276 573 CURVE SMOOTH",
"276 720 OFFCURVE",
"303 859 OFFCURVE",
"356 990 CURVE SMOOTH",
"463 1253 OFFCURVE",
"647 1389 OFFCURVE",
"879 1389 CURVE SMOOTH"
);
}
);
};
layerId = "4C802D5D-2BAD-4759-8C93-835BB7B64EA1";
paths = (
{
closed = 1;
nodes = (
"1139 -348 LINE",
"872 2 LINE",
"977 32 OFFCURVE",
"1069 88 OFFCURVE",
"1147 169 CURVE SMOOTH",
"1302 332 OFFCURVE",
"1403 623 OFFCURVE",
"1403 911 CURVE SMOOTH",
"1403 1278 OFFCURVE",
"1222 1483 OFFCURVE",
"893 1483 CURVE SMOOTH",
"752 1483 OFFCURVE",
"628 1445 OFFCURVE",
"520 1368 CURVE SMOOTH",
"304 1214 OFFCURVE",
"172 908 OFFCURVE",
"172 559 CURVE SMOOTH",
"172 184 OFFCURVE",
"359 -20 OFFCURVE",
"692 -20 CURVE",
"717 -20 OFFCURVE",
"741 -18 OFFCURVE",
"766 -16 CURVE",
"997 -348 LINE"
);
},
{
closed = 1;
nodes = (
"425 72 OFFCURVE",
"276 246 OFFCURVE",
"276 573 CURVE SMOOTH",
"276 720 OFFCURVE",
"303 859 OFFCURVE",
"356 990 CURVE SMOOTH",
"463 1253 OFFCURVE",
"647 1389 OFFCURVE",
"879 1389 CURVE SMOOTH",
"1154 1389 OFFCURVE",
"1294 1221 OFFCURVE",
"1294 901 CURVE SMOOTH",
"1294 748 OFFCURVE",
"1268 605 OFFCURVE",
"1215 471 CURVE SMOOTH",
"1110 202 OFFCURVE",
"930 72 OFFCURVE",
"705 72 CURVE SMOOTH"
);
}
);
width = 1464;
},
{
anchors = (
{
name = bottom;
position = "{364, 0}";
},
{
name = top;
position = "{674, 1462}";
}
);
background = {
anchors = (
{
name = bottom;
position = "{364, 0}";
},
{
name = top;
position = "{674, 1462}";
}
);
paths = (
{
closed = 1;
nodes = (
"977 1348 OFFCURVE",
"890 1483 OFFCURVE",
"705 1483 CURVE SMOOTH",
"548 1483 OFFCURVE",
"411 1385 OFFCURVE",
"306 1170 CURVE SMOOTH",
"203 959 OFFCURVE",
"135 642 OFFCURVE",
"135 394 CURVE SMOOTH",
"135 113 OFFCURVE",
"222 -20 OFFCURVE",
"412 -20 CURVE SMOOTH",
"422 -20 OFFCURVE",
"432 -19 OFFCURVE",
"442 -18 CURVE",
"539 -348 LINE",
"655 -348 LINE",
"541 8 LINE",
"621 42 OFFCURVE",
"695 112 OFFCURVE",
"759 215 CURVE SMOOTH",
"886 419 OFFCURVE",
"977 768 OFFCURVE",
"977 1061 CURVE SMOOTH"
);
},
{
closed = 1;
nodes = (
"233 508 OFFCURVE",
"254 682 OFFCURVE",
"296 851 CURVE SMOOTH",
"382 1198 OFFCURVE",
"521 1389 OFFCURVE",
"697 1389 CURVE SMOOTH",
"820 1389 OFFCURVE",
"879 1295 OFFCURVE",
"879 1090 CURVE SMOOTH",
"879 965 OFFCURVE",
"857 790 OFFCURVE",
"816 625 CURVE SMOOTH",
"731 282 OFFCURVE",
"588 74 OFFCURVE",
"414 74 CURVE SMOOTH",
"294 74 OFFCURVE",
"233 173 OFFCURVE",
"233 384 CURVE SMOOTH"
);
}
);
};
layerId = "9047BFCD-DDCC-4357-AC30-29E5270711EF";
paths = (
{
closed = 1;
nodes = (
"655 -348 LINE",
"541 8 LINE",
"621 42 OFFCURVE",
"695 112 OFFCURVE",
"759 215 CURVE SMOOTH",
"886 419 OFFCURVE",
"977 768 OFFCURVE",
"977 1061 CURVE SMOOTH",
"977 1348 OFFCURVE",
"890 1483 OFFCURVE",
"705 1483 CURVE SMOOTH",
"548 1483 OFFCURVE",
"411 1385 OFFCURVE",
"306 1170 CURVE SMOOTH",
"203 959 OFFCURVE",
"135 642 OFFCURVE",
"135 394 CURVE SMOOTH",
"135 113 OFFCURVE",
"222 -20 OFFCURVE",
"412 -20 CURVE SMOOTH",
"422 -20 OFFCURVE",
"432 -19 OFFCURVE",
"442 -18 CURVE",
"539 -348 LINE"
);
},
{
closed = 1;
nodes = (
"294 74 OFFCURVE",
"233 173 OFFCURVE",
"233 384 CURVE SMOOTH",
"233 508 OFFCURVE",
"254 682 OFFCURVE",
"296 851 CURVE SMOOTH",
"382 1198 OFFCURVE",
"521 1389 OFFCURVE",
"697 1389 CURVE SMOOTH",
"820 1389 OFFCURVE",
"879 1295 OFFCURVE",
"879 1090 CURVE SMOOTH",
"879 965 OFFCURVE",
"857 790 OFFCURVE",
"816 625 CURVE SMOOTH",
"731 282 OFFCURVE",
"588 74 OFFCURVE",
"414 74 CURVE SMOOTH"
);
}
);
width = 958;
},
{
anchors = (
{
name = bottom;
position = "{523, 0}";
},
{
name = top;
position = "{834, 1462}";
}
);
background = {
anchors = (
{
name = bottom;
position = "{523, 0}";
},
{
name = top;
position = "{834, 1462}";
}
);
paths = (
{
closed = 1;
nodes = (
"1260 1306 OFFCURVE",
"1100 1486 OFFCURVE",
"800 1486 CURVE SMOOTH",
"602 1486 OFFCURVE",
"437 1404 OFFCURVE",
"313 1251 CURVE SMOOTH",
"159 1061 OFFCURVE",
"67 737 OFFCURVE",
"67 483 CURVE SMOOTH",
"67 169 OFFCURVE",
"217 -9 OFFCURVE",
"500 -19 CURVE SMOOTH",
"509 -19 OFFCURVE",
"518 -19 OFFCURVE",
"528 -20 CURVE",
"649 -348 LINE",
"1034 -348 LINE",
"838 61 LINE",
"925 115 OFFCURVE",
"999 191 OFFCURVE",
"1060 282 CURVE SMOOTH",
"1191 479 OFFCURVE",
"1260 742 OFFCURVE",
"1260 983 CURVE SMOOTH"
);
},
{
closed = 1;
nodes = (
"412 541 OFFCURVE",
"422 616 OFFCURVE",
"441 705 CURVE SMOOTH",
"506 1015 OFFCURVE",
"631 1183 OFFCURVE",
"788 1183 CURVE SMOOTH",
"874 1183 OFFCURVE",
"916 1123 OFFCURVE",
"916 998 CURVE SMOOTH",
"916 936 OFFCURVE",
"906 858 OFFCURVE",
"886 764 CURVE SMOOTH",
"820 450 OFFCURVE",
"701 284 OFFCURVE",
"547 284 CURVE SMOOTH",
"456 284 OFFCURVE",
"412 350 OFFCURVE",
"412 480 CURVE SMOOTH"
);
}
);
};
layerId = "055178C8-6F6F-4B48-86C1-608D4439D248";
paths = (
{
closed = 1;
nodes = (
"1034 -348 LINE",
"838 61 LINE",
"925 115 OFFCURVE",
"999 191 OFFCURVE",
"1060 282 CURVE SMOOTH",
"1191 479 OFFCURVE",
"1260 742 OFFCURVE",
"1260 983 CURVE SMOOTH",
"1260 1306 OFFCURVE",
"1100 1486 OFFCURVE",
"800 1486 CURVE SMOOTH",
"602 1486 OFFCURVE",
"437 1404 OFFCURVE",
"313 1251 CURVE SMOOTH",
"159 1061 OFFCURVE",
"67 737 OFFCURVE",
"67 483 CURVE SMOOTH",
"67 169 OFFCURVE",
"217 -9 OFFCURVE",
"500 -19 CURVE SMOOTH",
"509 -19 OFFCURVE",
"518 -19 OFFCURVE",
"528 -20 CURVE",
"649 -348 LINE"
);
},
{
closed = 1;
nodes = (
"456 284 OFFCURVE",
"412 350 OFFCURVE",
"412 480 CURVE SMOOTH",
"412 541 OFFCURVE",
"422 616 OFFCURVE",
"441 705 CURVE SMOOTH",
"506 1015 OFFCURVE",
"631 1183 OFFCURVE",
"788 1183 CURVE SMOOTH",
"874 1183 OFFCURVE",
"916 1123 OFFCURVE",
"916 998 CURVE SMOOTH",
"916 936 OFFCURVE",
"906 858 OFFCURVE",
"886 764 CURVE SMOOTH",
"820 450 OFFCURVE",
"701 284 OFFCURVE",
"547 284 CURVE SMOOTH"
);
}
);
width = 1285;
},
{
anchors = (
{
name = bottom;
position = "{635, 0}";
},
{
name = top;
position = "{945, 1462}";
}
);
background = {
anchors = (
{
name = bottom;
position = "{635, 0}";
},
{
name = top;
position = "{945, 1462}";
}
);
paths = (
{
closed = 1;
nodes = (
"746 1485 OFFCURVE",
"608 1446 OFFCURVE",
"489 1368 CURVE SMOOTH",
"249 1211 OFFCURVE",
"104 896 OFFCURVE",
"104 543 CURVE SMOOTH",
"104 191 OFFCURVE",
"303 -20 OFFCURVE",
"647 -20 CURVE SMOOTH",
"659 -20 LINE",
"821 -348 LINE",
"1260 -348 LINE",
"1022 74 LINE",
"1283 221 OFFCURVE",
"1446 549 OFFCURVE",
"1446 922 CURVE SMOOTH",
"1446 1274 OFFCURVE",
"1247 1485 OFFCURVE",
"903 1485 CURVE SMOOTH"
);
},
{
closed = 1;
nodes = (
"986 1157 OFFCURVE",
"1051 1078 OFFCURVE",
"1051 926 CURVE SMOOTH",
"1051 814 OFFCURVE",
"1035 710 OFFCURVE",
"1002 615 CURVE SMOOTH",
"937 423 OFFCURVE",
"818 309 OFFCURVE",
"682 309 CURVE SMOOTH",
"566 309 OFFCURVE",
"500 386 OFFCURVE",
"500 539 CURVE SMOOTH",
"500 650 OFFCURVE",
"516 753 OFFCURVE",
"548 848 CURVE SMOOTH",
"612 1039 OFFCURVE",
"733 1157 OFFCURVE",
"870 1157 CURVE SMOOTH"
);
}
);
};
layerId = "0B5E954E-D3E5-4A16-AD17-8B1BCB8BDBD4";
paths = (
{
closed = 1;
nodes = (
"1260 -348 LINE",
"1022 74 LINE",
"1098 117 OFFCURVE",
"1166 175 OFFCURVE",
"1223 245 CURVE SMOOTH",
"1364 416 OFFCURVE",
"1446 657 OFFCURVE",
"1446 922 CURVE SMOOTH",
"1446 1274 OFFCURVE",
"1247 1485 OFFCURVE",
"903 1485 CURVE SMOOTH",
"746 1485 OFFCURVE",
"608 1446 OFFCURVE",
"489 1368 CURVE SMOOTH",
"249 1211 OFFCURVE",
"104 896 OFFCURVE",
"104 543 CURVE SMOOTH",
"104 191 OFFCURVE",
"303 -20 OFFCURVE",
"647 -20 CURVE SMOOTH",
"651 -20 OFFCURVE",
"655 -20 OFFCURVE",
"659 -20 CURVE",
"821 -348 LINE"
);
},
{
closed = 1;
nodes = (
"566 309 OFFCURVE",
"500 386 OFFCURVE",
"500 539 CURVE SMOOTH",
"500 650 OFFCURVE",
"516 753 OFFCURVE",
"548 848 CURVE SMOOTH",
"612 1039 OFFCURVE",
"733 1157 OFFCURVE",
"870 1157 CURVE SMOOTH",
"986 1157 OFFCURVE",
"1051 1078 OFFCURVE",
"1051 926 CURVE SMOOTH",
"1051 814 OFFCURVE",
"1035 710 OFFCURVE",
"1002 615 CURVE SMOOTH",
"937 423 OFFCURVE",
"818 309 OFFCURVE",
"682 309 CURVE SMOOTH"
);
}
);
width = 1509;
}
);
leftKerningGroup = O;
rightKerningGroup = O;
unicode = 0051;
},
{
glyphname = R;
layers = (
{
anchors = (
{
name = bottom;
position = "{457, 0}";
},
{
name = top;
position = "{768, 1462}";
}
);
background = {
anchors = (
{
name = bottom;
position = "{457, 0}";
},
{
name = top;
position = "{768, 1462}";
}
);
paths = (
{
closed = 1;
nodes = (
"870 0 LINE",
"981 0 LINE",
"968 37 OFFCURVE",
"894 253 OFFCURVE",
"760 647 CURVE",
"997 688 OFFCURVE",
"1145 859 OFFCURVE",
"1145 1102 CURVE SMOOTH",
"1145 1342 OFFCURVE",
"1002 1462 OFFCURVE",
"715 1462 CURVE SMOOTH",
"412 1462 LINE",
"102 0 LINE",
"205 0 LINE",
"336 633 LINE",
"659 633 LINE"
);
},
{
closed = 1;
nodes = (
"707 1370 LINE SMOOTH",
"926 1370 OFFCURVE",
"1036 1281 OFFCURVE",
"1036 1102 CURVE SMOOTH",
"1036 854 OFFCURVE",
"887 725 OFFCURVE",
"610 725 CURVE SMOOTH",
"358 725 LINE",
"496 1370 LINE"
);
}
);
};
layerId = "4C802D5D-2BAD-4759-8C93-835BB7B64EA1";
paths = (
{
closed = 1;
nodes = (
"205 0 LINE",
"336 633 LINE",
"659 633 LINE",
"870 0 LINE",
"981 0 LINE",
"760 647 LINE",
"847 662 OFFCURVE",
"922 695 OFFCURVE",
"982 742 CURVE SMOOTH",
"1086 823 OFFCURVE",
"1145 948 OFFCURVE",
"1145 1102 CURVE SMOOTH",
"1145 1342 OFFCURVE",
"1002 1462 OFFCURVE",
"715 1462 CURVE SMOOTH",
"412 1462 LINE",
"102 0 LINE"
);
},
{
closed = 1;
nodes = (
"496 1370 LINE",
"707 1370 LINE SMOOTH",
"926 1370 OFFCURVE",
"1036 1281 OFFCURVE",
"1036 1102 CURVE SMOOTH",
"1036 854 OFFCURVE",
"887 725 OFFCURVE",
"610 725 CURVE SMOOTH",
"358 725 LINE"
);
}
);
width = 1145;
},
{
anchors = (
{
name = bottom;
position = "{323, 0}";
},
{
name = top;
position = "{603, 1462}";
}
);
background = {
anchors = (
{
name = bottom;
position = "{323, 0}";
},
{
name = top;
position = "{603, 1462}";
}
);
paths = (
{
closed = 1;
nodes = (
"856 1346 OFFCURVE",
"742 1462 OFFCURVE",
"555 1462 CURVE SMOOTH",
"375 1462 LINE",
"66 0 LINE",
"164 0 LINE",
"299 639 LINE",
"444 639 LINE",
"561 0 LINE",
"668 0 LINE",
"547 657 LINE",
"607 669 OFFCURVE",
"661 699 OFFCURVE",
"708 746 CURVE SMOOTH",
"803 841 OFFCURVE",
"856 993 OFFCURVE",
"856 1153 CURVE SMOOTH"
);
},
{
closed = 1;
nodes = (
"530 1366 LINE SMOOTH",
"673 1366 OFFCURVE",
"754 1288 OFFCURVE",
"754 1145 CURVE SMOOTH",
"754 880 OFFCURVE",
"631 729 OFFCURVE",
"422 729 CURVE SMOOTH",
"317 729 LINE",
"453 1366 LINE"
);
}
);
};
layerId = "9047BFCD-DDCC-4357-AC30-29E5270711EF";
paths = (
{
closed = 1;
nodes = (
"164 0 LINE",
"299 639 LINE",
"444 639 LINE",
"561 0 LINE",
"668 0 LINE",
"547 657 LINE",
"607 669 OFFCURVE",
"661 699 OFFCURVE",
"708 746 CURVE SMOOTH",
"803 841 OFFCURVE",
"856 993 OFFCURVE",
"856 1153 CURVE SMOOTH",
"856 1346 OFFCURVE",
"742 1462 OFFCURVE",
"555 1462 CURVE SMOOTH",
"375 1462 LINE",
"66 0 LINE"
);
},
{
closed = 1;
nodes = (
"453 1366 LINE",
"530 1366 LINE SMOOTH",
"673 1366 OFFCURVE",
"754 1288 OFFCURVE",
"754 1145 CURVE SMOOTH",
"754 880 OFFCURVE",
"631 729 OFFCURVE",
"422 729 CURVE SMOOTH",
"317 729 LINE"
);
}
);
width = 795;
},
{
anchors = (
{
name = bottom;
position = "{545, 0}";
},
{
name = top;
position = "{876, 1462}";
}
);
background = {
anchors = (
{
name = bottom;
position = "{545, 0}";
},
{
name = top;
position = "{876, 1462}";
}
);
paths = (
{
closed = 1;
nodes = (
"1219 1354 OFFCURVE",
"1090 1462 OFFCURVE",
"835 1462 CURVE SMOOTH",
"424 1462 LINE",
"115 0 LINE",
"462 0 LINE",
"576 539 LINE",
"639 539 LINE",
"738 0 LINE",
"1098 0 LINE",
"964 624 LINE",
"1029 663 OFFCURVE",
"1081 716 OFFCURVE",
"1121 779 CURVE SMOOTH",
"1186 882 OFFCURVE",
"1219 1009 OFFCURVE",
"1219 1137 CURVE SMOOTH"
);
},
{
closed = 1;
nodes = (
"772 1167 LINE SMOOTH",
"839 1167 OFFCURVE",
"868 1150 OFFCURVE",
"868 1095 CURVE SMOOTH",
"868 964 OFFCURVE",
"796 835 OFFCURVE",
"668 835 CURVE SMOOTH",
"639 835 LINE",
"709 1167 LINE"
);
}
);
};
layerId = "055178C8-6F6F-4B48-86C1-608D4439D248";
paths = (
{
closed = 1;
nodes = (
"462 0 LINE",
"576 539 LINE",
"639 539 LINE",
"738 0 LINE",
"1098 0 LINE",
"964 624 LINE",
"1029 663 OFFCURVE",
"1081 716 OFFCURVE",
"1121 779 CURVE SMOOTH",
"1186 882 OFFCURVE",
"1219 1009 OFFCURVE",
"1219 1137 CURVE SMOOTH",
"1219 1354 OFFCURVE",
"1090 1462 OFFCURVE",
"835 1462 CURVE SMOOTH",
"424 1462 LINE",
"115 0 LINE"
);
},
{
closed = 1;
nodes = (
"709 1167 LINE",
"772 1167 LINE SMOOTH",
"839 1167 OFFCURVE",
"868 1150 OFFCURVE",
"868 1095 CURVE SMOOTH",
"868 964 OFFCURVE",
"796 835 OFFCURVE",
"668 835 CURVE SMOOTH",
"639 835 LINE"
);
}
);
width = 1090;
},
{
anchors = (
{
name = bottom;
position = "{546, 0}";
},
{
name = top;
position = "{856, 1462}";
}
);
background = {
anchors = (
{
name = bottom;
position = "{546, 0}";
},
{
name = top;
position = "{856, 1462}";
}
);
paths = (
{
closed = 1;
nodes = (
"805 0 LINE",
"1231 0 LINE",
"1191 96 LINE",
"967 612 LINE",
"1154 693 OFFCURVE",
"1249 853 OFFCURVE",
"1249 1061 CURVE SMOOTH",
"1249 1329 OFFCURVE",
"1065 1462 OFFCURVE",
"729 1462 CURVE SMOOTH",
"342 1462 LINE",
"33 0 LINE",
"424 0 LINE",
"537 532 LINE",
"610 532 LINE"
);
},
{
closed = 1;
nodes = (
"723 1163 LINE SMOOTH",
"811 1163 OFFCURVE",
"858 1119 OFFCURVE",
"858 1036 CURVE SMOOTH",
"858 905 OFFCURVE",
"778 829 OFFCURVE",
"651 829 CURVE SMOOTH",
"600 829 LINE",
"670 1163 LINE"
);
}
);
};
layerId = "0B5E954E-D3E5-4A16-AD17-8B1BCB8BDBD4";
paths = (
{
closed = 1;
nodes = (
"424 0 LINE",
"537 532 LINE",
"610 532 LINE",
"805 0 LINE",
"1231 0 LINE",
"967 612 LINE",
"1032 640 OFFCURVE",
"1086 678 OFFCURVE",
"1129 725 CURVE SMOOTH",
"1209 811 OFFCURVE",
"1249 926 OFFCURVE",
"1249 1061 CURVE SMOOTH",
"1249 1329 OFFCURVE",
"1065 1462 OFFCURVE",
"729 1462 CURVE SMOOTH",
"342 1462 LINE",
"33 0 LINE"
);
},
{
closed = 1;
nodes = (
"670 1163 LINE",
"723 1163 LINE SMOOTH",
"811 1163 OFFCURVE",
"858 1119 OFFCURVE",
"858 1036 CURVE SMOOTH",
"858 905 OFFCURVE",
"778 829 OFFCURVE",
"651 829 CURVE SMOOTH",
"600 829 LINE"
);
}
);
width = 1331;
}
);
leftKerningGroup = H;
rightKerningGroup = R;
unicode = 0052;
},
{
glyphname = S;
layers = (
{
anchors = (
{
name = bottom;
position = "{394, 0}";
},
{
name = top;
position = "{705, 1462}";
}
);
background = {
anchors = (
{
name = bottom;
position = "{394, 0}";
},
{
name = top;
position = "{705, 1462}";
}
);
paths = (
{
closed = 1;
nodes = (
"895 516 OFFCURVE",
"856 595 OFFCURVE",
"777 663 CURVE SMOOTH",
"737 697 OFFCURVE",
"666 740 OFFCURVE",
"563 793 CURVE SMOOTH",
"386 881 OFFCURVE",
"332 959 OFFCURVE",
"332 1096 CURVE SMOOTH",
"332 1277 OFFCURVE",
"471 1397 OFFCURVE",
"688 1397 CURVE SMOOTH",
"793 1397 OFFCURVE",
"916 1364 OFFCURVE",
"1004 1311 CURVE",
"1036 1405 LINE",
"920 1462 OFFCURVE",
"820 1483 OFFCURVE",
"688 1483 CURVE SMOOTH",
"601 1483 OFFCURVE",
"522 1467 OFFCURVE",
"451 1434 CURVE SMOOTH",
"310 1368 OFFCURVE",
"227 1244 OFFCURVE",
"227 1087 CURVE SMOOTH",
"227 930 OFFCURVE",
"296 818 OFFCURVE",
"496 717 CURVE",
"597 661 OFFCURVE",
"671 621 OFFCURVE",
"719 574 CURVE SMOOTH",
"766 527 OFFCURVE",
"788 472 OFFCURVE",
"788 391 CURVE SMOOTH",
"788 196 OFFCURVE",
"636 72 OFFCURVE",
"385 72 CURVE SMOOTH",
"262 72 OFFCURVE",
"146 103 OFFCURVE",
"37 164 CURVE",
"37 55 LINE",
"153 0 OFFCURVE",
"264 -20 OFFCURVE",
"381 -20 CURVE SMOOTH",
"484 -20 OFFCURVE",
"574 -3 OFFCURVE",
"650 30 CURVE SMOOTH",
"802 97 OFFCURVE",
"895 235 OFFCURVE",
"895 403 CURVE SMOOTH"
);
}
);
};
layerId = "4C802D5D-2BAD-4759-8C93-835BB7B64EA1";
paths = (
{
closed = 1;
nodes = (
"674 -20 OFFCURVE",
"895 130 OFFCURVE",
"895 403 CURVE SMOOTH",
"895 516 OFFCURVE",
"856 595 OFFCURVE",
"777 663 CURVE SMOOTH",
"737 697 OFFCURVE",
"666 740 OFFCURVE",
"563 793 CURVE SMOOTH",
"386 881 OFFCURVE",
"332 959 OFFCURVE",
"332 1096 CURVE SMOOTH",
"332 1161 OFFCURVE",
"350 1218 OFFCURVE",
"382 1264 CURVE SMOOTH",
"441 1347 OFFCURVE",
"549 1397 OFFCURVE",
"688 1397 CURVE SMOOTH",
"793 1397 OFFCURVE",
"916 1364 OFFCURVE",
"1004 1311 CURVE",
"1036 1405 LINE",
"920 1462 OFFCURVE",
"820 1483 OFFCURVE",
"688 1483 CURVE SMOOTH",
"601 1483 OFFCURVE",
"522 1467 OFFCURVE",
"451 1434 CURVE SMOOTH",
"310 1368 OFFCURVE",
"227 1244 OFFCURVE",
"227 1087 CURVE SMOOTH",
"227 930 OFFCURVE",
"296 818 OFFCURVE",
"496 717 CURVE",
"597 661 OFFCURVE",
"671 621 OFFCURVE",
"719 574 CURVE SMOOTH",
"766 527 OFFCURVE",
"788 472 OFFCURVE",
"788 391 CURVE SMOOTH",
"788 196 OFFCURVE",
"636 72 OFFCURVE",
"385 72 CURVE SMOOTH",
"262 72 OFFCURVE",
"146 103 OFFCURVE",
"37 164 CURVE",
"37 55 LINE",
"153 0 OFFCURVE",
"264 -20 OFFCURVE",
"381 -20 CURVE SMOOTH"
);
}
);
width = 1020;
},
{
anchors = (
{
name = bottom;
position = "{249, 0}";
},
{
name = top;
position = "{589, 1462}";
}
);
background = {
anchors = (
{
name = bottom;
position = "{249, 0}";
},
{
name = top;
position = "{589, 1462}";
}
);
paths = (
{
closed = 1;
nodes = (
"655 467 OFFCURVE",
"647 509 OFFCURVE",
"636 549 CURVE SMOOTH",
"606 658 OFFCURVE",
"569 698 OFFCURVE",
"461 813 CURVE SMOOTH",
"371 909 OFFCURVE",
"315 970 OFFCURVE",
"315 1097 CURVE SMOOTH",
"315 1154 OFFCURVE",
"326 1202 OFFCURVE",
"349 1246 CURVE SMOOTH",
"395 1334 OFFCURVE",
"478 1386 OFFCURVE",
"593 1386 CURVE SMOOTH",
"663 1386 OFFCURVE",
"730 1367 OFFCURVE",
"791 1329 CURVE",
"844 1423 LINE",
"796 1455 OFFCURVE",
"693 1483 OFFCURVE",
"598 1483 CURVE SMOOTH",
"526 1483 OFFCURVE",
"456 1467 OFFCURVE",
"398 1434 CURVE SMOOTH",
"284 1370 OFFCURVE",
"213 1242 OFFCURVE",
"213 1082 CURVE SMOOTH",
"213 940 OFFCURVE",
"268 864 OFFCURVE",
"383 739 CURVE SMOOTH",
"501 611 OFFCURVE",
"553 546 OFFCURVE",
"553 391 CURVE SMOOTH",
"553 197 OFFCURVE",
"450 74 OFFCURVE",
"265 74 CURVE SMOOTH",
"183 74 OFFCURVE",
"90 98 OFFCURVE",
"10 145 CURVE",
"10 37 LINE",
"59 6 OFFCURVE",
"160 -20 OFFCURVE",
"261 -20 CURVE SMOOTH",
"508 -20 OFFCURVE",
"655 134 OFFCURVE",
"655 404 CURVE SMOOTH"
);
}
);
};
layerId = "9047BFCD-DDCC-4357-AC30-29E5270711EF";
paths = (
{
closed = 1;
nodes = (
"508 -20 OFFCURVE",
"655 134 OFFCURVE",
"655 404 CURVE SMOOTH",
"655 467 OFFCURVE",
"647 509 OFFCURVE",
"636 549 CURVE SMOOTH",
"606 658 OFFCURVE",
"569 698 OFFCURVE",
"461 813 CURVE SMOOTH",
"371 909 OFFCURVE",
"315 970 OFFCURVE",
"315 1097 CURVE SMOOTH",
"315 1154 OFFCURVE",
"326 1202 OFFCURVE",
"349 1246 CURVE SMOOTH",
"395 1334 OFFCURVE",
"478 1386 OFFCURVE",
"593 1386 CURVE SMOOTH",
"663 1386 OFFCURVE",
"730 1367 OFFCURVE",
"791 1329 CURVE",
"844 1423 LINE",
"796 1455 OFFCURVE",
"693 1483 OFFCURVE",
"598 1483 CURVE SMOOTH",
"526 1483 OFFCURVE",
"456 1467 OFFCURVE",
"398 1434 CURVE SMOOTH",
"284 1370 OFFCURVE",
"213 1242 OFFCURVE",
"213 1082 CURVE SMOOTH",
"213 940 OFFCURVE",
"268 864 OFFCURVE",
"383 739 CURVE SMOOTH",
"439 678 OFFCURVE",
"481 631 OFFCURVE",
"509 582 CURVE SMOOTH",
"539 528 OFFCURVE",
"553 472 OFFCURVE",
"553 391 CURVE SMOOTH",
"553 197 OFFCURVE",
"450 74 OFFCURVE",
"265 74 CURVE SMOOTH",
"183 74 OFFCURVE",
"90 98 OFFCURVE",
"10 145 CURVE",
"10 37 LINE",
"59 6 OFFCURVE",
"160 -20 OFFCURVE",
"261 -20 CURVE SMOOTH"
);
}
);
width = 727;
},
{
anchors = (
{
name = bottom;
position = "{291, 0}";
},
{
name = top;
position = "{669, 1462}";
}
);
background = {
anchors = (
{
name = bottom;
position = "{291, 0}";
},
{
name = top;
position = "{669, 1462}";
}
);
paths = (
{
closed = 1;
nodes = (
"789 531 OFFCURVE",
"775 588 OFFCURVE",
"752 640 CURVE SMOOTH",
"718 717 OFFCURVE",
"662 780 OFFCURVE",
"609 829 CURVE SMOOTH",
"519 911 OFFCURVE",
"501 976 OFFCURVE",
"501 1016 CURVE SMOOTH",
"501 1049 OFFCURVE",
"513 1086 OFFCURVE",
"535 1117 CURVE SMOOTH",
"562 1154 OFFCURVE",
"602 1182 OFFCURVE",
"651 1182 CURVE SMOOTH",
"720 1182 OFFCURVE",
"803 1130 OFFCURVE",
"826 1112 CURVE",
"975 1366 LINE",
"866 1442 OFFCURVE",
"759 1483 OFFCURVE",
"634 1483 CURVE SMOOTH",
"552 1483 OFFCURVE",
"479 1468 OFFCURVE",
"417 1441 CURVE SMOOTH",
"250 1367 OFFCURVE",
"156 1203 OFFCURVE",
"156 987 CURVE SMOOTH",
"156 839 OFFCURVE",
"217 734 OFFCURVE",
"322 637 CURVE SMOOTH",
"417 550 OFFCURVE",
"437 473 OFFCURVE",
"437 426 CURVE SMOOTH",
"437 342 OFFCURVE",
"371 278 OFFCURVE",
"272 278 CURVE SMOOTH",
"199 278 OFFCURVE",
"104 315 OFFCURVE",
"1 396 CURVE",
"-48 73 LINE",
"33 17 OFFCURVE",
"148 -20 OFFCURVE",
"290 -20 CURVE SMOOTH",
"608 -20 OFFCURVE",
"789 147 OFFCURVE",
"789 466 CURVE SMOOTH"
);
}
);
};
layerId = "055178C8-6F6F-4B48-86C1-608D4439D248";
paths = (
{
closed = 1;
nodes = (
"608 -20 OFFCURVE",
"789 147 OFFCURVE",
"789 466 CURVE SMOOTH",
"789 531 OFFCURVE",
"775 588 OFFCURVE",
"752 640 CURVE SMOOTH",
"718 717 OFFCURVE",
"662 780 OFFCURVE",
"609 829 CURVE SMOOTH",
"519 911 OFFCURVE",
"501 976 OFFCURVE",
"501 1016 CURVE SMOOTH",
"501 1049 OFFCURVE",
"513 1086 OFFCURVE",
"535 1117 CURVE SMOOTH",
"562 1154 OFFCURVE",
"602 1182 OFFCURVE",
"651 1182 CURVE SMOOTH",
"720 1182 OFFCURVE",
"803 1130 OFFCURVE",
"826 1112 CURVE",
"975 1366 LINE",
"866 1442 OFFCURVE",
"759 1483 OFFCURVE",
"634 1483 CURVE SMOOTH",
"552 1483 OFFCURVE",
"479 1468 OFFCURVE",
"417 1441 CURVE SMOOTH",
"250 1367 OFFCURVE",
"156 1203 OFFCURVE",
"156 987 CURVE SMOOTH",
"156 839 OFFCURVE",
"217 734 OFFCURVE",
"322 637 CURVE SMOOTH",
"366 597 OFFCURVE",
"393 559 OFFCURVE",
"411 525 CURVE SMOOTH",
"431 486 OFFCURVE",
"437 451 OFFCURVE",
"437 426 CURVE SMOOTH",
"437 342 OFFCURVE",
"371 278 OFFCURVE",
"272 278 CURVE SMOOTH",
"199 278 OFFCURVE",
"104 315 OFFCURVE",
"1 396 CURVE",
"-48 73 LINE",
"33 17 OFFCURVE",
"148 -20 OFFCURVE",
"290 -20 CURVE SMOOTH"
);
}
);
width = 862;
},
{
anchors = (
{
name = bottom;
position = "{441, 0}";
},
{
name = top;
position = "{751, 1462}";
}
);
background = {
anchors = (
{
name = bottom;
position = "{441, 0}";
},
{
name = top;
position = "{751, 1462}";
}
);
paths = (
{
closed = 1;
nodes = (
"977 614 OFFCURVE",
"902 736 OFFCURVE",
"745 852 CURVE SMOOTH",
"682 899 OFFCURVE",
"640 937 OFFCURVE",
"618 966 CURVE",
"595 994 OFFCURVE",
"584 1024 OFFCURVE",
"584 1057 CURVE SMOOTH",
"584 1129 OFFCURVE",
"632 1167 OFFCURVE",
"717 1167 CURVE SMOOTH",
"797 1167 OFFCURVE",
"894 1138 OFFCURVE",
"1008 1079 CURVE",
"1143 1376 LINE",
"1016 1447 OFFCURVE",
"872 1483 OFFCURVE",
"713 1483 CURVE SMOOTH",
"614 1483 OFFCURVE",
"525 1464 OFFCURVE",
"446 1426 CURVE SMOOTH",
"286 1349 OFFCURVE",
"195 1203 OFFCURVE",
"195 1028 CURVE SMOOTH",
"195 872 OFFCURVE",
"262 746 OFFCURVE",
"418 621 CURVE SMOOTH",
"482 568 OFFCURVE",
"521 533 OFFCURVE",
"536 518 CURVE",
"565 486 OFFCURVE",
"582 456 OFFCURVE",
"582 420 CURVE SMOOTH",
"582 344 OFFCURVE",
"531 301 OFFCURVE",
"432 301 CURVE SMOOTH",
"315 301 OFFCURVE",
"155 355 OFFCURVE",
"43 426 CURVE",
"43 76 LINE",
"138 13 OFFCURVE",
"273 -20 OFFCURVE",
"420 -20 CURVE SMOOTH",
"771 -20 OFFCURVE",
"977 153 OFFCURVE",
"977 449 CURVE SMOOTH"
);
}
);
};
layerId = "0B5E954E-D3E5-4A16-AD17-8B1BCB8BDBD4";
paths = (
{
closed = 1;
nodes = (
"771 -20 OFFCURVE",
"977 153 OFFCURVE",
"977 449 CURVE SMOOTH",
"977 614 OFFCURVE",
"902 736 OFFCURVE",
"745 852 CURVE SMOOTH",
"682 899 OFFCURVE",
"640 937 OFFCURVE",
"618 966 CURVE",
"595 994 OFFCURVE",
"584 1024 OFFCURVE",
"584 1057 CURVE SMOOTH",
"584 1088 OFFCURVE",
"593 1113 OFFCURVE",
"610 1131 CURVE SMOOTH",
"632 1155 OFFCURVE",
"669 1167 OFFCURVE",
"717 1167 CURVE SMOOTH",
"797 1167 OFFCURVE",
"894 1138 OFFCURVE",
"1008 1079 CURVE",
"1143 1376 LINE",
"1016 1447 OFFCURVE",
"872 1483 OFFCURVE",
"713 1483 CURVE SMOOTH",
"614 1483 OFFCURVE",
"525 1464 OFFCURVE",
"446 1426 CURVE SMOOTH",
"286 1349 OFFCURVE",
"195 1203 OFFCURVE",
"195 1028 CURVE SMOOTH",
"195 872 OFFCURVE",
"262 746 OFFCURVE",
"418 621 CURVE SMOOTH",
"482 568 OFFCURVE",
"521 533 OFFCURVE",
"536 518 CURVE",
"565 486 OFFCURVE",
"582 456 OFFCURVE",
"582 420 CURVE SMOOTH",
"582 344 OFFCURVE",
"531 301 OFFCURVE",
"432 301 CURVE SMOOTH",
"315 301 OFFCURVE",
"155 355 OFFCURVE",
"43 426 CURVE",
"43 76 LINE",
"138 13 OFFCURVE",
"273 -20 OFFCURVE",
"420 -20 CURVE SMOOTH"
);
}
);
width = 1122;
}
);
leftKerningGroup = S;
rightKerningGroup = S;
unicode = 0053;
},
{
glyphname = T;
layers = (
{
anchors = (
{
name = bottom;
position = "{367, 0}";
},
{
name = center;
position = "{533, 731}";
},
{
name = top;
position = "{688, 1462}";
}
);
background = {
anchors = (
{
name = bottom;
position = "{367, 0}";
},
{
name = center;
position = "{533, 731}";
},
{
name = top;
position = "{688, 1462}";
}
);
paths = (
{
closed = 1;
nodes = (
"1167 1368 LINE",
"1186 1462 LINE",
"213 1462 LINE",
"193 1368 LINE",
"625 1368 LINE",
"336 0 LINE",
"438 0 LINE",
"727 1368 LINE"
);
}
);
};
layerId = "4C802D5D-2BAD-4759-8C93-835BB7B64EA1";
paths = (
{
closed = 1;
nodes = (
"438 0 LINE",
"727 1368 LINE",
"1167 1368 LINE",
"1186 1462 LINE",
"213 1462 LINE",
"193 1368 LINE",
"625 1368 LINE",
"336 0 LINE"
);
}
);
width = 985;
},
{
anchors = (
{
name = bottom;
position = "{205, 0}";
},
{
name = center;
position = "{360, 731}";
},
{
name = top;
position = "{545, 1462}";
}
);
background = {
anchors = (
{
name = bottom;
position = "{205, 0}";
},
{
name = center;
position = "{360, 731}";
},
{
name = top;
position = "{545, 1462}";
}
);
paths = (
{
closed = 1;
nodes = (
"836 1366 LINE",
"856 1462 LINE",
"244 1462 LINE",
"223 1366 LINE",
"479 1366 LINE",
"190 0 LINE",
"291 0 LINE",
"580 1366 LINE"
);
}
);
};
layerId = "9047BFCD-DDCC-4357-AC30-29E5270711EF";
paths = (
{
closed = 1;
nodes = (
"291 0 LINE",
"580 1366 LINE",
"836 1366 LINE",
"856 1462 LINE",
"244 1462 LINE",
"223 1366 LINE",
"479 1366 LINE",
"190 0 LINE"
);
}
);
width = 639;
},
{
anchors = (
{
name = bottom;
position = "{334, 0}";
},
{
name = center;
position = "{393, 731}";
},
{
name = top;
position = "{732, 1462}";
}
);
background = {
anchors = (
{
name = bottom;
position = "{334, 0}";
},
{
name = center;
position = "{393, 731}";
},
{
name = top;
position = "{732, 1462}";
}
);
paths = (
{
closed = 1;
nodes = (
"1055 1161 LINE",
"1119 1462 LINE",
"223 1462 LINE",
"160 1161 LINE",
"435 1161 LINE",
"189 0 LINE",
"534 0 LINE",
"780 1161 LINE"
);
}
);
};
layerId = "055178C8-6F6F-4B48-86C1-608D4439D248";
paths = (
{
closed = 1;
nodes = (
"534 0 LINE",
"780 1161 LINE",
"1055 1161 LINE",
"1119 1462 LINE",
"223 1462 LINE",
"160 1161 LINE",
"435 1161 LINE",
"189 0 LINE"
);
}
);
width = 960;
},
{
anchors = (
{
name = bottom;
position = "{445, 0}";
},
{
name = center;
position = "{600, 731}";
},
{
name = top;
position = "{755, 1462}";
}
);
background = {
anchors = (
{
name = bottom;
position = "{445, 0}";
},
{
name = center;
position = "{600, 731}";
},
{
name = top;
position = "{755, 1462}";
}
);
paths = (
{
closed = 1;
nodes = (
"1182 1139 LINE",
"1253 1462 LINE",
"225 1462 LINE",
"156 1139 LINE",
"473 1139 LINE",
"236 0 LINE",
"627 0 LINE",
"864 1139 LINE"
);
}
);
};
layerId = "0B5E954E-D3E5-4A16-AD17-8B1BCB8BDBD4";
paths = (
{
closed = 1;
nodes = (
"627 0 LINE",
"864 1139 LINE",
"1182 1139 LINE",
"1253 1462 LINE",
"225 1462 LINE",
"156 1139 LINE",
"473 1139 LINE",
"236 0 LINE"
);
}
);
width = 1130;
}
);
leftKerningGroup = T;
rightKerningGroup = T;
unicode = 0054;
},
{
glyphname = Tbar;
layers = (
{
background = {
paths = (
{
closed = 1;
nodes = (
"487 721 LINE",
"336 0 LINE",
"438 0 LINE",
"590 721 LINE",
"920 721 LINE",
"938 803 LINE",
"606 803 LINE",
"727 1368 LINE",
"1167 1368 LINE",
"1186 1462 LINE",
"213 1462 LINE",
"193 1368 LINE",
"625 1368 LINE",
"506 803 LINE",
"182 803 LINE",
"164 721 LINE"
);
}
);
};
layerId = "4C802D5D-2BAD-4759-8C93-835BB7B64EA1";
paths = (
{
closed = 1;
nodes = (
"438 0 LINE",
"590 721 LINE",
"920 721 LINE",
"938 803 LINE",
"606 803 LINE",
"727 1368 LINE",
"1167 1368 LINE",
"1186 1462 LINE",
"213 1462 LINE",
"193 1368 LINE",
"625 1368 LINE",
"506 803 LINE",
"182 803 LINE",
"164 721 LINE",
"487 721 LINE",
"336 0 LINE"
);
}
);
width = 985;
},
{
background = {
paths = (
{
closed = 1;
nodes = (
"651 725 LINE",
"668 801 LINE",
"459 801 LINE",
"580 1366 LINE",
"836 1366 LINE",
"856 1462 LINE",
"244 1462 LINE",
"223 1366 LINE",
"479 1366 LINE",
"360 801 LINE",
"170 801 LINE",
"154 725 LINE",
"344 725 LINE",
"190 0 LINE",
"291 0 LINE",
"442 725 LINE"
);
}
);
};
layerId = "9047BFCD-DDCC-4357-AC30-29E5270711EF";
paths = (
{
closed = 1;
nodes = (
"291 0 LINE",
"442 725 LINE",
"651 725 LINE",
"668 801 LINE",
"459 801 LINE",
"580 1366 LINE",
"836 1366 LINE",
"856 1462 LINE",
"244 1462 LINE",
"223 1366 LINE",
"479 1366 LINE",
"360 801 LINE",
"170 801 LINE",
"154 725 LINE",
"344 725 LINE",
"190 0 LINE"
);
}
);
width = 639;
},
{
background = {
paths = (
{
closed = 1;
nodes = (
"943 572 LINE",
"1006 867 LINE",
"837 867 LINE",
"899 1162 LINE",
"1174 1162 LINE",
"1238 1462 LINE",
"342 1462 LINE",
"279 1162 LINE",
"554 1162 LINE",
"491 867 LINE",
"318 867 LINE",
"256 572 LINE",
"429 572 LINE",
"308 0 LINE",
"653 0 LINE",
"774 572 LINE"
);
}
);
};
layerId = "055178C8-6F6F-4B48-86C1-608D4439D248";
paths = (
{
closed = 1;
nodes = (
"653 0 LINE",
"774 572 LINE",
"943 572 LINE",
"1006 867 LINE",
"837 867 LINE",
"899 1162 LINE",
"1174 1162 LINE",
"1238 1462 LINE",
"342 1462 LINE",
"279 1162 LINE",
"554 1162 LINE",
"491 867 LINE",
"318 867 LINE",
"256 572 LINE",
"429 572 LINE",
"308 0 LINE"
);
}
);
width = 960;
},
{
background = {
paths = (
{
closed = 1;
nodes = (
"1182 1139 LINE",
"1253 1462 LINE",
"225 1462 LINE",
"156 1139 LINE",
"473 1139 LINE",
"416 862 LINE",
"211 862 LINE",
"143 543 LINE",
"348 543 LINE",
"236 0 LINE",
"627 0 LINE",
"739 543 LINE",
"944 543 LINE",
"1014 862 LINE",
"807 862 LINE",
"864 1139 LINE"
);
}
);
};
layerId = "0B5E954E-D3E5-4A16-AD17-8B1BCB8BDBD4";
paths = (
{
closed = 1;
nodes = (
"627 0 LINE",
"739 543 LINE",
"944 543 LINE",
"1014 862 LINE",
"807 862 LINE",
"864 1139 LINE",
"1182 1139 LINE",
"1253 1462 LINE",
"225 1462 LINE",
"156 1139 LINE",
"473 1139 LINE",
"416 862 LINE",
"211 862 LINE",
"143 543 LINE",
"348 543 LINE",
"236 0 LINE"
);
}
);
width = 1130;
}
);
leftKerningGroup = T;
note = Tbar;
rightKerningGroup = T;
unicode = 0166;
},
{
glyphname = U;
layers = (
{
anchors = (
{
name = bottom;
position = "{569, 0}";
},
{
name = ogonek;
position = "{752, 8}";
},
{
name = top;
position = "{880, 1462}";
},
{
name = topright;
position = "{1545, 1462}";
}
);
background = {
anchors = (
{
name = bottom;
position = "{569, 0}";
},
{
name = ogonek;
position = "{1117, 10}";
},
{
name = top;
position = "{880, 1462}";
},
{
name = topright;
position = "{1545, 1462}";
}
);
paths = (
{
closed = 1;
nodes = (
"1087 485 LINE SMOOTH",
"1026 189 OFFCURVE",
"881 70 OFFCURVE",
"621 70 CURVE SMOOTH",
"393 70 OFFCURVE",
"279 173 OFFCURVE",
"279 379 CURVE SMOOTH",
"279 442 OFFCURVE",
"286 504 OFFCURVE",
"299 563 CURVE SMOOTH",
"492 1462 LINE",
"389 1462 LINE",
"203 582 LINE SMOOTH",
"185 503 OFFCURVE",
"176 436 OFFCURVE",
"176 381 CURVE SMOOTH",
"176 114 OFFCURVE",
"323 -20 OFFCURVE",
"616 -20 CURVE SMOOTH",
"931 -20 OFFCURVE",
"1111 125 OFFCURVE",
"1188 485 CURVE SMOOTH",
"1395 1462 LINE",
"1294 1462 LINE"
);
}
);
};
layerId = "4C802D5D-2BAD-4759-8C93-835BB7B64EA1";
paths = (
{
closed = 1;
nodes = (
"931 -20 OFFCURVE",
"1111 125 OFFCURVE",
"1188 485 CURVE SMOOTH",
"1395 1462 LINE",
"1294 1462 LINE",
"1087 485 LINE SMOOTH",
"1026 189 OFFCURVE",
"881 70 OFFCURVE",
"621 70 CURVE SMOOTH",
"393 70 OFFCURVE",
"279 173 OFFCURVE",
"279 379 CURVE SMOOTH",
"279 442 OFFCURVE",
"286 504 OFFCURVE",
"299 563 CURVE SMOOTH",
"492 1462 LINE",
"389 1462 LINE",
"203 582 LINE SMOOTH",
"185 503 OFFCURVE",
"176 436 OFFCURVE",
"176 381 CURVE SMOOTH",
"176 114 OFFCURVE",
"323 -20 OFFCURVE",
"616 -20 CURVE SMOOTH"
);
}
);
width = 1370;
},
{
anchors = (
{
name = bottom;
position = "{381, 0}";
},
{
name = ogonek;
position = "{485, 10}";
},
{
name = top;
position = "{681, 1462}";
},
{
name = topright;
position = "{1086, 1462}";
}
);
background = {
anchors = (
{
name = bottom;
position = "{381, 0}";
},
{
name = ogonek;
position = "{485, 10}";
},
{
name = top;
position = "{681, 1462}";
},
{
name = topright;
position = "{1086, 1462}";
}
);
paths = (
{
closed = 1;
nodes = (
"699 457 LINE SMOOTH",
"642 189 OFFCURVE",
"549 74 OFFCURVE",
"398 74 CURVE SMOOTH",
"282 74 OFFCURVE",
"225 141 OFFCURVE",
"225 274 CURVE SMOOTH",
"225 317 OFFCURVE",
"231 373 OFFCURVE",
"243 428 CURVE SMOOTH",
"465 1462 LINE",
"367 1462 LINE",
"147 440 LINE SMOOTH",
"136 388 OFFCURVE",
"129 328 OFFCURVE",
"129 275 CURVE SMOOTH",
"129 89 OFFCURVE",
"214 -20 OFFCURVE",
"394 -20 CURVE SMOOTH",
"600 -20 OFFCURVE",
"725 124 OFFCURVE",
"797 459 CURVE SMOOTH",
"1012 1462 LINE",
"913 1462 LINE"
);
}
);
};
layerId = "9047BFCD-DDCC-4357-AC30-29E5270711EF";
paths = (
{
closed = 1;
nodes = (
"600 -20 OFFCURVE",
"725 124 OFFCURVE",
"797 459 CURVE SMOOTH",
"1012 1462 LINE",
"913 1462 LINE",
"699 457 LINE SMOOTH",
"642 189 OFFCURVE",
"549 74 OFFCURVE",
"398 74 CURVE SMOOTH",
"282 74 OFFCURVE",
"225 141 OFFCURVE",
"225 274 CURVE SMOOTH",
"225 317 OFFCURVE",
"231 373 OFFCURVE",
"243 428 CURVE SMOOTH",
"465 1462 LINE",
"367 1462 LINE",
"147 440 LINE SMOOTH",
"136 388 OFFCURVE",
"129 328 OFFCURVE",
"129 275 CURVE SMOOTH",
"129 89 OFFCURVE",
"214 -20 OFFCURVE",
"394 -20 CURVE SMOOTH"
);
}
);
width = 911;
},
{
anchors = (
{
name = bottom;
position = "{481, 0}";
},
{
name = ogonek;
position = "{662, 10}";
},
{
name = top;
position = "{809, 1462}";
},
{
name = topright;
position = "{1244, 1462}";
}
);
background = {
anchors = (
{
name = bottom;
position = "{481, 0}";
},
{
name = ogonek;
position = "{662, 10}";
},
{
name = top;
position = "{809, 1462}";
},
{
name = topright;
position = "{1244, 1462}";
}
);
paths = (
{
closed = 1;
nodes = (
"745 520 LINE SMOOTH",
"716 382 OFFCURVE",
"624 284 OFFCURVE",
"524 284 CURVE SMOOTH",
"469 284 OFFCURVE",
"430 313 OFFCURVE",
"430 386 CURVE SMOOTH",
"430 412 OFFCURVE",
"435 455 OFFCURVE",
"445 501 CURVE SMOOTH",
"648 1462 LINE",
"304 1462 LINE",
"111 554 LINE SMOOTH",
"97 486 OFFCURVE",
"90 424 OFFCURVE",
"90 368 CURVE SMOOTH",
"90 116 OFFCURVE",
"231 -20 OFFCURVE",
"497 -20 CURVE SMOOTH",
"808 -20 OFFCURVE",
"1015 163 OFFCURVE",
"1090 519 CURVE SMOOTH",
"1290 1462 LINE",
"945 1462 LINE"
);
}
);
};
layerId = "055178C8-6F6F-4B48-86C1-608D4439D248";
paths = (
{
closed = 1;
nodes = (
"808 -20 OFFCURVE",
"1015 163 OFFCURVE",
"1090 519 CURVE SMOOTH",
"1290 1462 LINE",
"945 1462 LINE",
"745 520 LINE SMOOTH",
"716 382 OFFCURVE",
"624 284 OFFCURVE",
"524 284 CURVE SMOOTH",
"469 284 OFFCURVE",
"430 313 OFFCURVE",
"430 386 CURVE SMOOTH",
"430 412 OFFCURVE",
"435 455 OFFCURVE",
"445 501 CURVE SMOOTH",
"648 1462 LINE",
"304 1462 LINE",
"111 554 LINE SMOOTH",
"97 486 OFFCURVE",
"90 424 OFFCURVE",
"90 368 CURVE SMOOTH",
"90 116 OFFCURVE",
"231 -20 OFFCURVE",
"497 -20 CURVE SMOOTH"
);
}
);
width = 1211;
},
{
anchors = (
{
name = bottom;
position = "{598, 0}";
},
{
name = ogonek;
position = "{790, 9}";
},
{
name = top;
position = "{908, 1462}";
},
{
name = topright;
position = "{1606, 1462}";
}
);
background = {
anchors = (
{
name = bottom;
position = "{598, 0}";
},
{
name = ogonek;
position = "{1172, 10}";
},
{
name = top;
position = "{908, 1462}";
},
{
name = topright;
position = "{1606, 1462}";
}
);
paths = (
{
closed = 1;
nodes = (
"868 569 LINE SMOOTH",
"831 392 OFFCURVE",
"764 307 OFFCURVE",
"639 307 CURVE SMOOTH",
"558 307 OFFCURVE",
"518 349 OFFCURVE",
"518 434 CURVE SMOOTH",
"518 465 OFFCURVE",
"523 504 OFFCURVE",
"532 549 CURVE SMOOTH",
"727 1462 LINE",
"336 1462 LINE",
"137 539 LINE SMOOTH",
"129 496 OFFCURVE",
"125 453 OFFCURVE",
"125 410 CURVE SMOOTH",
"125 329 OFFCURVE",
"144 255 OFFCURVE",
"181 189 CURVE SMOOTH",
"255 57 OFFCURVE",
"396 -20 OFFCURVE",
"575 -20 CURVE SMOOTH",
"955 -20 OFFCURVE",
"1172 155 OFFCURVE",
"1251 530 CURVE SMOOTH",
"1450 1462 LINE",
"1059 1462 LINE"
);
}
);
};
layerId = "0B5E954E-D3E5-4A16-AD17-8B1BCB8BDBD4";
paths = (
{
closed = 1;
nodes = (
"955 -20 OFFCURVE",
"1172 155 OFFCURVE",
"1251 530 CURVE SMOOTH",
"1450 1462 LINE",
"1059 1462 LINE",
"868 569 LINE SMOOTH",
"831 392 OFFCURVE",
"764 307 OFFCURVE",
"639 307 CURVE SMOOTH",
"558 307 OFFCURVE",
"518 349 OFFCURVE",
"518 434 CURVE SMOOTH",
"518 465 OFFCURVE",
"523 504 OFFCURVE",
"532 549 CURVE SMOOTH",
"727 1462 LINE",
"336 1462 LINE",
"137 539 LINE SMOOTH",
"129 496 OFFCURVE",
"125 453 OFFCURVE",
"125 410 CURVE SMOOTH",
"125 156 OFFCURVE",
"309 -20 OFFCURVE",
"575 -20 CURVE SMOOTH"
);
}
);
width = 1436;
}
);
leftKerningGroup = U;
rightKerningGroup = U;
unicode = 0055;
},
